<?xml version="1.0" standalone="no"?>
<!DOCTYPE svg PUBLIC "-//W3C//DTD SVG 1.1//EN" "http://www.w3.org/Graphics/SVG/1.1/DTD/svg11.dtd" >
<svg xmlns="http://www.w3.org/2000/svg" xmlns:xlink="http://www.w3.org/1999/xlink" version="1.1">
<metadata>
Created by FontForge 20190801 at Sun May 24 05:38:45 2020
 By Unknown
Copyright \(c\) 2020 Cerebri Sans Pro\(TM\) Version  2020 Edition by Alfredo Marco Pradil. All rights reserved.
</metadata>
<defs>
<font id="CerebriSansPro-Bold" horiz-adv-x="0" >
  <font-face 
    font-family="Cerebri Sans Pro"
    font-weight="700"
    font-stretch="normal"
    units-per-em="1000"
    panose-1="0 0 8 0 0 0 0 0 0 0"
    ascent="750"
    descent="-250"
    x-height="504"
    cap-height="707"
    bbox="-810 -250 1325 1072"
    underline-thickness="70"
    underline-position="-140"
    stemh="127"
    stemv="145"
    unicode-range="U+000D-FB02"
  />
<missing-glyph horiz-adv-x="545" 
d="M500 0h-456v707h456v-707zM149 602v-496h246v496h-246z" />
    <glyph glyph-name="fi" unicode="fi" horiz-adv-x="653" 
d="M356 649c-47 0 -97 -18 -97 -95v-50h111v-106h-111v-398h-139v398h-101v106h101v50c0 148 106 206 243 206c121 0 195 -59 224 -150l-134 -35c-15 53 -43 74 -97 74zM453 0v504h139v-504h-139z" />
    <glyph glyph-name="fl" unicode="fl" horiz-adv-x="653" 
d="M356 760c131 0 236 -58 236 -206v-554h-138v547c0 77 -42 102 -98 102c-47 0 -97 -18 -97 -95v-50h111v-106h-111v-398h-139v398h-101v106h101v50c0 148 106 206 236 206z" />
    <glyph glyph-name="f_f" unicode="ff" horiz-adv-x="729" 
d="M709 640h-27c-34 0 -84 -9 -84 -86v-50h111v-106h-111v-398h-138v398h-201v-398h-139v398h-101v106h101v50c0 148 106 206 243 206c67 0 118 -19 153 -51c39 32 97 41 166 41h27v-110zM259 554v-50h201v50c0 15 1 29 2 42c-21 34 -57 53 -106 53c-68 0 -97 -33 -97 -95z
" />
    <glyph glyph-name="f_f_i" unicode="ffi" horiz-adv-x="986" 
d="M696 760c121 0 195 -59 225 -150l-135 -35c-14 53 -43 74 -97 74c-47 0 -97 -18 -97 -95v-50h111v-106h-111v-398h-138v398h-195v-398h-139v398h-101v106h101v50c0 148 106 206 243 206c68 0 119 -19 155 -52c43 36 106 52 178 52zM259 504h195v50c0 17 1 33 4 48
c-22 30 -56 47 -102 47c-68 0 -97 -33 -97 -95v-50zM787 0v504h138v-504h-138z" />
    <glyph glyph-name="f_f_l" unicode="ffl" horiz-adv-x="987" 
d="M690 760c130 0 236 -58 236 -206v-554h-139v547c0 77 -41 102 -98 102c-47 0 -97 -25 -97 -95v-50h111v-106h-111v-398h-138v398h-195v-398h-139v398h-101v106h101v50c0 148 106 206 243 206c68 0 119 -19 154 -52c43 36 105 52 173 52zM259 504h195v50c0 17 1 33 4 48
c-22 30 -56 47 -102 47c-68 0 -97 -33 -97 -95v-50z" />
    <glyph glyph-name="h_d_c_o.liga" unicode="hdco" horiz-adv-x="808" 
d="M404 0c-209 0 -380 171 -380 380c0 210 171 380 380 380c210 0 380 -170 380 -380c0 -209 -170 -380 -380 -380zM404 36c190 0 344 155 344 344c0 190 -154 344 -344 344c-189 0 -344 -154 -344 -344c0 -189 155 -344 344 -344zM603 217c-4 0 -9 2 -12 6l-145 144
c-7 8 -7 19 0 26l145 145c7 7 18 7 25 0s7 -19 0 -26l-132 -132l132 -132c7 -7 6 -17 0 -25c-3 -4 -8 -6 -13 -6zM205 217c-10 0 -18 8 -18 18v290c0 10 8 18 18 18s18 -8 18 -18v-290c0 -10 -8 -18 -18 -18zM404 217c-10 0 -18 8 -18 18v290c0 10 8 18 18 18s18 -8 18 -18
v-290c0 -10 -8 -18 -18 -18zM350 362h-91c-10 0 -18 8 -18 18s8 18 18 18h91c10 0 18 -8 18 -18s-8 -18 -18 -18z" />
    <glyph glyph-name="hyphen_greater.liga" unicode="&#x2d;&#x3e;" horiz-adv-x="740" 
d="M712 253l-152 -184h-112l109 132h-557v104h557l-109 132h112z" />
    <glyph glyph-name="less_hyphen.liga" unicode="&#x3c;&#x2d;" horiz-adv-x="740" 
d="M292 69h-112l-152 184l152 184h112l-109 -132h557v-104h-557z" />
    <glyph glyph-name="parenleft_greater_parenright.liga" unicode="&#x28;&#x3e;&#x29;" horiz-adv-x="801" 
d="M401 -10c-200 0 -364 164 -364 364s164 363 364 363c199 0 363 -163 363 -363s-163 -364 -363 -364zM401 63c162 0 291 129 291 291s-129 291 -291 291s-292 -129 -292 -291s129 -291 292 -291zM604 354l-291 -199v398z" />
    <glyph glyph-name=".notdef" horiz-adv-x="545" 
d="M500 0h-456v707h456v-707zM149 602v-496h246v496h-246z" />
    <glyph glyph-name="NULL" 
 />
    <glyph glyph-name="NULL" 
 />
    <glyph glyph-name="CR" unicode="&#xd;" horiz-adv-x="250" 
 />
    <glyph glyph-name="space" unicode=" " horiz-adv-x="260" 
 />
    <glyph glyph-name="exclam" unicode="!" horiz-adv-x="272" 
d="M190 228h-110l-15 479h140zM135 -10c-43 0 -79 36 -79 80s36 80 79 80c45 0 81 -36 81 -80s-36 -80 -81 -80z" />
    <glyph glyph-name="quotedbl" unicode="&#x22;" horiz-adv-x="430" 
d="M159 389h-97l-20 318h132zM369 389h-97l-15 318h131z" />
    <glyph glyph-name="numbersign" unicode="#" horiz-adv-x="763" 
d="M247 0h-96l22 162h-137l13 95h138l28 191h-139l16 95h136l24 164h95l-22 -164h167l23 164h96l-23 -164h140l-15 -95h-139l-27 -191h139l-13 -95h-139l-24 -162h-95l23 162h-170zM310 448l-27 -191h168l27 191h-168z" />
    <glyph glyph-name="dollar" unicode="$" horiz-adv-x="612" 
d="M572 202c0 -122 -92 -206 -237 -215v-66h-50v66c-141 7 -251 82 -271 210l143 30c19 -76 64 -113 128 -121v194l-29 9c-103 31 -217 70 -217 203c0 125 100 207 246 209v58h50v-60c109 -12 206 -68 233 -188l-130 -30c-20 57 -52 89 -103 99v-180c2 -1 4 -1 6 -2
c106 -31 231 -74 231 -216zM185 520c0 -48 43 -68 100 -86v169c-60 -4 -100 -35 -100 -83zM335 284v-177c56 7 87 38 87 85c0 49 -36 73 -87 92z" />
    <glyph glyph-name="percent" unicode="%" horiz-adv-x="851" 
d="M216 384c-92 0 -166 74 -166 167c0 92 75 166 166 166c92 0 166 -75 166 -166c0 -92 -74 -167 -166 -167zM296 0h-114l369 707h114zM216 475c43 0 75 33 75 76c0 41 -34 75 -75 75s-75 -33 -75 -75c0 -43 34 -76 75 -76zM636 -9c-94 0 -168 75 -168 167
c0 93 75 167 168 167c91 0 165 -74 165 -167c0 -91 -74 -167 -165 -167zM636 84c41 0 75 33 75 74s-35 76 -75 76c-43 0 -77 -33 -77 -76c0 -41 34 -74 77 -74z" />
    <glyph glyph-name="ampersand" unicode="&#x26;" horiz-adv-x="756" 
d="M608 133l108 -133h-157l-41 51c-63 -41 -139 -65 -223 -65c-155 0 -258 80 -258 206c0 106 68 162 177 230l-15 19c-29 34 -49 79 -49 124c0 99 83 156 188 156c129 0 199 -67 199 -154c0 -73 -52 -122 -143 -168l135 -167c32 51 51 115 51 187h125
c0 -110 -35 -210 -97 -286zM346 629c-40 0 -66 -23 -66 -57c0 -25 15 -51 34 -74l15 -18c55 32 79 62 79 94s-26 55 -62 55zM309 103c48 0 93 14 133 40l-160 196c-63 -40 -105 -69 -105 -134c0 -66 50 -102 132 -102z" />
    <glyph glyph-name="quotesingle" unicode="'" horiz-adv-x="217" 
d="M155 389h-97l-15 318h131z" />
    <glyph glyph-name="parenleft" unicode="(" horiz-adv-x="354" 
d="M336 -250h-133c-99 121 -157 319 -157 545s58 424 157 545h133c-106 -112 -168 -311 -168 -545s62 -433 168 -545z" />
    <glyph glyph-name="parenright" unicode=")" horiz-adv-x="354" 
d="M151 -250h-133c106 112 168 311 168 545s-62 433 -168 545h133c99 -121 157 -319 157 -545s-58 -424 -157 -545z" />
    <glyph glyph-name="asterisk" unicode="*" horiz-adv-x="406" 
d="M186 511l-46 -116l-66 40l78 96c15 18 6 33 -16 29l-125 -19v77l125 -19c22 -3 31 12 16 30l-78 96l66 39l46 -116c8 -23 26 -23 34 0l46 116l67 -39l-80 -96c-14 -18 -6 -34 17 -30l124 19v-77l-124 19c-23 4 -31 -11 -16 -29l79 -96l-67 -40l-46 116
c-8 22 -26 23 -34 0z" />
    <glyph glyph-name="plus" unicode="+" horiz-adv-x="594" 
d="M349 10h-104v191h-190v104h190v190h104v-190h190v-104h-190v-191z" />
    <glyph glyph-name="comma" unicode="," horiz-adv-x="321" 
d="M164 -180h-99l61 321h142z" />
    <glyph glyph-name="hyphen" unicode="-" horiz-adv-x="395" 
d="M372 201h-350v104h350v-104z" />
    <glyph glyph-name="period" unicode="." horiz-adv-x="318" 
d="M158 -10c-43 0 -79 36 -79 80c0 43 36 80 79 80c44 0 81 -37 81 -80c0 -44 -37 -80 -81 -80z" />
    <glyph glyph-name="slash" unicode="/" horiz-adv-x="622" 
d="M133 -200h-131l487 950h131z" />
    <glyph glyph-name="zero" unicode="0" horiz-adv-x="600" 
d="M300 -14c-165 0 -257 120 -257 368c0 249 93 367 257 367s256 -118 256 -367c0 -248 -92 -368 -256 -368zM300 111c73 0 118 73 118 243c0 171 -44 243 -118 243s-118 -72 -118 -243s44 -243 118 -243z" />
    <glyph glyph-name="one" unicode="1" horiz-adv-x="600" 
d="M123 571l168 136h134v-707h-138v547l-164 -133v157z" />
    <glyph glyph-name="two" unicode="2" horiz-adv-x="600" 
d="M442 321l-193 -198h300v-123h-495v111l283 287c42 42 61 75 61 115c0 54 -36 85 -96 85c-73 0 -112 -40 -112 -118v-34l-138 14v32c0 143 94 229 244 229c140 0 239 -77 239 -203c0 -75 -27 -129 -93 -197z" />
    <glyph glyph-name="three" unicode="3" horiz-adv-x="600" 
d="M306 -14c-169 0 -262 90 -262 255h142c1 -76 33 -131 117 -131c71 0 111 45 111 107c0 86 -73 104 -116 104h-23v106h21c56 0 95 37 95 91c0 49 -37 81 -89 81c-62 0 -101 -44 -101 -115v-6l-140 14c0 145 94 229 237 229c130 0 222 -85 222 -190
c0 -80 -51 -130 -93 -147c64 -17 128 -69 128 -175c0 -132 -99 -223 -249 -223z" />
    <glyph glyph-name="four" unicode="4" horiz-adv-x="600" 
d="M498 263h75v-123h-75v-140h-138v140h-332v124l259 443h211v-444zM360 617l-202 -354h202v354z" />
    <glyph glyph-name="five" unicode="5" horiz-adv-x="600" 
d="M216 456h81c167 0 259 -72 259 -222c0 -151 -99 -248 -253 -248c-152 0 -253 90 -253 232c0 9 1 19 2 28h135v-16c0 -74 43 -120 119 -120c72 0 111 49 111 115c0 102 -86 117 -167 117h-178l28 365h422v-122h-297z" />
    <glyph glyph-name="six" unicode="6" horiz-adv-x="600" 
d="M329 472c127 0 233 -96 233 -236c0 -141 -122 -250 -264 -250c-148 0 -259 115 -259 252c0 58 17 114 64 175l224 294h165l-184 -236c7 1 14 1 21 1zM426 239c2 74 -49 134 -130 134c-76 0 -126 -56 -128 -130c-2 -71 46 -133 126 -133c77 0 131 59 132 129z" />
    <glyph glyph-name="seven" unicode="7" horiz-adv-x="600" 
d="M52 585v122h499v-122l-323 -585h-159l332 585h-349z" />
    <glyph glyph-name="eight" unicode="8" horiz-adv-x="600" 
d="M300 -14c-147 0 -255 86 -255 220c0 83 42 146 110 181c-50 31 -82 81 -82 143c0 112 95 191 227 191c131 0 226 -80 226 -191c0 -62 -32 -112 -79 -143c66 -35 109 -98 109 -181c0 -133 -109 -220 -256 -220zM300 426c55 0 100 42 100 99c0 56 -45 94 -100 94
c-56 0 -100 -38 -100 -94c0 -58 44 -99 100 -99zM300 110c67 0 117 46 117 113c0 68 -50 111 -117 111c-68 0 -117 -43 -117 -111c0 -67 50 -113 117 -113z" />
    <glyph glyph-name="nine" unicode="9" horiz-adv-x="600" 
d="M302 721c148 0 260 -115 260 -252c0 -58 -18 -113 -64 -175l-224 -294h-166l184 236c-7 -1 -14 -1 -21 -1c-127 0 -232 96 -232 237c0 140 121 249 263 249zM432 465c2 70 -46 133 -126 133c-77 0 -130 -60 -132 -129c-1 -74 49 -134 130 -134c76 0 126 55 128 130z" />
    <glyph glyph-name="colon" unicode=":" horiz-adv-x="301" 
d="M150 337c-43 0 -79 36 -79 80c0 43 36 79 79 79c44 0 81 -36 81 -79c0 -44 -37 -80 -81 -80zM150 -10c-43 0 -79 36 -79 80c0 43 36 80 79 80c44 0 81 -37 81 -80c0 -44 -37 -80 -81 -80z" />
    <glyph glyph-name="semicolon" unicode=";" horiz-adv-x="319" 
d="M174 337c-43 0 -80 36 -80 80c0 43 37 79 80 79c44 0 80 -36 80 -79c0 -44 -36 -80 -80 -80zM151 -180h-100l62 321h141z" />
    <glyph glyph-name="less" unicode="&#x3c;" horiz-adv-x="491" 
d="M55 299l382 191v-112l-249 -125l249 -126v-113l-382 193v92z" />
    <glyph glyph-name="equal" unicode="=" horiz-adv-x="559" 
d="M505 308h-450v104h450v-104zM505 93h-450v104h450v-104z" />
    <glyph glyph-name="greater" unicode="&#x3e;" horiz-adv-x="491" 
d="M55 378v112l382 -191v-92l-382 -193v113l249 126z" />
    <glyph glyph-name="question" unicode="?" horiz-adv-x="531" 
d="M316 220h-111v42c0 67 35 94 79 121c40 24 81 49 81 120c0 67 -45 104 -107 104c-67 0 -108 -44 -108 -104c0 -11 1 -21 3 -32l-123 7c0 10 -1 20 -1 32c0 123 92 211 229 211c141 0 237 -80 237 -208c0 -132 -81 -172 -130 -204c-31 -21 -49 -39 -49 -70v-19zM261 -10
c-44 0 -80 36 -80 80s37 79 80 79s79 -35 79 -79s-35 -80 -79 -80z" />
    <glyph glyph-name="at" unicode="@" horiz-adv-x="882" 
d="M443 -110c-212 0 -383 163 -383 376c0 224 164 390 383 390c226 0 382 -174 382 -372c0 -128 -58 -203 -165 -203c-62 0 -97 19 -123 66h-7c-26 -45 -72 -71 -127 -71c-68 0 -129 37 -129 104c0 73 70 102 127 115l108 25v20c0 40 -26 60 -65 60s-63 -18 -74 -62l-89 21
c18 63 74 106 163 106c78 0 159 -35 159 -141v-99c0 -51 20 -73 66 -73c53 0 78 39 78 123c0 167 -122 302 -304 302c-176 0 -304 -129 -304 -310c0 -171 136 -299 304 -299c59 0 115 17 165 48l36 -69c-58 -36 -128 -57 -201 -57zM424 143c51 0 85 40 85 100v23l-75 -22
c-50 -15 -65 -30 -65 -57c0 -28 23 -44 55 -44z" />
    <glyph glyph-name="A" unicode="A" horiz-adv-x="724" 
d="M716 0h-153l-53 148h-295l-53 -148h-154l265 707h179zM363 560l-105 -293h209z" />
    <glyph glyph-name="B" unicode="B" horiz-adv-x="625" 
d="M453 378c84 -26 133 -80 133 -179c0 -183 -174 -199 -255 -199h-263v707h233c158 0 241 -61 241 -180c0 -73 -31 -124 -89 -149zM398 503c0 57 -34 85 -100 85h-86v-170h86c67 0 100 28 100 85zM212 123h121c74 0 109 29 109 92s-35 93 -109 93h-121v-185z" />
    <glyph glyph-name="C" unicode="C" horiz-adv-x="763" 
d="M399 -14c-212 0 -362 150 -362 368s150 367 362 367c160 0 285 -86 336 -221l-136 -49c-31 85 -105 138 -200 138c-127 0 -218 -94 -218 -235s91 -235 218 -235c95 0 169 52 200 137l136 -48c-51 -136 -176 -222 -336 -222z" />
    <glyph glyph-name="D" unicode="D" horiz-adv-x="703" 
d="M281 0h-214v707h214c120 0 200 -23 259 -66c82 -60 124 -159 124 -287s-42 -228 -124 -288c-59 -43 -139 -66 -259 -66zM212 581v-454h69c68 0 120 14 158 41c54 38 80 102 80 186s-26 148 -80 185c-38 27 -90 42 -158 42h-69z" />
    <glyph glyph-name="E" unicode="E" horiz-adv-x="525" 
d="M480 707v-126h-268v-165h239v-125h-239v-164h268v-127h-412v707h412z" />
    <glyph glyph-name="F" unicode="F" horiz-adv-x="514" 
d="M488 707v-126h-276v-165h239v-125h-239v-291h-144v707h420z" />
    <glyph glyph-name="G" unicode="G" horiz-adv-x="788" 
d="M391 -14c-207 0 -354 150 -354 368s150 367 362 367c140 0 253 -65 313 -172l-126 -67c-37 67 -104 107 -187 107c-127 0 -218 -94 -218 -235c0 -140 84 -235 218 -235c94 0 173 51 197 152h-191v115h333v-386h-113v107c-44 -71 -121 -121 -234 -121z" />
    <glyph glyph-name="H" unicode="H" horiz-adv-x="732" 
d="M212 0h-144v707h144v-290h308v290h145v-707h-145v292h-308v-292z" />
    <glyph glyph-name="I" unicode="I" horiz-adv-x="280" 
d="M212 0h-144v707h144v-707z" />
    <glyph glyph-name="J" unicode="J" horiz-adv-x="466" 
d="M194 -14c-62 0 -122 15 -188 53l61 118c36 -24 69 -37 108 -37c55 0 83 32 83 114v473h145v-500c0 -142 -86 -221 -209 -221z" />
    <glyph glyph-name="K" unicode="K" horiz-adv-x="689" 
d="M681 0h-182l-231 303h-56v-303h-144v707h144v-279h55l229 279h176l-282 -338z" />
    <glyph glyph-name="L" unicode="L" horiz-adv-x="451" 
d="M439 0h-371v707h144v-580h227v-127z" />
    <glyph glyph-name="M" unicode="M" horiz-adv-x="933" 
d="M830 707l58 -707h-146l-45 556l-182 -556h-98l-182 556l-45 -556h-146l58 707h213l151 -441l151 441h213z" />
    <glyph glyph-name="N" unicode="N" horiz-adv-x="769" 
d="M557 203v504h145v-707h-174l-316 507v-507h-144v707h172z" />
    <glyph glyph-name="O" unicode="O" horiz-adv-x="798" 
d="M399 -14c-212 0 -362 150 -362 368s150 367 362 367s362 -149 362 -367s-150 -368 -362 -368zM399 119c127 0 218 94 218 235s-91 235 -218 235s-218 -94 -218 -235s91 -235 218 -235z" />
    <glyph glyph-name="P" unicode="P" horiz-adv-x="602" 
d="M507 653c42 -34 67 -90 67 -167c0 -89 -34 -167 -105 -206c-54 -29 -122 -30 -168 -30h-89v-250h-145v707h234c100 0 161 -17 206 -54zM391 391c25 17 38 46 38 87s-13 69 -36 86c-28 20 -73 23 -113 23h-68v-217h68c37 0 84 2 111 21z" />
    <glyph glyph-name="Q" unicode="Q" horiz-adv-x="805" 
d="M673 103l109 -133l-125 -48l-91 100c-49 -23 -105 -36 -167 -36c-212 0 -362 150 -362 368s150 367 362 367s362 -149 362 -367c0 -101 -32 -187 -88 -251zM181 354c0 -141 91 -235 218 -235s218 94 218 235s-91 235 -218 235s-218 -94 -218 -235z" />
    <glyph glyph-name="R" unicode="R" horiz-adv-x="640" 
d="M622 0h-176l-169 259h-65v-259h-145v707h234c100 0 161 -17 206 -54c42 -34 67 -90 67 -167c0 -88 -34 -169 -105 -208c-10 -5 -20 -9 -30 -13zM280 587h-68v-217h68c37 0 84 2 111 21c25 17 38 46 38 87s-13 69 -36 86c-28 20 -73 23 -113 23z" />
    <glyph glyph-name="S" unicode="S" horiz-adv-x="612" 
d="M307 -14c-152 0 -272 76 -293 211l143 30c21 -85 75 -122 152 -122c72 0 113 33 113 87c0 63 -71 84 -152 107c-106 31 -231 69 -231 213c0 126 102 209 250 209c126 0 248 -53 279 -190l-130 -30c-24 70 -67 102 -140 102c-67 0 -113 -32 -113 -83c0 -57 66 -74 143 -94
c109 -30 244 -68 244 -224c0 -130 -104 -216 -265 -216z" />
    <glyph glyph-name="T" unicode="T" horiz-adv-x="508" 
d="M11 707h485v-126h-170v-581h-144v581h-171v126z" />
    <glyph glyph-name="U" unicode="U" horiz-adv-x="681" 
d="M341 -14c-160 0 -281 84 -281 265v456h144v-437c0 -109 58 -153 137 -153c78 0 136 44 136 153v437h145v-456c0 -181 -122 -265 -281 -265z" />
    <glyph glyph-name="V" unicode="V" horiz-adv-x="725" 
d="M363 148l200 559h153l-264 -707h-179l-265 707h154z" />
    <glyph glyph-name="W" unicode="W" horiz-adv-x="1057" 
d="M750 154l142 553h150l-184 -707h-193l-137 445l-136 -445h-193l-184 707h150l141 -552l160 552h125z" />
    <glyph glyph-name="X" unicode="X" horiz-adv-x="745" 
d="M190 0h-181l278 367l-271 340h176l180 -234l181 234h176l-271 -340l278 -367h-181l-183 248z" />
    <glyph glyph-name="Y" unicode="Y" horiz-adv-x="622" 
d="M462 707h158l-236 -371v-336h-145v334l-238 373h159l151 -247z" />
    <glyph glyph-name="Z" unicode="Z" horiz-adv-x="579" 
d="M543 592l-339 -465h342v-127h-512v115l339 466h-339v126h509v-115z" />
    <glyph glyph-name="bracketleft" unicode="[" horiz-adv-x="344" 
d="M317 -250h-256v1090h256v-98h-134v-894h134v-98z" />
    <glyph glyph-name="backslash" unicode="\" horiz-adv-x="622" 
d="M620 -200h-131l-487 950h131z" />
    <glyph glyph-name="bracketright" unicode="]" horiz-adv-x="344" 
d="M283 840v-1090h-256v98h134v894h-134v98h256z" />
    <glyph glyph-name="asciicircum" unicode="^" horiz-adv-x="711" 
d="M419 707l250 -551h-117l-196 432l-197 -432h-117l250 551h127z" />
    <glyph glyph-name="underscore" unicode="_" horiz-adv-x="500" 
d="M500 -121h-500v104h500v-104z" />
    <glyph glyph-name="grave" unicode="`" horiz-adv-x="371" 
d="M303 565h-121l-114 142h147z" />
    <glyph glyph-name="a" unicode="a" horiz-adv-x="562" 
d="M504 329v-238c0 -30 0 -57 9 -78v-13h-137l-6 69c-34 -53 -103 -79 -169 -79c-81 0 -164 36 -164 137c0 112 100 147 190 166l92 21c26 6 46 13 46 37c0 46 -42 65 -88 65c-56 0 -93 -26 -104 -77l-133 20c22 107 112 155 239 155c146 0 225 -65 225 -185zM242 86
c66 0 131 53 131 157l-124 -32c-39 -8 -74 -26 -74 -69c0 -37 28 -56 67 -56z" />
    <glyph glyph-name="b" unicode="b" horiz-adv-x="642" 
d="M359 514c135 0 245 -99 245 -263s-110 -261 -245 -261c-68 0 -127 24 -158 69v-59h-139v750h139v-307c31 46 90 71 158 71zM330 105c77 0 135 54 135 146s-58 149 -135 149c-78 0 -135 -57 -135 -149s57 -146 135 -146z" />
    <glyph glyph-name="c" unicode="c" horiz-adv-x="594" 
d="M310 -10c-161 0 -272 107 -272 263c0 155 111 261 272 261c129 0 224 -67 248 -187l-128 -12c-15 61 -59 91 -122 91c-80 0 -132 -63 -132 -153c0 -91 52 -154 132 -154c63 0 107 30 122 91l128 -12c-24 -120 -122 -188 -248 -188z" />
    <glyph glyph-name="d" unicode="d" horiz-adv-x="642" 
d="M442 442v308h138v-750h-138v61c-30 -46 -90 -71 -159 -71c-135 0 -245 97 -245 261s110 263 245 263c69 0 129 -26 159 -72zM313 105c77 0 135 54 135 146s-58 149 -135 149c-78 0 -136 -57 -136 -149s58 -146 136 -146z" />
    <glyph glyph-name="e" unicode="e" horiz-adv-x="594" 
d="M557 256l-1 -32h-383c7 -81 62 -125 133 -125c53 0 94 23 113 69l128 -17c-33 -103 -125 -161 -240 -161c-165 0 -271 99 -271 262s109 262 267 262c145 0 254 -83 254 -258zM303 412c-69 0 -114 -35 -127 -103h244c-7 65 -54 103 -117 103z" />
    <glyph glyph-name="f" unicode="f" horiz-adv-x="390" 
d="M370 640h-27c-34 0 -84 -9 -84 -86v-50h111v-106h-111v-398h-139v398h-101v106h101v50c0 163 91 196 223 196h27v-110z" />
    <glyph glyph-name="g" unicode="g" horiz-adv-x="626" 
d="M427 439v65h138v-491c0 -185 -102 -263 -262 -263c-145 0 -224 63 -260 157l116 48c29 -65 71 -98 138 -98c92 0 130 57 130 145v83c-28 -42 -88 -72 -158 -72c-127 0 -231 99 -231 252c0 152 104 249 233 249c72 0 128 -30 156 -75zM303 124c76 0 132 59 132 141
c0 81 -55 140 -132 140s-132 -59 -132 -140c0 -82 56 -141 132 -141z" />
    <glyph glyph-name="h" unicode="h" horiz-adv-x="608" 
d="M368 514c118 0 184 -65 184 -192v-322h-139v301c0 74 -40 103 -98 103c-56 0 -115 -30 -115 -130v-274h-139v750h139v-309c37 45 94 73 168 73z" />
    <glyph glyph-name="i" unicode="i" horiz-adv-x="259" 
d="M131 582c-45 0 -81 35 -81 80c0 44 36 79 81 79c43 0 79 -35 79 -79c0 -45 -36 -80 -79 -80zM199 0h-139v504h139v-504z" />
    <glyph glyph-name="j" unicode="j" horiz-adv-x="257" 
d="M127 582c-45 0 -81 35 -81 80c0 44 36 79 81 79c43 0 79 -35 79 -79c0 -45 -36 -80 -79 -80zM-54 -243v107c92 0 111 41 111 145v495h138v-495c0 -170 -69 -252 -249 -252z" />
    <glyph glyph-name="k" unicode="k" horiz-adv-x="582" 
d="M553 504l-210 -236l225 -268h-167l-173 212h-28v-212h-139v750h139v-443h26l171 197h156z" />
    <glyph glyph-name="l" unicode="l" horiz-adv-x="261" 
d="M200 0h-139v750h139v-750z" />
    <glyph glyph-name="m" unicode="m" horiz-adv-x="902" 
d="M671 514c109 0 174 -56 174 -149v-365h-138v318c0 58 -37 86 -85 86c-53 0 -99 -31 -99 -127v-277h-139v318c0 57 -37 86 -85 86c-53 0 -99 -32 -99 -127v-277h-139v504h139v-59c34 44 85 69 148 69c82 0 139 -31 163 -86c33 55 89 86 160 86z" />
    <glyph glyph-name="n" unicode="n" horiz-adv-x="608" 
d="M360 514c127 0 191 -65 191 -177v-337h-138v308c0 67 -42 96 -97 96c-58 0 -108 -29 -116 -110v-294h-139v504h139v-57c36 42 92 67 160 67z" />
    <glyph glyph-name="o" unicode="o" horiz-adv-x="628" 
d="M314 -10c-162 1 -276 100 -276 263c0 161 114 260 276 261c163 -1 277 -100 277 -261c0 -163 -114 -262 -277 -263zM314 100c83 0 138 62 138 153c0 89 -55 151 -138 151s-138 -62 -138 -151c0 -91 55 -153 138 -153z" />
    <glyph glyph-name="p" unicode="p" horiz-adv-x="642" 
d="M358 514c135 0 245 -97 245 -261s-110 -263 -245 -263c-68 0 -127 25 -158 71v-304h-139v747h139v-59c31 45 90 69 158 69zM329 105c77 0 135 57 135 148c0 92 -58 147 -135 147c-78 0 -135 -55 -135 -147c0 -91 57 -148 135 -148z" />
    <glyph glyph-name="q" unicode="q" horiz-adv-x="642" 
d="M443 444v60h138v-747h-138v305c-30 -46 -90 -72 -159 -72c-135 0 -245 99 -245 263s110 261 245 261c69 0 129 -24 159 -70zM314 105c77 0 135 57 135 148c0 92 -58 147 -135 147c-78 0 -136 -55 -136 -147c0 -91 58 -148 136 -148z" />
    <glyph glyph-name="r" unicode="r" horiz-adv-x="392" 
d="M200 504v-72c31 49 92 82 171 82v-129c-119 0 -171 -38 -171 -154v-231h-139v504h139z" />
    <glyph glyph-name="s" unicode="s" horiz-adv-x="513" 
d="M268 -10c-118 0 -213 47 -231 142l115 32c16 -54 59 -74 111 -74c42 0 76 16 76 51c0 43 -53 56 -111 67c-107 20 -179 53 -179 149c0 99 81 157 203 157c97 0 186 -38 210 -130l-121 -27c-16 41 -48 58 -94 58c-43 0 -72 -16 -72 -45c0 -33 50 -45 109 -58
c117 -25 188 -55 188 -158c0 -115 -97 -164 -204 -164z" />
    <glyph glyph-name="t" unicode="t" horiz-adv-x="403" 
d="M366 0h-93c-99 0 -155 58 -155 159v239h-99v106h39c46 0 77 18 77 90v72h122v-162h109v-106h-109v-219c0 -48 25 -69 64 -69h45v-110z" />
    <glyph glyph-name="u" unicode="u" horiz-adv-x="609" 
d="M408 230v274h139v-504h-139v58c-36 -43 -92 -68 -160 -68c-127 0 -192 66 -192 177v337h138v-308c0 -67 42 -95 97 -95c62 0 116 33 117 129z" />
    <glyph glyph-name="v" unicode="v" horiz-adv-x="582" 
d="M291 164l126 340h151l-215 -504h-124l-215 504h150z" />
    <glyph glyph-name="w" unicode="w" horiz-adv-x="890" 
d="M620 166l107 338h147l-177 -504h-142l-110 332l-109 -332h-143l-177 504h147l107 -336l119 336h112z" />
    <glyph glyph-name="x" unicode="x" horiz-adv-x="624" 
d="M190 0h-175l213 253l-213 251h174l123 -161l123 161h173l-214 -252l214 -252h-173l-123 159z" />
    <glyph glyph-name="y" unicode="y" horiz-adv-x="582" 
d="M291 165l126 339h151l-317 -747h-151l119 268l-205 479h150z" />
    <glyph glyph-name="z" unicode="z" horiz-adv-x="490" 
d="M44 504h420l-233 -398h223v-106h-430l232 398h-212v106z" />
    <glyph glyph-name="braceleft" unicode="{" horiz-adv-x="346" 
d="M319 -250h-62c-100 0 -158 61 -158 139v239c0 94 -14 108 -73 123v88c59 16 73 29 73 124v238c0 78 58 139 158 139h62v-99h-36c-29 0 -53 -18 -53 -56v-219c0 -85 -15 -144 -87 -171c72 -27 87 -86 87 -171v-219c0 -38 24 -56 53 -56h36v-99z" />
    <glyph glyph-name="bar" unicode="|" horiz-adv-x="343" 
d="M241 -150h-139v900h139v-900z" />
    <glyph glyph-name="braceright" unicode="}" horiz-adv-x="346" 
d="M89 -250h-62v99h36c30 0 54 18 54 56v219c0 85 14 144 86 171c-71 27 -86 86 -86 171v219c0 38 -24 56 -54 56h-36v99h62c100 0 158 -61 158 -139v-238c0 -95 14 -108 73 -124v-88c-59 -15 -73 -29 -73 -123v-239c0 -78 -58 -139 -158 -139z" />
    <glyph glyph-name="asciitilde" unicode="~" horiz-adv-x="623" 
d="M414 151c-77 0 -119 54 -143 77c-19 20 -34 29 -50 29c-47 0 -68 -48 -69 -99h-97c0 116 58 196 169 196c60 0 94 -26 128 -72c13 -18 28 -37 54 -37c38 0 70 37 67 98h95c0 -109 -56 -192 -154 -192z" />
    <glyph glyph-name="exclamdown" unicode="&#xa1;" horiz-adv-x="272" 
d="M135 513c45 0 81 -36 81 -80s-36 -80 -81 -80c-43 0 -79 36 -79 80s36 80 79 80zM65 -205l15 480h110l15 -480h-140z" />
    <glyph glyph-name="cent" unicode="&#xa2;" horiz-adv-x="594" 
d="M308 203c63 0 107 30 122 91l128 -12c-21 -107 -102 -173 -209 -186v-96h-82v97c-137 17 -229 118 -229 260c0 141 92 241 229 258v92h82v-91c109 -12 187 -77 209 -185l-128 -12c-15 61 -59 91 -122 91c-80 0 -132 -63 -132 -153c0 -91 52 -154 132 -154z" />
    <glyph glyph-name="sterling" unicode="&#xa3;" horiz-adv-x="653" 
d="M584 502l-116 -9c2 9 2 17 2 24c0 60 -36 89 -95 89c-68 0 -109 -41 -109 -132v-83h144v-99h-144v-174h308v-118h-507v82l32 6c28 7 41 26 41 57v147h-73v99h73v83c0 147 96 245 238 245c106 0 208 -53 208 -187c0 -11 -1 -21 -2 -30z" />
    <glyph glyph-name="currency" unicode="&#xa4;" horiz-adv-x="676" 
d="M211 156l-68 -68l-73 77l67 66c-25 38 -37 81 -37 125c0 45 12 88 37 126l-66 66l73 77l68 -68c38 25 82 37 127 37c43 0 87 -12 124 -37l68 68l74 -75l-66 -67c24 -38 36 -82 36 -126s-12 -88 -36 -126l66 -66l-74 -77l-68 68c-37 -24 -82 -36 -125 -36
c-45 0 -88 12 -127 36zM338 224c76 0 132 63 132 134c0 73 -59 131 -132 131c-74 0 -133 -61 -133 -134c0 -76 62 -131 133 -131z" />
    <glyph glyph-name="yen" unicode="&#xa5;" horiz-adv-x="622" 
d="M462 707h158l-188 -295h119v-104h-167v-111h167v-104h-167v-93h-145v93h-168v104h168v111h-168v104h119l-189 295h159l151 -245z" />
    <glyph glyph-name="brokenbar" unicode="&#xa6;" horiz-adv-x="343" 
d="M241 390h-139v360h139v-360zM241 -150h-139v360h139v-360z" />
    <glyph glyph-name="section" unicode="&#xa7;" horiz-adv-x="624" 
d="M327 -180c-117 0 -225 47 -252 168l111 29c17 -71 61 -102 134 -102c68 0 117 31 117 91c0 61 -71 78 -152 100c-100 28 -216 63 -216 192c0 50 15 90 42 120c-26 25 -42 59 -42 106c0 118 94 188 228 188c117 0 225 -46 252 -168l-112 -28c-16 71 -61 101 -134 101
c-67 0 -116 -31 -116 -90c0 -61 71 -78 152 -100c100 -28 216 -63 216 -192c0 -50 -15 -90 -42 -120c26 -25 42 -59 42 -106c0 -118 -94 -189 -228 -189zM414 170c14 15 21 35 21 59c0 69 -77 89 -163 113c-22 5 -45 11 -62 21c-14 -15 -21 -35 -21 -59
c0 -69 77 -89 163 -113c22 -5 44 -11 62 -21z" />
    <glyph glyph-name="dieresis" unicode="&#xa8;" horiz-adv-x="502" 
d="M149 582c-45 0 -81 35 -81 80c0 44 36 79 81 79c43 0 79 -35 79 -79c0 -45 -36 -80 -79 -80zM355 582c-44 0 -81 35 -81 80c0 44 37 79 81 79c43 0 80 -35 80 -79c0 -45 -37 -80 -80 -80z" />
    <glyph glyph-name="copyright" unicode="&#xa9;" horiz-adv-x="848" 
d="M424 -10c-200 0 -364 164 -364 364s164 363 364 363s364 -163 364 -363s-164 -364 -364 -364zM424 63c162 0 291 129 291 291s-129 291 -291 291s-291 -129 -291 -291s129 -291 291 -291zM424 166c-105 0 -188 83 -188 188c0 104 83 187 188 187c62 0 116 -29 151 -75
l-59 -43c-20 28 -54 46 -92 46c-65 0 -115 -51 -115 -115c0 -65 50 -115 115 -115c38 0 72 18 92 45l59 -42c-35 -46 -89 -76 -151 -76z" />
    <glyph glyph-name="ordfeminine" unicode="&#xaa;" horiz-adv-x="441" 
d="M292 665v42h78v-300h-78v42c-24 -30 -59 -48 -102 -48c-82 0 -148 69 -148 156s66 156 148 156c43 0 78 -18 102 -48zM205 470c48 0 87 39 87 87c0 49 -39 87 -87 87c-47 0 -86 -38 -86 -87c0 -48 39 -87 86 -87z" />
    <glyph glyph-name="guillemotleft" unicode="&#xab;" horiz-adv-x="556" 
d="M292 69h-112l-152 184l152 184h112l-152 -184zM528 69h-113l-152 184l152 184h113l-152 -184z" />
    <glyph glyph-name="logicalnot" unicode="&#xac;" horiz-adv-x="760" 
d="M706 76h-112v240h-539v112h651v-352z" />
    <glyph glyph-name="uni00AD" unicode="&#xad;" horiz-adv-x="395" 
d="M372 201h-350v104h350v-104z" />
    <glyph glyph-name="registered" unicode="&#xae;" horiz-adv-x="432" 
d="M216 308c-113 0 -205 93 -205 205c0 113 92 204 205 204c112 0 205 -91 205 -204c0 -112 -93 -205 -205 -205zM216 352c89 0 161 71 161 161s-71 162 -161 162s-162 -72 -162 -162s72 -161 162 -161zM182 402h-46v221h103c37 0 65 -28 65 -67c0 -26 -13 -46 -34 -57
l41 -97h-51l-35 90h-43v-90zM182 583v-52h47c19 0 29 11 29 25c0 16 -10 27 -29 27h-47z" />
    <glyph glyph-name="macron" unicode="&#xaf;" horiz-adv-x="410" 
d="M343 588h-275v89h275v-89z" />
    <glyph glyph-name="degree" unicode="&#xb0;" horiz-adv-x="448" 
d="M224 417c-83 0 -150 66 -150 150s67 150 150 150s150 -66 150 -150s-67 -150 -150 -150zM224 494c41 0 72 32 72 73s-31 73 -72 73s-72 -32 -72 -73s31 -73 72 -73z" />
    <glyph glyph-name="plusminus" unicode="&#xb1;" horiz-adv-x="594" 
d="M349 175h-104v146h-190v104h190v145h104v-145h190v-104h-190v-146zM539 13h-484v104h484v-104z" />
    <glyph glyph-name="uni00B2" unicode="&#xb2;" horiz-adv-x="346" 
d="M258 595l-116 -119h180v-73h-296v66l169 173c26 25 37 44 37 68c0 33 -22 51 -58 51c-43 0 -67 -23 -67 -70v-21l-82 9v19c0 86 56 137 146 137c84 0 143 -46 143 -122c0 -44 -16 -77 -56 -118z" />
    <glyph glyph-name="uni00B3" unicode="&#xb3;" horiz-adv-x="352" 
d="M178 395c-101 0 -157 54 -157 152h85c1 -45 20 -78 71 -78c42 0 66 27 66 64c0 52 -43 62 -69 62h-14v64h12c34 0 57 22 57 55c0 29 -22 48 -53 48c-37 0 -60 -26 -60 -69v-4l-84 9c0 87 56 137 142 137c78 0 133 -51 133 -114c0 -47 -31 -78 -56 -88
c38 -10 77 -41 77 -105c0 -79 -59 -133 -150 -133z" />
    <glyph glyph-name="acute" unicode="&#xb4;" horiz-adv-x="371" 
d="M189 565h-121l88 142h147z" />
    <glyph glyph-name="uni00B5" unicode="&#xb5;" horiz-adv-x="608" 
d="M407 230v274h139v-504h-131l-6 61c-35 -45 -92 -71 -162 -71c-19 0 -37 1 -53 4v-237h-138v747h138v-308c0 -67 41 -95 96 -95c62 0 117 33 117 129z" />
    <glyph glyph-name="paragraph" unicode="&#xb6;" horiz-adv-x="587" 
d="M317 -150h-71v522h-19c-110 0 -178 59 -178 168s68 167 178 167h90v-857zM485 -150h-72v857h72v-857z" />
    <glyph glyph-name="periodcentered" unicode="&#xb7;" horiz-adv-x="342" 
d="M171 272c-44 0 -82 36 -82 82c0 44 38 82 82 82c42 0 82 -38 82 -82c0 -46 -40 -82 -82 -82z" />
    <glyph glyph-name="cedilla" unicode="&#xb8;" horiz-adv-x="367" 
d="M210 -54c55 0 90 -36 90 -88c0 -58 -46 -103 -112 -103c-69 0 -107 30 -120 69l76 21c7 -19 24 -27 41 -27c23 0 43 14 43 40s-19 39 -42 39c-14 0 -28 -5 -36 -16l-65 28l76 129l67 -25l-45 -70c10 2 18 3 27 3z" />
    <glyph glyph-name="uni00B9" unicode="&#xb9;" horiz-adv-x="246" 
d="M10 745l101 82h80v-424h-83v327l-98 -79v94z" />
    <glyph glyph-name="ordmasculine" unicode="&#xba;" horiz-adv-x="404" 
d="M202 405c-93 0 -166 69 -166 156s73 156 166 156s166 -69 166 -156s-73 -156 -166 -156zM202 473c48 0 88 40 88 88c0 49 -40 88 -88 88c-49 0 -88 -39 -88 -88c0 -48 39 -88 88 -88z" />
    <glyph glyph-name="guillemotright" unicode="&#xbb;" horiz-adv-x="557" 
d="M293 253l-152 -184h-112l152 184l-152 184h112zM528 253l-152 -184h-111l152 184l-152 184h111z" />
    <glyph glyph-name="onequarter" unicode="&#xbc;" horiz-adv-x="782" 
d="M191 283h-83v327l-98 -79v94l101 82h80v-424zM108 0l399 707h85l-399 -707h-85zM715 158h45v-74h-45v-84h-83v84h-199v74l155 266h127v-266zM632 370l-121 -212h121v212z" />
    <glyph glyph-name="onehalf" unicode="&#xbd;" horiz-adv-x="799" 
d="M191 283h-83v327l-98 -79v94l101 82h80v-424zM108 0l399 707h85l-399 -707h-85zM711 193l-115 -119h179v-74h-296v66l169 173c26 25 37 45 37 69c0 32 -22 51 -58 51c-43 0 -67 -24 -67 -71v-20l-82 8v19c0 86 56 138 146 138c84 0 143 -47 143 -122
c0 -45 -16 -78 -56 -118z" />
    <glyph glyph-name="threequarters" unicode="&#xbe;" horiz-adv-x="889" 
d="M328 408c0 -79 -59 -133 -150 -133c-101 0 -157 54 -157 152h85c1 -45 20 -78 71 -78c42 0 66 27 66 64c0 52 -43 62 -69 62h-14v64h12c34 0 57 22 57 55c0 29 -22 48 -53 48c-37 0 -60 -26 -60 -69v-4l-84 9c0 87 56 137 142 137c78 0 133 -51 133 -114
c0 -47 -31 -78 -56 -88c38 -10 77 -41 77 -105zM214 0l399 707h85l-399 -707h-85zM822 158h45v-74h-45v-84h-83v84h-199v74l155 266h127v-266zM739 370l-121 -212h121v212z" />
    <glyph glyph-name="questiondown" unicode="&#xbf;" horiz-adv-x="531" 
d="M262 514c45 0 80 -35 80 -79c0 -45 -36 -80 -80 -80c-43 0 -79 35 -79 80c0 44 35 79 79 79zM208 284h111v-42c0 -67 -36 -94 -80 -121c-39 -24 -80 -49 -80 -120c0 -67 44 -104 106 -104c67 0 109 44 109 105c0 10 -1 21 -4 31l123 -7c1 -9 2 -20 2 -32
c0 -123 -92 -211 -230 -211c-140 0 -236 80 -236 208c0 132 81 172 129 204c32 21 50 39 50 70v19z" />
    <glyph glyph-name="Agrave" unicode="&#xc0;" horiz-adv-x="724" 
d="M339 873l84 -136h-121l-109 136h146zM716 0h-153l-53 148h-295l-53 -148h-154l265 707h179zM363 560l-105 -293h209z" />
    <glyph glyph-name="Aacute" unicode="&#xc1;" horiz-adv-x="724" 
d="M386 873h147l-109 -136h-121zM716 0h-153l-53 148h-295l-53 -148h-154l265 707h179zM363 560l-105 -293h209z" />
    <glyph glyph-name="Acircumflex" unicode="&#xc2;" horiz-adv-x="724" 
d="M425 742l-62 68l-62 -68h-113l96 131h158l96 -131h-113zM716 0h-153l-53 148h-295l-53 -148h-154l265 707h179zM363 560l-105 -293h209z" />
    <glyph glyph-name="Atilde" unicode="&#xc3;" horiz-adv-x="724" 
d="M295 809c-23 0 -32 -29 -32 -65h-67c0 82 40 141 106 141c46 0 69 -25 87 -45c12 -15 23 -28 43 -28c22 0 30 28 30 66h68c0 -79 -38 -141 -107 -141c-47 0 -69 25 -85 45c-13 15 -24 27 -43 27zM716 0h-153l-53 148h-295l-53 -148h-154l265 707h179zM363 560l-105 -293
h209z" />
    <glyph glyph-name="Adieresis" unicode="&#xc4;" horiz-adv-x="724" 
d="M260 746c-45 0 -81 36 -81 81c0 44 36 79 81 79c43 0 79 -35 79 -79c0 -45 -36 -81 -79 -81zM466 746c-44 0 -81 36 -81 81c0 44 37 79 81 79c43 0 80 -35 80 -79c0 -45 -37 -81 -80 -81zM716 0h-153l-53 148h-295l-53 -148h-154l265 707h179zM363 560l-105 -293h209z
" />
    <glyph glyph-name="Aring" unicode="&#xc5;" horiz-adv-x="724" 
d="M362 735c-72 0 -131 51 -131 127s58 127 131 127c72 0 130 -51 130 -127s-58 -127 -130 -127zM362 925c-35 0 -62 -26 -62 -63s27 -63 62 -63s64 26 64 63s-28 63 -64 63zM716 0h-153l-53 148h-295l-53 -148h-154l265 707h179zM363 560l-105 -293h209z" />
    <glyph glyph-name="AE" unicode="&#xc6;" horiz-adv-x="905" 
d="M162 0h-154l265 707h587v-127h-275v-163h238v-127h-238v-163h275v-127h-420v148h-225zM370 580l-114 -313h184v313h-70z" />
    <glyph glyph-name="Ccedilla" unicode="&#xc7;" horiz-adv-x="763" 
d="M399 119c95 0 169 52 200 137l136 -48c-48 -128 -161 -211 -307 -221l-28 -44c10 2 18 3 27 3c55 0 90 -36 90 -88c0 -58 -46 -103 -112 -103c-69 0 -107 30 -120 69l76 21c7 -19 24 -27 41 -27c23 0 43 14 43 40s-19 39 -42 39c-14 0 -28 -5 -36 -16l-65 28l47 80
c-185 22 -312 165 -312 365c0 218 150 367 362 367c160 0 285 -86 336 -221l-136 -49c-31 85 -105 138 -200 138c-127 0 -218 -94 -218 -235s91 -235 218 -235z" />
    <glyph glyph-name="Egrave" unicode="&#xc8;" horiz-adv-x="525" 
d="M256 873l84 -136h-121l-109 136h146zM480 707v-126h-268v-165h239v-125h-239v-164h268v-127h-412v707h412z" />
    <glyph glyph-name="Eacute" unicode="&#xc9;" horiz-adv-x="525" 
d="M302 873h147l-109 -136h-121zM480 707v-126h-268v-165h239v-125h-239v-164h268v-127h-412v707h412z" />
    <glyph glyph-name="Ecircumflex" unicode="&#xca;" horiz-adv-x="525" 
d="M341 742l-62 68l-62 -68h-113l96 131h158l96 -131h-113zM480 707v-126h-268v-165h239v-125h-239v-164h268v-127h-412v707h412z" />
    <glyph glyph-name="Edieresis" unicode="&#xcb;" horiz-adv-x="525" 
d="M177 746c-45 0 -81 36 -81 81c0 44 36 79 81 79c43 0 79 -35 79 -79c0 -45 -36 -81 -79 -81zM383 746c-44 0 -81 36 -81 81c0 44 37 79 81 79c43 0 80 -35 80 -79c0 -45 -37 -81 -80 -81zM480 707v-126h-268v-165h239v-125h-239v-164h268v-127h-412v707h412z" />
    <glyph glyph-name="Igrave" unicode="&#xcc;" horiz-adv-x="280" 
d="M199 737h-121l-110 136h147zM212 0h-144v707h144v-707z" />
    <glyph glyph-name="Iacute" unicode="&#xcd;" horiz-adv-x="280" 
d="M200 737h-121l83 136h147zM212 0h-144v707h144v-707z" />
    <glyph glyph-name="Icircumflex" unicode="&#xce;" horiz-adv-x="280" 
d="M77 742h-114l97 131h158l96 -131h-113l-62 68zM212 0h-144v707h144v-707z" />
    <glyph glyph-name="Idieresis" unicode="&#xcf;" horiz-adv-x="280" 
d="M36 746c-45 0 -82 36 -82 81c0 44 37 79 82 79c43 0 79 -35 79 -79c0 -45 -36 -81 -79 -81zM242 746c-44 0 -81 36 -81 81c0 44 37 79 81 79c43 0 80 -35 80 -79c0 -45 -37 -81 -80 -81zM212 0h-144v707h144v-707z" />
    <glyph glyph-name="Eth" unicode="&#xd0;" horiz-adv-x="703" 
d="M540 641c82 -60 124 -159 124 -287s-42 -228 -124 -288c-59 -43 -139 -66 -259 -66h-214v312h-76v85h76v310h214c120 0 200 -23 259 -66zM439 168c54 38 80 102 80 186s-26 148 -80 185c-38 27 -90 42 -158 42h-69v-184h120v-85h-120v-185h69c68 0 120 14 158 41z" />
    <glyph glyph-name="Ntilde" unicode="&#xd1;" horiz-adv-x="769" 
d="M319 809c-23 0 -32 -29 -32 -65h-67c0 82 40 141 106 141c46 0 69 -25 87 -45c12 -15 23 -28 43 -28c22 0 30 28 30 66h68c0 -79 -38 -141 -107 -141c-47 0 -69 25 -85 45c-13 15 -24 27 -43 27zM557 203v504h145v-707h-174l-316 507v-507h-144v707h172z" />
    <glyph glyph-name="Ograve" unicode="&#xd2;" horiz-adv-x="798" 
d="M460 737h-121l-109 136h146zM399 -14c-212 0 -362 150 -362 368s150 367 362 367s362 -149 362 -367s-150 -368 -362 -368zM399 119c127 0 218 94 218 235s-91 235 -218 235s-218 -94 -218 -235s91 -235 218 -235z" />
    <glyph glyph-name="Oacute" unicode="&#xd3;" horiz-adv-x="798" 
d="M460 737h-121l83 136h147zM399 -14c-212 0 -362 150 -362 368s150 367 362 367s362 -149 362 -367s-150 -368 -362 -368zM399 119c127 0 218 94 218 235s-91 235 -218 235s-218 -94 -218 -235s91 -235 218 -235z" />
    <glyph glyph-name="Ocircumflex" unicode="&#xd4;" horiz-adv-x="798" 
d="M337 742h-113l96 131h158l96 -131h-113l-62 68zM399 -14c-212 0 -362 150 -362 368s150 367 362 367s362 -149 362 -367s-150 -368 -362 -368zM399 119c127 0 218 94 218 235s-91 235 -218 235s-218 -94 -218 -235s91 -235 218 -235z" />
    <glyph glyph-name="Otilde" unicode="&#xd5;" horiz-adv-x="798" 
d="M459 737c-47 0 -69 25 -85 45c-13 15 -24 27 -43 27c-23 0 -32 -29 -32 -65h-67c0 82 40 141 106 141c46 0 69 -25 87 -45c12 -15 23 -28 43 -28c22 0 30 28 30 66h68c0 -79 -38 -141 -107 -141zM399 -14c-212 0 -362 150 -362 368s150 367 362 367s362 -149 362 -367
s-150 -368 -362 -368zM399 119c127 0 218 94 218 235s-91 235 -218 235s-218 -94 -218 -235s91 -235 218 -235z" />
    <glyph glyph-name="Odieresis" unicode="&#xd6;" horiz-adv-x="798" 
d="M297 746c-45 0 -81 36 -81 81c0 44 36 79 81 79c43 0 79 -35 79 -79c0 -45 -36 -81 -79 -81zM503 746c-44 0 -81 36 -81 81c0 44 37 79 81 79c43 0 80 -35 80 -79c0 -45 -37 -81 -80 -81zM399 -14c-212 0 -362 150 -362 368s150 367 362 367s362 -149 362 -367
s-150 -368 -362 -368zM399 119c127 0 218 94 218 235s-91 235 -218 235s-218 -94 -218 -235s91 -235 218 -235z" />
    <glyph glyph-name="multiply" unicode="&#xd7;" horiz-adv-x="525" 
d="M263 179l-135 -135l-73 74l135 135l-135 134l73 74l135 -134l135 134l73 -74l-135 -134l135 -135l-73 -74z" />
    <glyph glyph-name="Oslash" unicode="&#xd8;" horiz-adv-x="798" 
d="M697 727l-60 -87c77 -65 124 -165 124 -286c0 -218 -150 -368 -362 -368c-70 0 -133 16 -186 46l-58 -83l-53 32l60 86c-78 65 -125 165 -125 287c0 218 150 367 362 367c70 0 133 -16 187 -46l58 84zM181 354c0 -71 23 -130 62 -171l264 379c-31 18 -68 27 -108 27
c-127 0 -218 -94 -218 -235zM399 119c127 0 218 94 218 235c0 70 -23 129 -61 170l-264 -379c31 -17 67 -26 107 -26z" />
    <glyph glyph-name="Ugrave" unicode="&#xd9;" horiz-adv-x="681" 
d="M400 737h-121l-109 136h146zM341 -14c-160 0 -281 84 -281 265v456h144v-437c0 -109 58 -153 137 -153c78 0 136 44 136 153v437h145v-456c0 -181 -122 -265 -281 -265z" />
    <glyph glyph-name="Uacute" unicode="&#xda;" horiz-adv-x="681" 
d="M401 737h-121l83 136h147zM341 -14c-160 0 -281 84 -281 265v456h144v-437c0 -109 58 -153 137 -153c78 0 136 44 136 153v437h145v-456c0 -181 -122 -265 -281 -265z" />
    <glyph glyph-name="Ucircumflex" unicode="&#xdb;" horiz-adv-x="681" 
d="M278 742h-113l96 131h158l96 -131h-113l-62 68zM341 -14c-160 0 -281 84 -281 265v456h144v-437c0 -109 58 -153 137 -153c78 0 136 44 136 153v437h145v-456c0 -181 -122 -265 -281 -265z" />
    <glyph glyph-name="Udieresis" unicode="&#xdc;" horiz-adv-x="681" 
d="M237 746c-45 0 -81 36 -81 81c0 44 36 79 81 79c43 0 79 -35 79 -79c0 -45 -36 -81 -79 -81zM443 746c-44 0 -81 36 -81 81c0 44 37 79 81 79c43 0 80 -35 80 -79c0 -45 -37 -81 -80 -81zM341 -14c-160 0 -281 84 -281 265v456h144v-437c0 -109 58 -153 137 -153
c78 0 136 44 136 153v437h145v-456c0 -181 -122 -265 -281 -265z" />
    <glyph glyph-name="Yacute" unicode="&#xdd;" horiz-adv-x="622" 
d="M334 873h147l-109 -136h-121zM462 707h158l-236 -371v-336h-145v334l-238 373h159l151 -247z" />
    <glyph glyph-name="Thorn" unicode="&#xde;" horiz-adv-x="602" 
d="M507 555c42 -34 67 -90 67 -166c0 -89 -34 -167 -105 -206c-54 -29 -122 -31 -168 -31h-89v-152h-145v707h145v-97h89c92 0 161 -18 206 -55zM391 294c25 16 38 45 38 87c0 41 -13 69 -36 86c-28 20 -73 22 -113 22h-68v-216h68c37 0 84 1 111 21z" />
    <glyph glyph-name="germandbls" unicode="&#xdf;" horiz-adv-x="706" 
d="M470 -10c-119 0 -215 46 -233 142l115 32c16 -57 56 -78 109 -78c44 0 82 16 82 55c0 48 -54 60 -108 71c-107 22 -169 51 -169 142c0 96 74 125 134 149c46 20 85 38 85 78c0 42 -40 69 -117 69c-154 0 -168 -109 -168 -219v-431h-139v453c0 227 125 307 307 307
c155 0 248 -79 248 -191c0 -100 -76 -125 -137 -145c-40 -15 -73 -27 -73 -57c0 -31 35 -39 87 -51c112 -25 183 -57 183 -160c0 -117 -97 -166 -206 -166z" />
    <glyph glyph-name="agrave" unicode="&#xe0;" horiz-adv-x="562" 
d="M260 707l88 -142h-121l-114 142h147zM504 329v-238c0 -30 0 -57 9 -78v-13h-137l-6 69c-34 -53 -103 -79 -169 -79c-81 0 -164 36 -164 137c0 112 100 147 190 166l92 21c26 6 46 13 46 37c0 46 -42 65 -88 65c-56 0 -93 -26 -104 -77l-133 20c22 107 112 155 239 155
c146 0 225 -65 225 -185zM242 86c66 0 131 53 131 157l-124 -32c-39 -8 -74 -26 -74 -69c0 -37 28 -56 67 -56z" />
    <glyph glyph-name="aacute" unicode="&#xe1;" horiz-adv-x="562" 
d="M312 707h147l-114 -142h-121zM504 329v-238c0 -30 0 -57 9 -78v-13h-137l-6 69c-34 -53 -103 -79 -169 -79c-81 0 -164 36 -164 137c0 112 100 147 190 166l92 21c26 6 46 13 46 37c0 46 -42 65 -88 65c-56 0 -93 -26 -104 -77l-133 20c22 107 112 155 239 155
c146 0 225 -65 225 -185zM242 86c66 0 131 53 131 157l-124 -32c-39 -8 -74 -26 -74 -69c0 -37 28 -56 67 -56z" />
    <glyph glyph-name="acircumflex" unicode="&#xe2;" horiz-adv-x="562" 
d="M346 565l-60 78l-61 -78h-113l96 142h156l96 -142h-114zM504 329v-238c0 -30 0 -57 9 -78v-13h-137l-6 69c-34 -53 -103 -79 -169 -79c-81 0 -164 36 -164 137c0 112 100 147 190 166l92 21c26 6 46 13 46 37c0 46 -42 65 -88 65c-56 0 -93 -26 -104 -77l-133 20
c22 107 112 155 239 155c146 0 225 -65 225 -185zM242 86c66 0 131 53 131 157l-124 -32c-39 -8 -74 -26 -74 -69c0 -37 28 -56 67 -56z" />
    <glyph glyph-name="atilde" unicode="&#xe3;" horiz-adv-x="562" 
d="M218 630c-23 0 -32 -30 -32 -65h-67c0 81 40 140 106 140c46 0 69 -24 87 -44c12 -16 23 -28 43 -28c22 0 30 28 30 65h68c0 -79 -38 -140 -107 -140c-47 0 -69 24 -85 44c-13 15 -24 28 -43 28zM504 329v-238c0 -30 0 -57 9 -78v-13h-137l-6 69
c-34 -53 -103 -79 -169 -79c-81 0 -164 36 -164 137c0 112 100 147 190 166l92 21c26 6 46 13 46 37c0 46 -42 65 -88 65c-56 0 -93 -26 -104 -77l-133 20c22 107 112 155 239 155c146 0 225 -65 225 -185zM242 86c66 0 131 53 131 157l-124 -32c-39 -8 -74 -26 -74 -69
c0 -37 28 -56 67 -56z" />
    <glyph glyph-name="adieresis" unicode="&#xe4;" horiz-adv-x="562" 
d="M183 582c-45 0 -81 35 -81 80c0 44 36 79 81 79c43 0 79 -35 79 -79c0 -45 -36 -80 -79 -80zM389 582c-44 0 -81 35 -81 80c0 44 37 79 81 79c43 0 80 -35 80 -79c0 -45 -37 -80 -80 -80zM504 329v-238c0 -30 0 -57 9 -78v-13h-137l-6 69c-34 -53 -103 -79 -169 -79
c-81 0 -164 36 -164 137c0 112 100 147 190 166l92 21c26 6 46 13 46 37c0 46 -42 65 -88 65c-56 0 -93 -26 -104 -77l-133 20c22 107 112 155 239 155c146 0 225 -65 225 -185zM242 86c66 0 131 53 131 157l-124 -32c-39 -8 -74 -26 -74 -69c0 -37 28 -56 67 -56z" />
    <glyph glyph-name="aring" unicode="&#xe5;" horiz-adv-x="562" 
d="M286 558c-76 0 -124 55 -124 121c0 65 48 120 124 120c75 0 122 -55 122 -120c0 -66 -48 -121 -122 -121zM286 733c-31 0 -54 -21 -54 -54c0 -31 24 -54 54 -54s54 23 54 54c0 33 -24 54 -54 54zM504 329v-238c0 -30 0 -57 9 -78v-13h-137l-6 69
c-34 -53 -103 -79 -169 -79c-81 0 -164 36 -164 137c0 112 100 147 190 166l92 21c26 6 46 13 46 37c0 46 -42 65 -88 65c-56 0 -93 -26 -104 -77l-133 20c22 107 112 155 239 155c146 0 225 -65 225 -185zM242 86c66 0 131 53 131 157l-124 -32c-39 -8 -74 -26 -74 -69
c0 -37 28 -56 67 -56z" />
    <glyph glyph-name="ae" unicode="&#xe6;" horiz-adv-x="914" 
d="M872 256l-2 -32h-383c7 -81 62 -125 134 -125c53 0 93 23 112 69l128 -17c-33 -103 -124 -161 -240 -161c-94 0 -169 32 -216 90c-51 -61 -124 -90 -201 -90c-91 0 -164 39 -164 136c0 109 94 143 195 164l80 16c34 8 46 21 46 41c0 53 -43 73 -91 73
c-57 0 -95 -24 -102 -89l-124 19c20 113 94 163 236 163c62 0 124 -11 163 -53c45 35 105 54 174 54c145 0 254 -83 255 -258zM618 412c-69 0 -115 -35 -128 -103h245c-8 65 -55 103 -117 103zM242 97c43 0 97 22 118 73c-5 19 -8 39 -9 60l-95 -22c-53 -11 -80 -30 -80 -62
c0 -31 26 -49 66 -49z" />
    <glyph glyph-name="ccedilla" unicode="&#xe7;" horiz-adv-x="594" 
d="M308 99c63 0 107 30 122 91l128 -12c-22 -112 -109 -179 -223 -187l-31 -48c10 2 18 3 27 3c55 0 90 -36 90 -88c0 -58 -46 -103 -112 -103c-69 0 -107 30 -120 69l76 21c7 -19 24 -27 41 -27c23 0 43 14 43 40s-19 39 -42 39c-14 0 -28 -5 -36 -16l-65 28l50 85
c-131 21 -218 121 -218 259c0 155 111 261 272 261c129 0 224 -67 248 -187l-128 -12c-15 61 -59 91 -122 91c-80 0 -132 -63 -132 -153c0 -91 52 -154 132 -154z" />
    <glyph glyph-name="egrave" unicode="&#xe8;" horiz-adv-x="594" 
d="M281 708l88 -142h-121l-114 142h147zM557 256l-1 -32h-383c7 -81 62 -125 133 -125c53 0 94 23 113 69l128 -17c-33 -103 -125 -161 -240 -161c-165 0 -271 99 -271 262s109 262 267 262c145 0 254 -83 254 -258zM303 412c-69 0 -114 -35 -127 -103h244
c-7 65 -54 103 -117 103z" />
    <glyph glyph-name="eacute" unicode="&#xe9;" horiz-adv-x="594" 
d="M332 708h147l-114 -142h-121zM557 256l-1 -32h-383c7 -81 62 -125 133 -125c53 0 94 23 113 69l128 -17c-33 -103 -125 -161 -240 -161c-165 0 -271 99 -271 262s109 262 267 262c145 0 254 -83 254 -258zM303 412c-69 0 -114 -35 -127 -103h244c-7 65 -54 103 -117 103z
" />
    <glyph glyph-name="ecircumflex" unicode="&#xea;" horiz-adv-x="594" 
d="M367 566l-60 78l-61 -78h-113l96 142h156l96 -142h-114zM557 256l-1 -32h-383c7 -81 62 -125 133 -125c53 0 94 23 113 69l128 -17c-33 -103 -125 -161 -240 -161c-165 0 -271 99 -271 262s109 262 267 262c145 0 254 -83 254 -258zM303 412c-69 0 -114 -35 -127 -103
h244c-7 65 -54 103 -117 103z" />
    <glyph glyph-name="edieresis" unicode="&#xeb;" horiz-adv-x="594" 
d="M204 583c-45 0 -81 35 -81 80c0 44 36 79 81 79c43 0 79 -35 79 -79c0 -45 -36 -80 -79 -80zM410 583c-44 0 -81 35 -81 80c0 44 37 79 81 79c43 0 80 -35 80 -79c0 -45 -37 -80 -80 -80zM557 256l-1 -32h-383c7 -81 62 -125 133 -125c53 0 94 23 113 69l128 -17
c-33 -103 -125 -161 -240 -161c-165 0 -271 99 -271 262s109 262 267 262c145 0 254 -83 254 -258zM303 412c-69 0 -114 -35 -127 -103h244c-7 65 -54 103 -117 103z" />
    <glyph glyph-name="igrave" unicode="&#xec;" horiz-adv-x="259" 
d="M192 565h-121l-115 142h148zM199 0h-139v504h139v-504z" />
    <glyph glyph-name="iacute" unicode="&#xed;" horiz-adv-x="259" 
d="M188 565h-121l88 142h147zM199 0h-139v504h139v-504z" />
    <glyph glyph-name="icircumflex" unicode="&#xee;" horiz-adv-x="259" 
d="M69 565h-114l97 142h156l96 -142h-114l-60 78zM199 0h-139v504h139v-504z" />
    <glyph glyph-name="idieresis" unicode="&#xef;" horiz-adv-x="259" 
d="M27 582c-45 0 -82 35 -82 80c0 44 37 79 82 79c43 0 79 -35 79 -79c0 -45 -36 -80 -79 -80zM233 582c-44 0 -81 35 -81 80c0 44 37 79 81 79c43 0 80 -35 80 -79c0 -45 -37 -80 -80 -80zM199 0h-139v504h139v-504z" />
    <glyph glyph-name="eth" unicode="&#xf0;" horiz-adv-x="611" 
d="M360 638l164 -215c35 -45 57 -101 57 -170c0 -163 -114 -262 -276 -263c-163 1 -277 100 -277 263c0 160 113 259 274 261l-71 91l-125 -32l-11 39l109 28l-86 110h156l59 -77l100 25l10 -39zM305 99c83 0 138 63 138 154c0 88 -54 152 -138 152s-139 -63 -139 -152
c0 -91 55 -154 139 -154z" />
    <glyph glyph-name="ntilde" unicode="&#xf1;" horiz-adv-x="608" 
d="M232 630c-23 0 -32 -30 -32 -65h-67c0 81 40 140 106 140c46 0 69 -24 87 -44c12 -16 23 -28 43 -28c22 0 30 28 30 65h68c0 -79 -38 -140 -107 -140c-47 0 -69 24 -85 44c-13 15 -24 28 -43 28zM360 514c127 0 191 -65 191 -177v-337h-138v308c0 67 -42 96 -97 96
c-58 0 -108 -29 -116 -110v-294h-139v504h139v-57c36 42 92 67 160 67z" />
    <glyph glyph-name="ograve" unicode="&#xf2;" horiz-adv-x="628" 
d="M378 565h-121l-114 142h147zM314 -10c-162 1 -276 100 -276 263c0 161 114 260 276 261c163 -1 277 -100 277 -261c0 -163 -114 -262 -277 -263zM314 100c83 0 138 62 138 153c0 89 -55 151 -138 151s-138 -62 -138 -151c0 -91 55 -153 138 -153z" />
    <glyph glyph-name="oacute" unicode="&#xf3;" horiz-adv-x="628" 
d="M375 565h-121l88 142h147zM314 -10c-162 1 -276 100 -276 263c0 161 114 260 276 261c163 -1 277 -100 277 -261c0 -163 -114 -262 -277 -263zM314 100c83 0 138 62 138 153c0 89 -55 151 -138 151s-138 -62 -138 -151c0 -91 55 -153 138 -153z" />
    <glyph glyph-name="ocircumflex" unicode="&#xf4;" horiz-adv-x="628" 
d="M255 565h-113l96 142h156l96 -142h-114l-60 78zM314 -10c-162 1 -276 100 -276 263c0 161 114 260 276 261c163 -1 277 -100 277 -261c0 -163 -114 -262 -277 -263zM314 100c83 0 138 62 138 153c0 89 -55 151 -138 151s-138 -62 -138 -151c0 -91 55 -153 138 -153z" />
    <glyph glyph-name="otilde" unicode="&#xf5;" horiz-adv-x="628" 
d="M376 558c-47 0 -69 24 -85 44c-13 15 -24 28 -43 28c-23 0 -32 -30 -32 -65h-67c0 81 40 140 106 140c46 0 69 -24 87 -44c12 -16 23 -28 43 -28c22 0 30 28 30 65h68c0 -79 -38 -140 -107 -140zM314 -10c-162 1 -276 100 -276 263c0 161 114 260 276 261
c163 -1 277 -100 277 -261c0 -163 -114 -262 -277 -263zM314 100c83 0 138 62 138 153c0 89 -55 151 -138 151s-138 -62 -138 -151c0 -91 55 -153 138 -153z" />
    <glyph glyph-name="odieresis" unicode="&#xf6;" horiz-adv-x="628" 
d="M213 582c-45 0 -81 35 -81 80c0 44 36 79 81 79c43 0 79 -35 79 -79c0 -45 -36 -80 -79 -80zM419 582c-44 0 -81 35 -81 80c0 44 37 79 81 79c43 0 80 -35 80 -79c0 -45 -37 -80 -80 -80zM314 -10c-162 1 -276 100 -276 263c0 161 114 260 276 261
c163 -1 277 -100 277 -261c0 -163 -114 -262 -277 -263zM314 100c83 0 138 62 138 153c0 89 -55 151 -138 151s-138 -62 -138 -151c0 -91 55 -153 138 -153z" />
    <glyph glyph-name="divide" unicode="&#xf7;" horiz-adv-x="609" 
d="M301 370c-38 0 -71 31 -71 71c0 38 33 71 71 71s71 -33 71 -71c0 -40 -33 -71 -71 -71zM555 201h-500v104h500v-104zM301 -7c-38 0 -71 31 -71 71c0 38 33 71 71 71s71 -33 71 -71c0 -40 -33 -71 -71 -71z" />
    <glyph glyph-name="oslash" unicode="&#xf8;" horiz-adv-x="628" 
d="M539 518l-42 -60c59 -45 94 -116 94 -205c0 -163 -114 -262 -277 -263c-47 0 -89 9 -126 24l-43 -61l-53 33l41 60c-59 45 -95 116 -95 207c0 161 114 260 276 261c47 0 91 -9 128 -25l43 62zM176 253c0 -41 11 -76 31 -102l167 240c-18 9 -38 13 -60 13
c-83 0 -138 -62 -138 -151zM314 100c83 0 138 62 138 153c0 39 -11 73 -29 98l-167 -239c17 -8 37 -12 58 -12z" />
    <glyph glyph-name="ugrave" unicode="&#xf9;" horiz-adv-x="609" 
d="M276 707l88 -142h-121l-114 142h147zM408 230v274h139v-504h-139v58c-36 -43 -92 -68 -160 -68c-127 0 -192 66 -192 177v337h138v-308c0 -67 42 -95 97 -95c62 0 116 33 117 129z" />
    <glyph glyph-name="uacute" unicode="&#xfa;" horiz-adv-x="609" 
d="M327 707h147l-114 -142h-121zM408 230v274h139v-504h-139v58c-36 -43 -92 -68 -160 -68c-127 0 -192 66 -192 177v337h138v-308c0 -67 42 -95 97 -95c62 0 116 33 117 129z" />
    <glyph glyph-name="ucircumflex" unicode="&#xfb;" horiz-adv-x="609" 
d="M362 565l-60 78l-61 -78h-113l96 142h156l96 -142h-114zM408 230v274h139v-504h-139v58c-36 -43 -92 -68 -160 -68c-127 0 -192 66 -192 177v337h138v-308c0 -67 42 -95 97 -95c62 0 116 33 117 129z" />
    <glyph glyph-name="udieresis" unicode="&#xfc;" horiz-adv-x="609" 
d="M199 582c-45 0 -81 35 -81 80c0 44 36 79 81 79c43 0 79 -35 79 -79c0 -45 -36 -80 -79 -80zM405 582c-44 0 -81 35 -81 80c0 44 37 79 81 79c43 0 80 -35 80 -79c0 -45 -37 -80 -80 -80zM408 230v274h139v-504h-139v58c-36 -43 -92 -68 -160 -68
c-127 0 -192 66 -192 177v337h138v-308c0 -67 42 -95 97 -95c62 0 116 33 117 129z" />
    <glyph glyph-name="yacute" unicode="&#xfd;" horiz-adv-x="582" 
d="M321 707h147l-114 -142h-121zM291 165l126 339h151l-317 -747h-151l119 268l-205 479h150z" />
    <glyph glyph-name="thorn" unicode="&#xfe;" horiz-adv-x="642" 
d="M358 514c135 0 245 -99 245 -263s-110 -263 -245 -263c-68 0 -127 25 -158 71v-302h-139v993h139v-307c31 46 90 71 158 71zM329 102c78 0 135 57 135 149s-57 149 -135 149c-77 0 -135 -57 -135 -149s58 -149 135 -149z" />
    <glyph glyph-name="ydieresis" unicode="&#xff;" horiz-adv-x="582" 
d="M193 582c-45 0 -81 35 -81 80c0 44 36 79 81 79c43 0 79 -35 79 -79c0 -45 -36 -80 -79 -80zM399 582c-44 0 -81 35 -81 80c0 44 37 79 81 79c43 0 80 -35 80 -79c0 -45 -37 -80 -80 -80zM291 165l126 339h151l-317 -747h-151l119 268l-205 479h150z" />
    <glyph glyph-name="Amacron" unicode="&#x100;" horiz-adv-x="724" 
d="M201 864h325v-89h-325v89zM716 0h-153l-53 148h-295l-53 -148h-154l265 707h179zM363 560l-105 -293h209z" />
    <glyph glyph-name="amacron" unicode="&#x101;" horiz-adv-x="562" 
d="M149 677h275v-89h-275v89zM504 329v-238c0 -30 0 -57 9 -78v-13h-137l-6 69c-34 -53 -103 -79 -169 -79c-81 0 -164 36 -164 137c0 112 100 147 190 166l92 21c26 6 46 13 46 37c0 46 -42 65 -88 65c-56 0 -93 -26 -104 -77l-133 20c22 107 112 155 239 155
c146 0 225 -65 225 -185zM242 86c66 0 131 53 131 157l-124 -32c-39 -8 -74 -26 -74 -69c0 -37 28 -56 67 -56z" />
    <glyph glyph-name="Abreve" unicode="&#x102;" horiz-adv-x="724" 
d="M361 740c-104 0 -174 28 -177 133h87c4 -46 32 -64 90 -64c60 0 88 18 92 64h87c-4 -105 -74 -133 -179 -133zM716 0h-153l-53 148h-295l-53 -148h-154l265 707h179zM363 560l-105 -293h209z" />
    <glyph glyph-name="abreve" unicode="&#x103;" horiz-adv-x="562" 
d="M285 555c-107 0 -178 42 -178 152h98c0 -50 27 -80 80 -80c55 0 81 30 81 80h99c0 -110 -71 -152 -180 -152zM504 329v-238c0 -30 0 -57 9 -78v-13h-137l-6 69c-34 -53 -103 -79 -169 -79c-81 0 -164 36 -164 137c0 112 100 147 190 166l92 21c26 6 46 13 46 37
c0 46 -42 65 -88 65c-56 0 -93 -26 -104 -77l-133 20c22 107 112 155 239 155c146 0 225 -65 225 -185zM242 86c66 0 131 53 131 157l-124 -32c-39 -8 -74 -26 -74 -69c0 -37 28 -56 67 -56z" />
    <glyph glyph-name="Aogonek" unicode="&#x104;" horiz-adv-x="724" 
d="M634 -105c0 -17 16 -27 39 -27c15 0 31 5 43 15v-86c-21 -8 -48 -13 -74 -13c-53 0 -98 20 -98 68s49 100 110 148h-91l-53 148h-295l-53 -148h-154l265 707h179l264 -707c-48 -34 -82 -75 -82 -105zM363 560l-105 -293h209z" />
    <glyph glyph-name="aogonek" unicode="&#x105;" horiz-adv-x="562" 
d="M434 -105c0 -17 16 -27 39 -27c15 0 31 5 43 15v-86c-21 -8 -48 -13 -74 -13c-53 0 -98 20 -98 68s49 100 110 148h-78l-6 69c-34 -53 -103 -79 -169 -79c-81 0 -164 36 -164 137c0 112 100 147 190 166l92 21c26 6 46 13 46 37c0 46 -42 65 -88 65
c-56 0 -93 -26 -104 -77l-133 20c22 107 112 155 239 155c146 0 225 -65 225 -185v-238c0 -30 0 -57 9 -78v-12l3 -1c-48 -34 -82 -75 -82 -105zM242 86c66 0 131 53 131 157l-124 -32c-39 -8 -74 -26 -74 -69c0 -37 28 -56 67 -56z" />
    <glyph glyph-name="Cacute" unicode="&#x106;" horiz-adv-x="763" 
d="M460 737h-121l83 136h147zM399 -14c-212 0 -362 150 -362 368s150 367 362 367c160 0 285 -86 336 -221l-136 -49c-31 85 -105 138 -200 138c-127 0 -218 -94 -218 -235s91 -235 218 -235c95 0 169 52 200 137l136 -48c-51 -136 -176 -222 -336 -222z" />
    <glyph glyph-name="cacute" unicode="&#x107;" horiz-adv-x="594" 
d="M362 565h-121l88 142h147zM310 -10c-161 0 -272 107 -272 263c0 155 111 261 272 261c129 0 224 -67 248 -187l-128 -12c-15 61 -59 91 -122 91c-80 0 -132 -63 -132 -153c0 -91 52 -154 132 -154c63 0 107 30 122 91l128 -12c-24 -120 -122 -188 -248 -188z" />
    <glyph glyph-name="Cdotaccent" unicode="&#x10a;" horiz-adv-x="763" 
d="M400 746c-45 0 -81 36 -81 81c0 44 36 79 81 79c43 0 79 -35 79 -79c0 -45 -36 -81 -79 -81zM399 -14c-212 0 -362 150 -362 368s150 367 362 367c160 0 285 -86 336 -221l-136 -49c-31 85 -105 138 -200 138c-127 0 -218 -94 -218 -235s91 -235 218 -235
c95 0 169 52 200 137l136 -48c-51 -136 -176 -222 -336 -222z" />
    <glyph glyph-name="cdotaccent" unicode="&#x10b;" horiz-adv-x="594" 
d="M304 582c-45 0 -81 35 -81 80c0 44 36 79 81 79c43 0 79 -35 79 -79c0 -45 -36 -80 -79 -80zM310 -10c-161 0 -272 107 -272 263c0 155 111 261 272 261c129 0 224 -67 248 -187l-128 -12c-15 61 -59 91 -122 91c-80 0 -132 -63 -132 -153c0 -91 52 -154 132 -154
c63 0 107 30 122 91l128 -12c-24 -120 -122 -188 -248 -188z" />
    <glyph glyph-name="Ccaron" unicode="&#x10c;" horiz-adv-x="763" 
d="M478 742h-158l-96 131h113l62 -68l62 68h113zM399 -14c-212 0 -362 150 -362 368s150 367 362 367c160 0 285 -86 336 -221l-136 -49c-31 85 -105 138 -200 138c-127 0 -218 -94 -218 -235s91 -235 218 -235c95 0 169 52 200 137l136 -48c-51 -136 -176 -222 -336 -222z
" />
    <glyph glyph-name="ccaron" unicode="&#x10d;" horiz-adv-x="594" 
d="M381 565h-156l-96 142h113l61 -78l60 78h114zM310 -10c-161 0 -272 107 -272 263c0 155 111 261 272 261c129 0 224 -67 248 -187l-128 -12c-15 61 -59 91 -122 91c-80 0 -132 -63 -132 -153c0 -91 52 -154 132 -154c63 0 107 30 122 91l128 -12
c-24 -120 -122 -188 -248 -188z" />
    <glyph glyph-name="Dcaron" unicode="&#x10e;" horiz-adv-x="703" 
d="M368 742h-158l-96 131h113l62 -68l62 68h113zM281 0h-214v707h214c120 0 200 -23 259 -66c82 -60 124 -159 124 -287s-42 -228 -124 -288c-59 -43 -139 -66 -259 -66zM212 581v-454h69c68 0 120 14 158 41c54 38 80 102 80 186s-26 148 -80 185c-38 27 -90 42 -158 42
h-69z" />
    <glyph glyph-name="dcaron" unicode="&#x10f;" horiz-adv-x="798" 
d="M442 442v308h138v-750h-131l-3 67c-29 -50 -91 -77 -163 -77c-135 0 -245 97 -245 261s110 263 245 263c69 0 129 -26 159 -72zM647 387l61 320h142l-103 -320h-100zM313 105c77 0 135 54 135 146s-58 149 -135 149c-78 0 -136 -57 -136 -149s58 -146 136 -146z" />
    <glyph glyph-name="Dcroat" unicode="&#x110;" horiz-adv-x="703" 
d="M540 641c82 -60 124 -159 124 -287s-42 -228 -124 -288c-59 -43 -139 -66 -259 -66h-214v312h-76v85h76v310h214c120 0 200 -23 259 -66zM439 168c54 38 80 102 80 186s-26 148 -80 185c-38 27 -90 42 -158 42h-69v-184h120v-85h-120v-185h69c68 0 120 14 158 41z" />
    <glyph glyph-name="dcroat" unicode="&#x111;" horiz-adv-x="642" 
d="M580 667h69v-85h-69v-582h-138v61c-30 -46 -90 -71 -159 -71c-135 0 -245 97 -245 261s110 263 245 263c69 0 129 -26 159 -72v140h-133v85h133v83h138v-83zM313 105c77 0 135 54 135 146s-58 149 -135 149c-78 0 -136 -57 -136 -149s58 -146 136 -146z" />
    <glyph glyph-name="Emacron" unicode="&#x112;" horiz-adv-x="525" 
d="M117 864h325v-89h-325v89zM480 707v-126h-268v-165h239v-125h-239v-164h268v-127h-412v707h412z" />
    <glyph glyph-name="emacron" unicode="&#x113;" horiz-adv-x="594" 
d="M169 678h275v-89h-275v89zM557 256l-1 -32h-383c7 -81 62 -125 133 -125c53 0 94 23 113 69l128 -17c-33 -103 -125 -161 -240 -161c-165 0 -271 99 -271 262s109 262 267 262c145 0 254 -83 254 -258zM303 412c-69 0 -114 -35 -127 -103h244c-7 65 -54 103 -117 103z
" />
    <glyph glyph-name="Ebreve" unicode="&#x114;" horiz-adv-x="525" 
d="M278 740c-104 0 -174 28 -177 133h87c4 -46 32 -64 90 -64c60 0 88 18 92 64h87c-4 -105 -74 -133 -179 -133zM480 707v-126h-268v-165h239v-125h-239v-164h268v-127h-412v707h412z" />
    <glyph glyph-name="ebreve" unicode="&#x115;" horiz-adv-x="594" 
d="M306 556c-107 0 -178 42 -178 152h98c0 -50 27 -80 80 -80c55 0 81 30 81 80h99c0 -110 -71 -152 -180 -152zM557 256l-1 -32h-383c7 -81 62 -125 133 -125c53 0 94 23 113 69l128 -17c-33 -103 -125 -161 -240 -161c-165 0 -271 99 -271 262s109 262 267 262
c145 0 254 -83 254 -258zM303 412c-69 0 -114 -35 -127 -103h244c-7 65 -54 103 -117 103z" />
    <glyph glyph-name="Edotaccent" unicode="&#x116;" horiz-adv-x="525" 
d="M281 746c-45 0 -81 36 -81 81c0 44 36 79 81 79c43 0 79 -35 79 -79c0 -45 -36 -81 -79 -81zM480 707v-126h-268v-165h239v-125h-239v-164h268v-127h-412v707h412z" />
    <glyph glyph-name="edotaccent" unicode="&#x117;" horiz-adv-x="594" 
d="M308 583c-45 0 -81 35 -81 80c0 44 36 79 81 79c43 0 79 -35 79 -79c0 -45 -36 -80 -79 -80zM557 256l-1 -32h-383c7 -81 62 -125 133 -125c53 0 94 23 113 69l128 -17c-33 -103 -125 -161 -240 -161c-165 0 -271 99 -271 262s109 262 267 262c145 0 254 -83 254 -258z
M303 412c-69 0 -114 -35 -127 -103h244c-7 65 -54 103 -117 103z" />
    <glyph glyph-name="Eogonek" unicode="&#x118;" horiz-adv-x="525" 
d="M480 707v-126h-268v-165h239v-125h-239v-164h268v-127c-48 -34 -82 -75 -82 -105c0 -17 16 -27 39 -27c15 0 31 5 43 15v-86c-21 -8 -48 -13 -74 -13c-53 0 -98 20 -98 68s49 100 110 148h-350v707h412z" />
    <glyph glyph-name="eogonek" unicode="&#x119;" horiz-adv-x="594" 
d="M557 256l-1 -32h-383c7 -81 62 -125 133 -125c53 0 94 23 113 69l128 -17c-25 -79 -85 -132 -164 -152c-48 -34 -81 -74 -81 -104c0 -17 16 -27 39 -27c15 0 31 5 43 15v-86c-21 -8 -48 -13 -74 -13c-53 0 -98 20 -98 68c0 45 42 93 98 138h-3c-165 0 -271 99 -271 262
s109 262 267 262c145 0 254 -83 254 -258zM303 412c-69 0 -114 -35 -127 -103h244c-7 65 -54 103 -117 103z" />
    <glyph glyph-name="Ecaron" unicode="&#x11a;" horiz-adv-x="525" 
d="M454 873l-96 -131h-158l-96 131h113l62 -68l62 68h113zM480 707v-126h-268v-165h239v-125h-239v-164h268v-127h-412v707h412z" />
    <glyph glyph-name="ecaron" unicode="&#x11b;" horiz-adv-x="594" 
d="M481 708l-96 -142h-156l-96 142h113l61 -78l60 78h114zM557 256l-1 -32h-383c7 -81 62 -125 133 -125c53 0 94 23 113 69l128 -17c-33 -103 -125 -161 -240 -161c-165 0 -271 99 -271 262s109 262 267 262c145 0 254 -83 254 -258zM303 412c-69 0 -114 -35 -127 -103h244
c-7 65 -54 103 -117 103z" />
    <glyph glyph-name="Gcircumflex" unicode="&#x11c;" horiz-adv-x="788" 
d="M336 742h-113l96 131h158l96 -131h-113l-62 68zM391 -14c-207 0 -354 150 -354 368s150 367 362 367c140 0 253 -65 313 -172l-126 -67c-37 67 -104 107 -187 107c-127 0 -218 -94 -218 -235c0 -140 84 -235 218 -235c94 0 173 51 197 152h-191v115h333v-386h-113v107
c-44 -71 -121 -121 -234 -121z" />
    <glyph glyph-name="gcircumflex" unicode="&#x11d;" horiz-adv-x="626" 
d="M378 565l-60 78l-61 -78h-113l96 142h156l96 -142h-114zM427 439v65h138v-491c0 -185 -102 -263 -262 -263c-145 0 -224 63 -260 157l116 48c29 -65 71 -98 138 -98c92 0 130 57 130 145v83c-28 -42 -88 -72 -158 -72c-127 0 -231 99 -231 252c0 152 104 249 233 249
c72 0 128 -30 156 -75zM303 124c76 0 132 59 132 141c0 81 -55 140 -132 140s-132 -59 -132 -140c0 -82 56 -141 132 -141z" />
    <glyph glyph-name="Gbreve" unicode="&#x11e;" horiz-adv-x="788" 
d="M397 740c-104 0 -174 28 -177 133h87c4 -46 32 -64 90 -64c60 0 88 18 92 64h87c-4 -105 -74 -133 -179 -133zM391 -14c-207 0 -354 150 -354 368s150 367 362 367c140 0 253 -65 313 -172l-126 -67c-37 67 -104 107 -187 107c-127 0 -218 -94 -218 -235
c0 -140 84 -235 218 -235c94 0 173 51 197 152h-191v115h333v-386h-113v107c-44 -71 -121 -121 -234 -121z" />
    <glyph glyph-name="gbreve" unicode="&#x11f;" horiz-adv-x="626" 
d="M317 555c-107 0 -178 42 -178 152h98c0 -50 27 -80 80 -80c55 0 81 30 81 80h99c0 -110 -71 -152 -180 -152zM427 439v65h138v-491c0 -185 -102 -263 -262 -263c-145 0 -224 63 -260 157l116 48c29 -65 71 -98 138 -98c92 0 130 57 130 145v83c-28 -42 -88 -72 -158 -72
c-127 0 -231 99 -231 252c0 152 104 249 233 249c72 0 128 -30 156 -75zM303 124c76 0 132 59 132 141c0 81 -55 140 -132 140s-132 -59 -132 -140c0 -82 56 -141 132 -141z" />
    <glyph glyph-name="Gdotaccent" unicode="&#x120;" horiz-adv-x="788" 
d="M399 746c-45 0 -81 36 -81 81c0 44 36 79 81 79c43 0 79 -35 79 -79c0 -45 -36 -81 -79 -81zM391 -14c-207 0 -354 150 -354 368s150 367 362 367c140 0 253 -65 313 -172l-126 -67c-37 67 -104 107 -187 107c-127 0 -218 -94 -218 -235c0 -140 84 -235 218 -235
c94 0 173 51 197 152h-191v115h333v-386h-113v107c-44 -71 -121 -121 -234 -121z" />
    <glyph glyph-name="gdotaccent" unicode="&#x121;" horiz-adv-x="626" 
d="M319 582c-45 0 -81 35 -81 80c0 44 36 79 81 79c43 0 79 -35 79 -79c0 -45 -36 -80 -79 -80zM427 439v65h138v-491c0 -185 -102 -263 -262 -263c-145 0 -224 63 -260 157l116 48c29 -65 71 -98 138 -98c92 0 130 57 130 145v83c-28 -42 -88 -72 -158 -72
c-127 0 -231 99 -231 252c0 152 104 249 233 249c72 0 128 -30 156 -75zM303 124c76 0 132 59 132 141c0 81 -55 140 -132 140s-132 -59 -132 -140c0 -82 56 -141 132 -141z" />
    <glyph glyph-name="uni0122" unicode="&#x122;" horiz-adv-x="788" 
d="M391 -14c-207 0 -354 150 -354 368s150 367 362 367c140 0 253 -65 313 -172l-126 -67c-37 67 -104 107 -187 107c-127 0 -218 -94 -218 -235c0 -140 84 -235 218 -235c94 0 173 51 197 152h-191v115h333v-386h-113v107c-44 -71 -121 -121 -234 -121zM340 -173h-98
l96 143h117z" />
    <glyph glyph-name="uni0123" unicode="&#x123;" horiz-adv-x="626" 
d="M374 707h99l-96 -142h-117zM427 439v65h138v-491c0 -185 -102 -263 -262 -263c-145 0 -224 63 -260 157l116 48c29 -65 71 -98 138 -98c92 0 130 57 130 145v83c-28 -42 -88 -72 -158 -72c-127 0 -231 99 -231 252c0 152 104 249 233 249c72 0 128 -30 156 -75zM303 124
c76 0 132 59 132 141c0 81 -55 140 -132 140s-132 -59 -132 -140c0 -82 56 -141 132 -141z" />
    <glyph glyph-name="Hcircumflex" unicode="&#x124;" horiz-adv-x="732" 
d="M305 742h-113l96 131h158l96 -131h-113l-62 68zM212 0h-144v707h144v-290h308v290h145v-707h-145v292h-308v-292z" />
    <glyph glyph-name="hcircumflex" unicode="&#x125;" horiz-adv-x="608" 
d="M367 785l-62 68l-62 -68h-113l96 131h158l96 -131h-113zM368 514c118 0 184 -65 184 -192v-322h-139v301c0 74 -40 103 -98 103c-56 0 -115 -30 -115 -130v-274h-139v750h139v-309c37 45 94 73 168 73z" />
    <glyph glyph-name="Hbar" unicode="&#x126;" horiz-adv-x="732" 
d="M665 585h63v-54h-63v-531h-145v292h-308v-292h-144v531h-62v54h62v122h144v-122h308v122h145v-122zM212 417h308v114h-308v-114z" />
    <glyph glyph-name="hbar" unicode="&#x127;" horiz-adv-x="608" 
d="M368 514c118 0 184 -65 184 -192v-322h-139v301c0 74 -40 103 -98 103c-56 0 -115 -30 -115 -130v-274h-139v583h-59v85h59v82h139v-82h142v-85h-142v-142c37 45 94 73 168 73z" />
    <glyph glyph-name="Itilde" unicode="&#x128;" horiz-adv-x="280" 
d="M199 737c-47 0 -69 25 -85 45c-13 15 -24 27 -43 27c-23 0 -32 -29 -32 -65h-68c0 82 41 141 107 141c46 0 69 -25 87 -45c12 -15 23 -28 43 -28c22 0 30 28 30 66h68c0 -79 -38 -141 -107 -141zM212 0h-144v707h144v-707z" />
    <glyph glyph-name="itilde" unicode="&#x129;" horiz-adv-x="259" 
d="M189 558c-47 0 -69 24 -85 44c-13 15 -24 28 -43 28c-23 0 -32 -30 -32 -65h-68c0 81 41 140 107 140c46 0 69 -24 87 -44c12 -16 23 -28 43 -28c22 0 30 28 30 65h68c0 -79 -38 -140 -107 -140zM199 0h-139v504h139v-504z" />
    <glyph glyph-name="Imacron" unicode="&#x12a;" horiz-adv-x="280" 
d="M302 775h-326v89h326v-89zM212 0h-144v707h144v-707z" />
    <glyph glyph-name="imacron" unicode="&#x12b;" horiz-adv-x="259" 
d="M267 588h-276v89h276v-89zM199 0h-139v504h139v-504z" />
    <glyph glyph-name="Ibreve" unicode="&#x12c;" horiz-adv-x="280" 
d="M138 740c-104 0 -174 28 -178 133h88c4 -46 32 -64 90 -64c60 0 88 18 92 64h87c-4 -105 -74 -133 -179 -133zM212 0h-144v707h144v-707z" />
    <glyph glyph-name="ibreve" unicode="&#x12d;" horiz-adv-x="259" 
d="M129 555c-107 0 -179 42 -179 152h99c0 -50 27 -80 80 -80c55 0 81 30 81 80h99c0 -110 -71 -152 -180 -152zM199 0h-139v504h139v-504z" />
    <glyph glyph-name="Iogonek" unicode="&#x12e;" horiz-adv-x="280" 
d="M212 707v-707c-48 -34 -82 -75 -82 -105c0 -17 16 -27 39 -27c15 0 31 5 43 15v-86c-21 -8 -48 -13 -74 -13c-53 0 -98 20 -98 68s49 100 110 148h-82v707h144z" />
    <glyph glyph-name="iogonek" unicode="&#x12f;" horiz-adv-x="259" 
d="M131 582c-45 0 -81 35 -81 80c0 44 36 79 81 79c43 0 79 -35 79 -79c0 -45 -36 -80 -79 -80zM136 0h-76v504h139v-504h-1c-48 -34 -82 -75 -82 -105c0 -17 16 -27 39 -27c15 0 31 5 43 15v-86c-21 -8 -48 -13 -74 -13c-53 0 -98 20 -98 68s49 100 110 148z" />
    <glyph glyph-name="Idotaccent" unicode="&#x130;" horiz-adv-x="280" 
d="M140 746c-45 0 -81 36 -81 81c0 44 36 79 81 79c43 0 79 -35 79 -79c0 -45 -36 -81 -79 -81zM212 0h-144v707h144v-707z" />
    <glyph glyph-name="dotlessi" unicode="&#x131;" horiz-adv-x="259" 
d="M199 0h-139v504h139v-504z" />
    <glyph glyph-name="IJ" unicode="&#x132;" horiz-adv-x="745" 
d="M212 0h-144v707h144v-707zM474 -14c-62 0 -122 15 -188 53l61 118c36 -24 69 -37 108 -37c55 0 83 32 83 114v473h145v-500c0 -142 -86 -221 -209 -221z" />
    <glyph glyph-name="ij" unicode="&#x133;" horiz-adv-x="516" 
d="M131 582c-45 0 -81 35 -81 80c0 44 36 79 81 79c43 0 79 -35 79 -79c0 -45 -36 -80 -79 -80zM386 582c-45 0 -81 35 -81 80c0 44 36 79 81 79c43 0 79 -35 79 -79c0 -45 -36 -80 -79 -80zM199 0h-139v504h139v-504zM205 -243v107c92 0 111 41 111 145v495h138v-495
c0 -170 -69 -252 -249 -252z" />
    <glyph glyph-name="Jcircumflex" unicode="&#x134;" horiz-adv-x="466" 
d="M269 742h-113l96 131h158l96 -131h-113l-62 68zM194 -14c-62 0 -122 15 -188 53l61 118c36 -24 69 -37 108 -37c55 0 83 32 83 114v473h145v-500c0 -142 -86 -221 -209 -221z" />
    <glyph glyph-name="jcircumflex" unicode="&#x135;" horiz-adv-x="257" 
d="M65 565h-114l97 142h156l96 -142h-114l-60 78zM-54 -243v107c92 0 111 41 111 145v495h138v-495c0 -170 -69 -252 -249 -252z" />
    <glyph glyph-name="uni0136" unicode="&#x136;" horiz-adv-x="689" 
d="M672 707l-282 -338l291 -369h-182l-231 303h-56v-303h-144v707h144v-279h55l229 279h176zM277 -173h-98l96 143h117z" />
    <glyph glyph-name="uni0137" unicode="&#x137;" horiz-adv-x="582" 
d="M553 504l-210 -236l225 -268h-167l-173 212h-28v-212h-139v750h139v-443h26l171 197h156zM224 -173h-98l96 143h117z" />
    <glyph glyph-name="kgreenlandic" unicode="&#x138;" horiz-adv-x="582" 
d="M553 504l-210 -236l225 -268h-166l-174 212h-28v-212h-139v504h139v-197h26l171 197h156z" />
    <glyph glyph-name="Lacute" unicode="&#x139;" horiz-adv-x="451" 
d="M201 737h-121l83 136h147zM439 0h-371v707h144v-580h227v-127z" />
    <glyph glyph-name="lacute" unicode="&#x13a;" horiz-adv-x="261" 
d="M189 811h-121l88 142h147zM200 0h-139v750h139v-750z" />
    <glyph glyph-name="uni013B" unicode="&#x13b;" horiz-adv-x="451" 
d="M439 0h-371v707h144v-580h227v-127zM189 -173h-98l96 143h117z" />
    <glyph glyph-name="uni013C" unicode="&#x13c;" horiz-adv-x="261" 
d="M200 0h-139v750h139v-750zM74 -173h-99l97 143h117z" />
    <glyph glyph-name="Lcaron" unicode="&#x13d;" horiz-adv-x="452" 
d="M439 0h-371v707h144v-580h227v-127zM401 387h-100l61 320h142z" />
    <glyph glyph-name="lcaron" unicode="&#x13e;" horiz-adv-x="418" 
d="M200 0h-139v750h139v-750zM367 387h-99l61 320h141z" />
    <glyph glyph-name="Ldot" unicode="&#x13f;" horiz-adv-x="516" 
d="M439 0h-371v707h144v-580h227v-127zM419 272c-43 0 -81 35 -81 82c0 43 38 81 81 81s82 -38 82 -81c0 -47 -39 -82 -82 -82z" />
    <glyph glyph-name="ldot" unicode="&#x140;" horiz-adv-x="428" 
d="M200 0h-139v750h139v-750zM358 293c-44 0 -82 36 -82 82c0 44 38 82 82 82c42 0 82 -38 82 -82c0 -46 -40 -82 -82 -82z" />
    <glyph glyph-name="Lslash" unicode="&#x141;" horiz-adv-x="451" 
d="M212 326v-199h227v-127h-371v219l-64 -47v116l64 47v372h144v-265l106 79v-116z" />
    <glyph glyph-name="lslash" unicode="&#x142;" horiz-adv-x="261" 
d="M200 456l87 64v-116l-87 -64v-340h-139v237l-89 -66v116l89 66v397h139v-294z" />
    <glyph glyph-name="Nacute" unicode="&#x143;" horiz-adv-x="769" 
d="M410 873h147l-109 -136h-121zM557 203v504h145v-707h-174l-316 507v-507h-144v707h172z" />
    <glyph glyph-name="nacute" unicode="&#x144;" horiz-adv-x="608" 
d="M326 707h147l-114 -142h-121zM360 514c127 0 191 -65 191 -177v-337h-138v308c0 67 -42 96 -97 96c-58 0 -108 -29 -116 -110v-294h-139v504h139v-57c36 42 92 67 160 67z" />
    <glyph glyph-name="uni0145" unicode="&#x145;" horiz-adv-x="769" 
d="M557 203v504h145v-707h-174l-316 507v-507h-144v707h172zM331 -173h-98l96 143h117z" />
    <glyph glyph-name="uni0146" unicode="&#x146;" horiz-adv-x="608" 
d="M360 514c127 0 191 -65 191 -177v-337h-138v308c0 67 -42 96 -97 96c-58 0 -108 -29 -116 -110v-294h-139v504h139v-57c36 42 92 67 160 67zM243 -173h-98l96 143h117z" />
    <glyph glyph-name="Ncaron" unicode="&#x147;" horiz-adv-x="769" 
d="M562 873l-96 -131h-158l-96 131h113l62 -68l62 68h113zM557 203v504h145v-707h-174l-316 507v-507h-144v707h172z" />
    <glyph glyph-name="ncaron" unicode="&#x148;" horiz-adv-x="608" 
d="M474 707l-96 -142h-156l-96 142h113l61 -78l60 78h114zM360 514c127 0 191 -65 191 -177v-337h-138v308c0 67 -42 96 -97 96c-58 0 -108 -29 -116 -110v-294h-139v504h139v-57c36 42 92 67 160 67z" />
    <glyph glyph-name="napostrophe" unicode="&#x149;" horiz-adv-x="789" 
d="M52 387l61 320h141l-103 -320h-99zM540 514c127 0 192 -65 192 -177v-337h-139v308c0 67 -41 96 -96 96c-62 0 -117 -34 -117 -130v-274h-138v504h138v-57c36 42 91 67 160 67z" />
    <glyph glyph-name="Eng" unicode="&#x14a;" horiz-adv-x="769" 
d="M557 205v502h145v-716c0 -148 -87 -226 -235 -226v107c49 0 76 23 76 83c0 13 -5 28 -15 45l-316 507v-507h-144v707h172z" />
    <glyph glyph-name="eng" unicode="&#x14b;" horiz-adv-x="608" 
d="M360 514c127 0 191 -65 191 -177v-328c0 -170 -69 -252 -249 -252v107c92 0 111 41 111 145v299c0 67 -42 96 -97 96c-58 0 -108 -29 -116 -110v-294h-139v504h139v-57c36 42 92 67 160 67z" />
    <glyph glyph-name="Omacron" unicode="&#x14c;" horiz-adv-x="798" 
d="M562 775h-325v89h325v-89zM399 -14c-212 0 -362 150 -362 368s150 367 362 367s362 -149 362 -367s-150 -368 -362 -368zM399 119c127 0 218 94 218 235s-91 235 -218 235s-218 -94 -218 -235s91 -235 218 -235z" />
    <glyph glyph-name="omacron" unicode="&#x14d;" horiz-adv-x="628" 
d="M454 588h-275v89h275v-89zM314 -10c-162 1 -276 100 -276 263c0 161 114 260 276 261c163 -1 277 -100 277 -261c0 -163 -114 -262 -277 -263zM314 100c83 0 138 62 138 153c0 89 -55 151 -138 151s-138 -62 -138 -151c0 -91 55 -153 138 -153z" />
    <glyph glyph-name="Obreve" unicode="&#x14e;" horiz-adv-x="798" 
d="M398 740c-104 0 -174 28 -177 133h87c4 -46 32 -64 90 -64c60 0 88 18 92 64h87c-4 -105 -74 -133 -179 -133zM399 -14c-212 0 -362 150 -362 368s150 367 362 367s362 -149 362 -367s-150 -368 -362 -368zM399 119c127 0 218 94 218 235s-91 235 -218 235
s-218 -94 -218 -235s91 -235 218 -235z" />
    <glyph glyph-name="obreve" unicode="&#x14f;" horiz-adv-x="628" 
d="M315 555c-107 0 -178 42 -178 152h98c0 -50 27 -80 80 -80c55 0 81 30 81 80h99c0 -110 -71 -152 -180 -152zM314 -10c-162 1 -276 100 -276 263c0 161 114 260 276 261c163 -1 277 -100 277 -261c0 -163 -114 -262 -277 -263zM314 100c83 0 138 62 138 153
c0 89 -55 151 -138 151s-138 -62 -138 -151c0 -91 55 -153 138 -153z" />
    <glyph glyph-name="Ohungarumlaut" unicode="&#x150;" horiz-adv-x="798" 
d="M363 737h-121l91 136h139zM557 737h-121l91 136h139zM399 -14c-212 0 -362 150 -362 368s150 367 362 367s362 -149 362 -367s-150 -368 -362 -368zM399 119c127 0 218 94 218 235s-91 235 -218 235s-218 -94 -218 -235s91 -235 218 -235z" />
    <glyph glyph-name="ohungarumlaut" unicode="&#x151;" horiz-adv-x="628" 
d="M280 565h-121l96 142h139zM474 565h-121l96 142h139zM314 -10c-162 1 -276 100 -276 263c0 161 114 260 276 261c163 -1 277 -100 277 -261c0 -163 -114 -262 -277 -263zM314 100c83 0 138 62 138 153c0 89 -55 151 -138 151s-138 -62 -138 -151c0 -91 55 -153 138 -153z
" />
    <glyph glyph-name="OE" unicode="&#x152;" horiz-adv-x="945" 
d="M900 0h-481c-119 0 -200 23 -259 66c-82 60 -123 160 -123 288s41 227 123 287c59 43 140 66 259 66h481v-126h-267v-165h238v-125h-238v-164h267v-127zM420 127h69v454h-69c-69 0 -121 -15 -158 -42c-54 -37 -81 -101 -81 -185s27 -148 81 -186c37 -27 89 -41 158 -41z
" />
    <glyph glyph-name="oe" unicode="&#x153;" horiz-adv-x="1016" 
d="M974 256l-2 -32h-382c0 -1 0 -2 -1 -3c8 -79 63 -122 134 -122c53 0 93 23 112 69l128 -17c-33 -103 -124 -161 -240 -161c-86 0 -156 27 -204 76c-49 -48 -120 -75 -205 -76c-162 1 -276 100 -276 263c0 161 114 260 276 261c85 -1 157 -28 206 -76c47 49 116 76 199 76
c145 0 254 -83 255 -258zM720 412c-69 0 -115 -35 -128 -103h245c-8 65 -55 103 -117 103zM314 100c83 0 138 62 138 153c0 89 -55 151 -138 151s-138 -62 -138 -151c0 -91 55 -153 138 -153z" />
    <glyph glyph-name="Racute" unicode="&#x154;" horiz-adv-x="640" 
d="M328 873h147l-109 -136h-121zM622 0h-176l-169 259h-65v-259h-145v707h234c100 0 161 -17 206 -54c42 -34 67 -90 67 -167c0 -88 -34 -169 -105 -208c-10 -5 -20 -9 -30 -13zM280 587h-68v-217h68c37 0 84 2 111 21c25 17 38 46 38 87s-13 69 -36 86
c-28 20 -73 23 -113 23z" />
    <glyph glyph-name="racute" unicode="&#x155;" horiz-adv-x="392" 
d="M210 707h147l-114 -142h-121zM200 504v-72c31 49 92 82 171 82v-129c-119 0 -171 -38 -171 -154v-231h-139v504h139z" />
    <glyph glyph-name="uni0156" unicode="&#x156;" horiz-adv-x="640" 
d="M439 265l183 -265h-176l-169 259h-65v-259h-145v707h234c100 0 161 -17 206 -54c42 -34 67 -90 67 -167c0 -88 -34 -169 -105 -208c-10 -5 -20 -9 -30 -13zM280 587h-68v-217h68c37 0 84 2 111 21c25 17 38 46 38 87s-13 69 -36 86c-28 20 -73 23 -113 23zM248 -173h-98
l96 143h117z" />
    <glyph glyph-name="uni0157" unicode="&#x157;" horiz-adv-x="392" 
d="M200 504v-72c31 49 92 82 171 82v-129c-119 0 -171 -38 -171 -154v-231h-139v504h139zM77 -173h-99l97 143h117z" />
    <glyph glyph-name="Rcaron" unicode="&#x158;" horiz-adv-x="640" 
d="M480 873l-96 -131h-158l-96 131h113l62 -68l62 68h113zM622 0h-176l-169 259h-65v-259h-145v707h234c100 0 161 -17 206 -54c42 -34 67 -90 67 -167c0 -88 -34 -169 -105 -208c-10 -5 -20 -9 -30 -13zM280 587h-68v-217h68c37 0 84 2 111 21c25 17 38 46 38 87
s-13 69 -36 86c-28 20 -73 23 -113 23z" />
    <glyph glyph-name="rcaron" unicode="&#x159;" horiz-adv-x="392" 
d="M358 707l-96 -142h-156l-96 142h113l61 -78l60 78h114zM200 504v-72c31 49 92 82 171 82v-129c-119 0 -171 -38 -171 -154v-231h-139v504h139z" />
    <glyph glyph-name="Sacute" unicode="&#x15a;" horiz-adv-x="612" 
d="M361 737h-121l83 136h147zM307 -14c-152 0 -272 76 -293 211l143 30c21 -85 75 -122 152 -122c72 0 113 33 113 87c0 63 -71 84 -152 107c-106 31 -231 69 -231 213c0 126 102 209 250 209c126 0 248 -53 279 -190l-130 -30c-24 70 -67 102 -140 102
c-67 0 -113 -32 -113 -83c0 -57 66 -74 143 -94c109 -30 244 -68 244 -224c0 -130 -104 -216 -265 -216z" />
    <glyph glyph-name="sacute" unicode="&#x15b;" horiz-adv-x="513" 
d="M313 565h-121l88 142h147zM268 -10c-118 0 -213 47 -231 142l115 32c16 -54 59 -74 111 -74c42 0 76 16 76 51c0 43 -53 56 -111 67c-107 20 -179 53 -179 149c0 99 81 157 203 157c97 0 186 -38 210 -130l-121 -27c-16 41 -48 58 -94 58c-43 0 -72 -16 -72 -45
c0 -33 50 -45 109 -58c117 -25 188 -55 188 -158c0 -115 -97 -164 -204 -164z" />
    <glyph glyph-name="Scedilla" unicode="&#x15e;" horiz-adv-x="612" 
d="M572 202c0 -124 -95 -208 -243 -215l-28 -44c10 2 18 3 27 3c55 0 90 -36 90 -88c0 -58 -46 -103 -112 -103c-69 0 -107 30 -120 69l76 21c7 -19 24 -27 41 -27c23 0 43 14 43 40s-19 39 -42 39c-14 0 -28 -5 -36 -16l-65 28l48 81c-125 16 -219 89 -237 207l143 30
c21 -85 75 -122 152 -122c72 0 113 33 113 87c0 63 -71 84 -152 107c-106 31 -231 69 -231 213c0 126 102 209 250 209c126 0 248 -53 279 -190l-130 -30c-24 70 -67 102 -140 102c-67 0 -113 -32 -113 -83c0 -57 66 -74 143 -94c109 -30 244 -68 244 -224z" />
    <glyph glyph-name="scedilla" unicode="&#x15f;" horiz-adv-x="513" 
d="M472 154c0 -105 -81 -155 -176 -163l-31 -48c10 2 18 3 27 3c55 0 90 -36 90 -88c0 -58 -46 -103 -112 -103c-69 0 -107 30 -120 69l76 21c7 -19 24 -27 41 -27c23 0 43 14 43 40s-19 39 -42 39c-14 0 -28 -5 -36 -16l-65 28l50 84c-94 12 -165 58 -180 139l115 32
c16 -54 59 -74 111 -74c42 0 76 16 76 51c0 43 -53 56 -111 67c-107 20 -179 53 -179 149c0 99 81 157 203 157c97 0 186 -38 210 -130l-121 -27c-16 41 -48 58 -94 58c-43 0 -72 -16 -72 -45c0 -33 50 -45 109 -58c117 -25 188 -55 188 -158z" />
    <glyph glyph-name="Scaron" unicode="&#x160;" horiz-adv-x="612" 
d="M379 742h-158l-96 131h113l62 -68l62 68h113zM307 -14c-152 0 -272 76 -293 211l143 30c21 -85 75 -122 152 -122c72 0 113 33 113 87c0 63 -71 84 -152 107c-106 31 -231 69 -231 213c0 126 102 209 250 209c126 0 248 -53 279 -190l-130 -30c-24 70 -67 102 -140 102
c-67 0 -113 -32 -113 -83c0 -57 66 -74 143 -94c109 -30 244 -68 244 -224c0 -130 -104 -216 -265 -216z" />
    <glyph glyph-name="scaron" unicode="&#x161;" horiz-adv-x="513" 
d="M332 565h-156l-96 142h113l61 -78l60 78h114zM268 -10c-118 0 -213 47 -231 142l115 32c16 -54 59 -74 111 -74c42 0 76 16 76 51c0 43 -53 56 -111 67c-107 20 -179 53 -179 149c0 99 81 157 203 157c97 0 186 -38 210 -130l-121 -27c-16 41 -48 58 -94 58
c-43 0 -72 -16 -72 -45c0 -33 50 -45 109 -58c117 -25 188 -55 188 -158c0 -115 -97 -164 -204 -164z" />
    <glyph glyph-name="uni0162" unicode="&#x162;" horiz-adv-x="508" 
d="M326 581v-581h-34l-37 -57c10 2 18 3 27 3c55 0 90 -36 90 -88c0 -58 -46 -103 -112 -103c-69 0 -107 30 -120 69l76 21c7 -19 24 -27 41 -27c23 0 43 14 43 40s-19 39 -42 39c-14 0 -28 -5 -36 -16l-65 28l54 91h-29v581h-171v126h485v-126h-170z" />
    <glyph glyph-name="uni0163" unicode="&#x163;" horiz-adv-x="403" 
d="M366 504v-106h-109v-219c0 -48 25 -69 64 -69h45v-110h-88l-37 -57c10 2 18 3 27 3c55 0 90 -36 90 -88c0 -58 -46 -103 -112 -103c-69 0 -107 30 -120 69l76 21c7 -19 24 -27 41 -27c23 0 43 14 43 40s-19 39 -42 39c-14 0 -28 -5 -36 -16l-65 28l61 103
c-56 22 -86 73 -86 147v239h-99v106h39c46 0 77 18 77 90v72h122v-162h109z" />
    <glyph glyph-name="Tcaron" unicode="&#x164;" horiz-adv-x="508" 
d="M429 873l-96 -131h-158l-96 131h113l62 -68l62 68h113zM11 707h485v-126h-170v-581h-144v581h-171v126z" />
    <glyph glyph-name="tcaron" unicode="&#x165;" horiz-adv-x="393" 
d="M410 563h-100l61 320h142zM366 0h-93c-99 0 -155 58 -155 159v239h-99v106h39c46 0 77 18 77 90v72h122v-162h109v-106h-109v-219c0 -48 25 -69 64 -69h45v-110z" />
    <glyph glyph-name="Tbar" unicode="&#x166;" horiz-adv-x="508" 
d="M496 707v-126h-170v-184h99v-85h-99v-312h-144v312h-97v85h97v184h-171v126h485z" />
    <glyph glyph-name="tbar" unicode="&#x167;" horiz-adv-x="403" 
d="M367 295v-85h-110v-31c0 -48 25 -69 64 -69h45v-110h-93c-99 0 -155 58 -155 159v51h-100v85h100v103h-99v106h39c46 0 77 18 77 90v72h122v-162h109v-106h-109v-103h110z" />
    <glyph glyph-name="Utilde" unicode="&#x168;" horiz-adv-x="681" 
d="M400 737c-47 0 -69 25 -85 45c-13 15 -24 27 -43 27c-23 0 -32 -29 -32 -65h-67c0 82 40 141 106 141c46 0 69 -25 87 -45c12 -15 23 -28 43 -28c22 0 30 28 30 66h68c0 -79 -38 -141 -107 -141zM341 -14c-160 0 -281 84 -281 265v456h144v-437c0 -109 58 -153 137 -153
c78 0 136 44 136 153v437h145v-456c0 -181 -122 -265 -281 -265z" />
    <glyph glyph-name="utilde" unicode="&#x169;" horiz-adv-x="609" 
d="M233 630c-23 0 -32 -30 -32 -65h-67c0 81 40 140 106 140c46 0 69 -24 87 -44c12 -16 23 -28 43 -28c22 0 30 28 30 65h68c0 -79 -38 -140 -107 -140c-47 0 -69 24 -85 44c-13 15 -24 28 -43 28zM408 230v274h139v-504h-139v58c-36 -43 -92 -68 -160 -68
c-127 0 -192 66 -192 177v337h138v-308c0 -67 42 -95 97 -95c62 0 116 33 117 129z" />
    <glyph glyph-name="Umacron" unicode="&#x16a;" horiz-adv-x="681" 
d="M503 775h-325v89h325v-89zM341 -14c-160 0 -281 84 -281 265v456h144v-437c0 -109 58 -153 137 -153c78 0 136 44 136 153v437h145v-456c0 -181 -122 -265 -281 -265z" />
    <glyph glyph-name="umacron" unicode="&#x16b;" horiz-adv-x="609" 
d="M164 677h275v-89h-275v89zM408 230v274h139v-504h-139v58c-36 -43 -92 -68 -160 -68c-127 0 -192 66 -192 177v337h138v-308c0 -67 42 -95 97 -95c62 0 116 33 117 129z" />
    <glyph glyph-name="Uring" unicode="&#x16e;" horiz-adv-x="681" 
d="M340 735c-72 0 -131 51 -131 127s58 127 131 127c72 0 130 -51 130 -127s-58 -127 -130 -127zM340 799c35 0 64 26 64 63s-28 63 -64 63c-35 0 -62 -26 -62 -63s27 -63 62 -63zM341 -14c-160 0 -281 84 -281 265v456h144v-437c0 -109 58 -153 137 -153
c78 0 136 44 136 153v437h145v-456c0 -181 -122 -265 -281 -265z" />
    <glyph glyph-name="uring" unicode="&#x16f;" horiz-adv-x="609" 
d="M302 558c-76 0 -124 55 -124 121c0 65 48 120 124 120c75 0 122 -55 122 -120c0 -66 -48 -121 -122 -121zM302 733c-31 0 -54 -21 -54 -54c0 -31 24 -54 54 -54s54 23 54 54c0 33 -24 54 -54 54zM408 230v274h139v-504h-139v58c-36 -43 -92 -68 -160 -68
c-127 0 -192 66 -192 177v337h138v-308c0 -67 42 -95 97 -95c62 0 116 33 117 129z" />
    <glyph glyph-name="Uhungarumlaut" unicode="&#x170;" horiz-adv-x="681" 
d="M304 737h-121l91 136h139zM498 737h-121l91 136h139zM341 -14c-160 0 -281 84 -281 265v456h144v-437c0 -109 58 -153 137 -153c78 0 136 44 136 153v437h145v-456c0 -181 -122 -265 -281 -265z" />
    <glyph glyph-name="uhungarumlaut" unicode="&#x171;" horiz-adv-x="609" 
d="M240 707h139l-114 -142h-121zM573 707l-114 -142h-121l96 142h139zM408 230v274h139v-504h-139v58c-36 -43 -92 -68 -160 -68c-127 0 -192 66 -192 177v337h138v-308c0 -67 42 -95 97 -95c62 0 116 33 117 129z" />
    <glyph glyph-name="Uogonek" unicode="&#x172;" horiz-adv-x="681" 
d="M477 270v437h145v-456c0 -145 -78 -227 -190 -255c-45 -33 -77 -72 -77 -101c0 -17 16 -27 39 -27c15 0 31 5 43 15v-86c-21 -8 -48 -13 -74 -13c-53 0 -98 20 -98 68c0 43 40 90 93 134h-17c-160 0 -281 84 -281 265v456h144v-437c0 -109 58 -153 137 -153
c78 0 136 44 136 153z" />
    <glyph glyph-name="uogonek" unicode="&#x173;" horiz-adv-x="609" 
d="M408 230v274h139v-504h-1c-48 -34 -82 -75 -82 -105c0 -17 16 -27 39 -27c15 0 31 5 43 15v-86c-21 -8 -48 -13 -74 -13c-53 0 -98 20 -98 68s49 100 110 148h-76v58c-36 -43 -92 -68 -160 -68c-127 0 -192 66 -192 177v337h138v-308c0 -67 42 -95 97 -95
c62 0 116 33 117 129z" />
    <glyph glyph-name="Wcircumflex" unicode="&#x174;" horiz-adv-x="1057" 
d="M590 742l-62 68l-62 -68h-113l96 131h158l96 -131h-113zM750 154l142 553h150l-184 -707h-193l-137 445l-136 -445h-193l-184 707h150l141 -552l160 552h125z" />
    <glyph glyph-name="wcircumflex" unicode="&#x175;" horiz-adv-x="890" 
d="M505 565l-60 78l-61 -78h-113l96 142h156l96 -142h-114zM620 166l107 338h147l-177 -504h-142l-110 332l-109 -332h-143l-177 504h147l107 -336l119 336h112z" />
    <glyph glyph-name="Ycircumflex" unicode="&#x176;" horiz-adv-x="622" 
d="M373 742l-62 68l-62 -68h-113l96 131h158l96 -131h-113zM462 707h158l-236 -371v-336h-145v334l-238 373h159l151 -247z" />
    <glyph glyph-name="ycircumflex" unicode="&#x177;" horiz-adv-x="582" 
d="M356 565l-60 78l-61 -78h-113l96 142h156l96 -142h-114zM291 165l126 339h151l-317 -747h-151l119 268l-205 479h150z" />
    <glyph glyph-name="Ydieresis" unicode="&#x178;" horiz-adv-x="622" 
d="M209 746c-45 0 -81 36 -81 81c0 44 36 79 81 79c43 0 79 -35 79 -79c0 -45 -36 -81 -79 -81zM415 746c-44 0 -81 36 -81 81c0 44 37 79 81 79c43 0 80 -35 80 -79c0 -45 -37 -81 -80 -81zM462 707h158l-236 -371v-336h-145v334l-238 373h159l151 -247z" />
    <glyph glyph-name="Zacute" unicode="&#x179;" horiz-adv-x="579" 
d="M326 873h147l-109 -136h-121zM543 592l-339 -465h342v-127h-512v115l339 466h-339v126h509v-115z" />
    <glyph glyph-name="zacute" unicode="&#x17a;" horiz-adv-x="490" 
d="M273 707h147l-114 -142h-121zM44 504h420l-233 -398h223v-106h-430l232 398h-212v106z" />
    <glyph glyph-name="Zdotaccent" unicode="&#x17b;" horiz-adv-x="579" 
d="M304 746c-45 0 -81 36 -81 81c0 44 36 79 81 79c43 0 79 -35 79 -79c0 -45 -36 -81 -79 -81zM543 592l-339 -465h342v-127h-512v115l339 466h-339v126h509v-115z" />
    <glyph glyph-name="zdotaccent" unicode="&#x17c;" horiz-adv-x="490" 
d="M248 582c-45 0 -81 35 -81 80c0 44 36 79 81 79c43 0 79 -35 79 -79c0 -45 -36 -80 -79 -80zM44 504h420l-233 -398h223v-106h-430l232 398h-212v106z" />
    <glyph glyph-name="Zcaron" unicode="&#x17d;" horiz-adv-x="579" 
d="M478 873l-96 -131h-158l-96 131h113l62 -68l62 68h113zM543 592l-339 -465h342v-127h-512v115l339 466h-339v126h509v-115z" />
    <glyph glyph-name="zcaron" unicode="&#x17e;" horiz-adv-x="490" 
d="M421 707l-96 -142h-156l-96 142h113l61 -78l60 78h114zM44 504h420l-233 -398h223v-106h-430l232 398h-212v106z" />
    <glyph glyph-name="florin" unicode="&#x192;" horiz-adv-x="439" 
d="M419 640h-27c-34 0 -84 -9 -84 -86v-50h111v-106h-111v-398c0 -163 -91 -196 -222 -196h-28v110h28c34 0 83 9 83 86v398h-101v106h101v50c0 163 91 196 223 196h27v-110z" />
    <glyph glyph-name="Ohorn" unicode="&#x1a0;" horiz-adv-x="798" 
d="M700 691v63h95v-78c0 -80 -48 -105 -92 -111c37 -58 58 -130 58 -211c0 -218 -150 -368 -362 -368s-362 150 -362 368s150 367 362 367c102 0 190 -35 254 -95h2c36 0 45 14 45 65zM399 119c127 0 218 94 218 235s-91 235 -218 235s-218 -94 -218 -235s91 -235 218 -235z
" />
    <glyph glyph-name="ohorn" unicode="&#x1a1;" horiz-adv-x="628" 
d="M545 525v63h95v-78c0 -78 -46 -104 -89 -111c26 -40 40 -89 40 -146c0 -163 -114 -262 -277 -263c-162 1 -276 100 -276 263c0 161 114 260 276 261c71 0 132 -19 179 -54h7c36 0 45 14 45 65zM314 100c83 0 138 62 138 153c0 89 -55 151 -138 151s-138 -62 -138 -151
c0 -91 55 -153 138 -153z" />
    <glyph glyph-name="Uhorn" unicode="&#x1af;" horiz-adv-x="681" 
d="M697 732v63h95v-78c0 -95 -69 -113 -116 -113c-17 0 -35 4 -54 10v-363c0 -181 -122 -265 -281 -265c-160 0 -281 84 -281 265v456h144v-437c0 -109 58 -153 137 -153c78 0 136 44 136 153v437h145v-34c12 -4 22 -6 30 -6c36 0 45 14 45 65z" />
    <glyph glyph-name="uhorn" unicode="&#x1b0;" horiz-adv-x="609" 
d="M611 529v63h95v-78c0 -95 -69 -113 -116 -113c-13 0 -28 2 -43 7v-408h-139v58c-36 -43 -92 -68 -160 -68c-127 0 -192 66 -192 177v337h138v-308c0 -67 42 -95 97 -95c62 0 116 33 117 129v274h139v-37c7 -2 13 -3 19 -3c36 0 45 14 45 65z" />
    <glyph glyph-name="uni01CD" unicode="&#x1cd;" horiz-adv-x="724" 
d="M538 873l-96 -131h-158l-96 131h113l62 -68l62 68h113zM716 0h-153l-53 148h-295l-53 -148h-154l265 707h179zM363 560l-105 -293h209z" />
    <glyph glyph-name="uni01CE" unicode="&#x1ce;" horiz-adv-x="562" 
d="M460 707l-96 -142h-156l-96 142h113l61 -78l60 78h114zM504 329v-238c0 -30 0 -57 9 -78v-13h-137l-6 69c-34 -53 -103 -79 -169 -79c-81 0 -164 36 -164 137c0 112 100 147 190 166l92 21c26 6 46 13 46 37c0 46 -42 65 -88 65c-56 0 -93 -26 -104 -77l-133 20
c22 107 112 155 239 155c146 0 225 -65 225 -185zM242 86c66 0 131 53 131 157l-124 -32c-39 -8 -74 -26 -74 -69c0 -37 28 -56 67 -56z" />
    <glyph glyph-name="uni01CF" unicode="&#x1cf;" horiz-adv-x="280" 
d="M218 742h-158l-97 131h114l62 -68l62 68h113zM212 0h-144v707h144v-707z" />
    <glyph glyph-name="uni01D0" unicode="&#x1d0;" horiz-adv-x="259" 
d="M208 565h-156l-97 142h114l61 -78l60 78h114zM199 0h-139v504h139v-504z" />
    <glyph glyph-name="uni01D1" unicode="&#x1d1;" horiz-adv-x="798" 
d="M478 742h-158l-96 131h113l62 -68l62 68h113zM399 -14c-212 0 -362 150 -362 368s150 367 362 367s362 -149 362 -367s-150 -368 -362 -368zM399 119c127 0 218 94 218 235s-91 235 -218 235s-218 -94 -218 -235s91 -235 218 -235z" />
    <glyph glyph-name="uni01D2" unicode="&#x1d2;" horiz-adv-x="628" 
d="M394 565h-156l-96 142h113l61 -78l60 78h114zM314 -10c-162 1 -276 100 -276 263c0 161 114 260 276 261c163 -1 277 -100 277 -261c0 -163 -114 -262 -277 -263zM314 100c83 0 138 62 138 153c0 89 -55 151 -138 151s-138 -62 -138 -151c0 -91 55 -153 138 -153z" />
    <glyph glyph-name="uni01D3" unicode="&#x1d3;" horiz-adv-x="681" 
d="M419 742h-158l-96 131h113l62 -68l62 68h113zM341 -14c-160 0 -281 84 -281 265v456h144v-437c0 -109 58 -153 137 -153c78 0 136 44 136 153v437h145v-456c0 -181 -122 -265 -281 -265z" />
    <glyph glyph-name="uni01D4" unicode="&#x1d4;" horiz-adv-x="609" 
d="M476 707l-96 -142h-156l-96 142h113l61 -78l60 78h114zM408 230v274h139v-504h-139v58c-36 -43 -92 -68 -160 -68c-127 0 -192 66 -192 177v337h138v-308c0 -67 42 -95 97 -95c62 0 116 33 117 129z" />
    <glyph glyph-name="uni01D5" unicode="&#x1d5;" horiz-adv-x="681" 
d="M503 974h-325v89h325v-89zM237 746c-45 0 -81 36 -81 81c0 44 36 79 81 79c43 0 79 -35 79 -79c0 -45 -36 -81 -79 -81zM443 746c-44 0 -81 36 -81 81c0 44 37 79 81 79c43 0 80 -35 80 -79c0 -45 -37 -81 -80 -81zM341 -14c-160 0 -281 84 -281 265v456h144v-437
c0 -109 58 -153 137 -153c78 0 136 44 136 153v437h145v-456c0 -181 -122 -265 -281 -265z" />
    <glyph glyph-name="uni01D6" unicode="&#x1d6;" horiz-adv-x="609" 
d="M164 904h275v-89h-275v89zM199 582c-45 0 -81 35 -81 80c0 44 36 79 81 79c43 0 79 -35 79 -79c0 -45 -36 -80 -79 -80zM324 662c0 44 37 79 81 79c43 0 80 -35 80 -79c0 -45 -37 -80 -80 -80c-44 0 -81 35 -81 80zM408 230v274h139v-504h-139v58
c-36 -43 -92 -68 -160 -68c-127 0 -192 66 -192 177v337h138v-308c0 -67 42 -95 97 -95c62 0 116 33 117 129z" />
    <glyph glyph-name="uni01D7" unicode="&#x1d7;" horiz-adv-x="681" 
d="M401 936h-121l83 136h147zM237 746c-45 0 -81 36 -81 81c0 44 36 79 81 79c43 0 79 -35 79 -79c0 -45 -36 -81 -79 -81zM443 746c-44 0 -81 36 -81 81c0 44 37 79 81 79c43 0 80 -35 80 -79c0 -45 -37 -81 -80 -81zM341 -14c-160 0 -281 84 -281 265v456h144v-437
c0 -109 58 -153 137 -153c78 0 136 44 136 153v437h145v-456c0 -181 -122 -265 -281 -265z" />
    <glyph glyph-name="uni01D8" unicode="&#x1d8;" horiz-adv-x="609" 
d="M327 934h147l-114 -142h-121zM199 582c-45 0 -81 35 -81 80c0 44 36 79 81 79c43 0 79 -35 79 -79c0 -45 -36 -80 -79 -80zM405 741c43 0 80 -35 80 -79c0 -45 -37 -80 -80 -80c-44 0 -81 35 -81 80c0 44 37 79 81 79zM408 230v274h139v-504h-139v58
c-36 -43 -92 -68 -160 -68c-127 0 -192 66 -192 177v337h138v-308c0 -67 42 -95 97 -95c62 0 116 33 117 129z" />
    <glyph glyph-name="uni01D9" unicode="&#x1d9;" horiz-adv-x="681" 
d="M419 941h-158l-96 131h113l62 -68l62 68h113zM237 746c-45 0 -81 36 -81 81c0 44 36 79 81 79c43 0 79 -35 79 -79c0 -45 -36 -81 -79 -81zM443 746c-44 0 -81 36 -81 81c0 44 37 79 81 79c43 0 80 -35 80 -79c0 -45 -37 -81 -80 -81zM341 -14c-160 0 -281 84 -281 265
v456h144v-437c0 -109 58 -153 137 -153c78 0 136 44 136 153v437h145v-456c0 -181 -122 -265 -281 -265z" />
    <glyph glyph-name="uni01DA" unicode="&#x1da;" horiz-adv-x="609" 
d="M476 934l-96 -142h-156l-96 142h113l61 -78l60 78h114zM199 582c-45 0 -81 35 -81 80c0 44 36 79 81 79c43 0 79 -35 79 -79c0 -45 -36 -80 -79 -80zM405 741c43 0 80 -35 80 -79c0 -45 -37 -80 -80 -80c-44 0 -81 35 -81 80c0 44 37 79 81 79zM408 230v274h139v-504
h-139v58c-36 -43 -92 -68 -160 -68c-127 0 -192 66 -192 177v337h138v-308c0 -67 42 -95 97 -95c62 0 116 33 117 129z" />
    <glyph glyph-name="uni01DB" unicode="&#x1db;" horiz-adv-x="681" 
d="M400 936h-121l-109 136h146zM237 746c-45 0 -81 36 -81 81c0 44 36 79 81 79c43 0 79 -35 79 -79c0 -45 -36 -81 -79 -81zM443 746c-44 0 -81 36 -81 81c0 44 37 79 81 79c43 0 80 -35 80 -79c0 -45 -37 -81 -80 -81zM341 -14c-160 0 -281 84 -281 265v456h144v-437
c0 -109 58 -153 137 -153c78 0 136 44 136 153v437h145v-456c0 -181 -122 -265 -281 -265z" />
    <glyph glyph-name="uni01DC" unicode="&#x1dc;" horiz-adv-x="609" 
d="M276 934l88 -142h-121l-114 142h147zM199 582c-45 0 -81 35 -81 80c0 44 36 79 81 79c43 0 79 -35 79 -79c0 -45 -36 -80 -79 -80zM324 662c0 44 37 79 81 79c43 0 80 -35 80 -79c0 -45 -37 -80 -80 -80c-44 0 -81 35 -81 80zM408 230v274h139v-504h-139v58
c-36 -43 -92 -68 -160 -68c-127 0 -192 66 -192 177v337h138v-308c0 -67 42 -95 97 -95c62 0 116 33 117 129z" />
    <glyph glyph-name="Gcaron" unicode="&#x1e6;" horiz-adv-x="788" 
d="M477 742h-158l-96 131h113l62 -68l62 68h113zM391 -14c-207 0 -354 150 -354 368s150 367 362 367c140 0 253 -65 313 -172l-126 -67c-37 67 -104 107 -187 107c-127 0 -218 -94 -218 -235c0 -140 84 -235 218 -235c94 0 173 51 197 152h-191v115h333v-386h-113v107
c-44 -71 -121 -121 -234 -121z" />
    <glyph glyph-name="gcaron" unicode="&#x1e7;" horiz-adv-x="626" 
d="M492 707l-96 -142h-156l-96 142h113l61 -78l60 78h114zM427 439v65h138v-491c0 -185 -102 -263 -262 -263c-145 0 -224 63 -260 157l116 48c29 -65 71 -98 138 -98c92 0 130 57 130 145v83c-28 -42 -88 -72 -158 -72c-127 0 -231 99 -231 252c0 152 104 249 233 249
c72 0 128 -30 156 -75zM303 124c76 0 132 59 132 141c0 81 -55 140 -132 140s-132 -59 -132 -140c0 -82 56 -141 132 -141z" />
    <glyph glyph-name="uni01EA" unicode="&#x1ea;" horiz-adv-x="798" 
d="M499 -2c-46 -34 -79 -74 -79 -103c0 -17 16 -27 39 -27c15 0 31 5 43 15v-86c-21 -8 -48 -13 -74 -13c-53 0 -98 20 -98 68c0 44 40 90 94 135c-8 -1 -17 -1 -25 -1c-212 0 -362 150 -362 368s150 367 362 367s362 -149 362 -367c0 -182 -104 -316 -262 -356zM181 354
c0 -141 91 -235 218 -235s218 94 218 235s-91 235 -218 235s-218 -94 -218 -235z" />
    <glyph glyph-name="uni01EB" unicode="&#x1eb;" horiz-adv-x="628" 
d="M397 0c-48 -34 -82 -75 -82 -105c0 -17 16 -27 39 -27c15 0 31 5 43 15v-86c-21 -8 -48 -13 -74 -13c-53 0 -98 20 -98 68c0 45 42 93 98 138h-9c-162 1 -276 100 -276 263c0 161 114 260 276 261c163 -1 277 -100 277 -261c0 -134 -77 -224 -194 -253zM176 253
c0 -91 55 -153 138 -153s138 62 138 153c0 89 -55 151 -138 151s-138 -62 -138 -151z" />
    <glyph glyph-name="Aringacute" unicode="&#x1fa;" horiz-adv-x="724" 
d="M362 735c-72 0 -131 51 -131 127s58 127 131 127c5 0 11 0 16 -1l46 76h147l-102 -127c15 -21 23 -46 23 -75c0 -76 -58 -127 -130 -127zM362 925c-35 0 -62 -26 -62 -63s27 -63 62 -63s64 26 64 63s-28 63 -64 63zM716 0h-153l-53 148h-295l-53 -148h-154l265 707h179z
M363 560l-105 -293h209z" />
    <glyph glyph-name="aringacute" unicode="&#x1fb;" horiz-adv-x="562" 
d="M286 558c-76 0 -124 55 -124 121c0 65 48 120 124 120c6 0 12 0 18 -1l50 81h147l-110 -137c11 -18 17 -40 17 -63c0 -66 -48 -121 -122 -121zM286 733c-31 0 -54 -21 -54 -54c0 -31 24 -54 54 -54s54 23 54 54c0 33 -24 54 -54 54zM504 329v-238c0 -30 0 -57 9 -78v-13
h-137l-6 69c-34 -53 -103 -79 -169 -79c-81 0 -164 36 -164 137c0 112 100 147 190 166l92 21c26 6 46 13 46 37c0 46 -42 65 -88 65c-56 0 -93 -26 -104 -77l-133 20c22 107 112 155 239 155c146 0 225 -65 225 -185zM242 86c66 0 131 53 131 157l-124 -32
c-39 -8 -74 -26 -74 -69c0 -37 28 -56 67 -56z" />
    <glyph glyph-name="AEacute" unicode="&#x1fc;" horiz-adv-x="905" 
d="M516 737h-121l83 136h147zM162 0h-154l265 707h587v-127h-275v-163h238v-127h-238v-163h275v-127h-420v148h-225zM370 580l-114 -313h184v313h-70z" />
    <glyph glyph-name="aeacute" unicode="&#x1fd;" horiz-adv-x="914" 
d="M482 707h147l-114 -142h-121zM872 256l-2 -32h-383c7 -81 62 -125 134 -125c53 0 93 23 112 69l128 -17c-33 -103 -124 -161 -240 -161c-94 0 -169 32 -216 90c-51 -61 -124 -90 -201 -90c-91 0 -164 39 -164 136c0 109 94 143 195 164l80 16c34 8 46 21 46 41
c0 53 -43 73 -91 73c-57 0 -95 -24 -102 -89l-124 19c20 113 94 163 236 163c62 0 124 -11 163 -53c45 35 105 54 174 54c145 0 254 -83 255 -258zM618 412c-69 0 -115 -35 -128 -103h245c-8 65 -55 103 -117 103zM242 97c43 0 97 22 118 73c-5 19 -8 39 -9 60l-95 -22
c-53 -11 -80 -30 -80 -62c0 -31 26 -49 66 -49z" />
    <glyph glyph-name="Oslashacute" unicode="&#x1fe;" horiz-adv-x="798" 
d="M422 873h147l-109 -136h-121zM697 727l-60 -87c77 -65 124 -165 124 -286c0 -218 -150 -368 -362 -368c-70 0 -133 16 -186 46l-58 -83l-53 32l60 86c-78 65 -125 165 -125 287c0 218 150 367 362 367c70 0 133 -16 187 -46l58 84zM181 354c0 -71 23 -130 62 -171
l264 379c-31 18 -68 27 -108 27c-127 0 -218 -94 -218 -235zM399 119c127 0 218 94 218 235c0 70 -23 129 -61 170l-264 -379c31 -17 67 -26 107 -26z" />
    <glyph glyph-name="oslashacute" unicode="&#x1ff;" horiz-adv-x="628" 
d="M342 707h147l-114 -142h-121zM539 518l-42 -60c59 -45 94 -116 94 -205c0 -163 -114 -262 -277 -263c-47 0 -89 9 -126 24l-43 -61l-53 33l41 60c-59 45 -95 116 -95 207c0 161 114 260 276 261c47 0 91 -9 128 -25l43 62zM176 253c0 -41 11 -76 31 -102l167 240
c-18 9 -38 13 -60 13c-83 0 -138 -62 -138 -151zM314 100c83 0 138 62 138 153c0 39 -11 73 -29 98l-167 -239c17 -8 37 -12 58 -12z" />
    <glyph glyph-name="uni0218" unicode="&#x218;" horiz-adv-x="612" 
d="M307 -14c-152 0 -272 76 -293 211l143 30c21 -85 75 -122 152 -122c72 0 113 33 113 87c0 63 -71 84 -152 107c-106 31 -231 69 -231 213c0 126 102 209 250 209c126 0 248 -53 279 -190l-130 -30c-24 70 -67 102 -140 102c-67 0 -113 -32 -113 -83c0 -57 66 -74 143 -94
c109 -30 244 -68 244 -224c0 -130 -104 -216 -265 -216zM244 -173h-98l96 143h117z" />
    <glyph glyph-name="uni0219" unicode="&#x219;" horiz-adv-x="513" 
d="M268 -10c-118 0 -213 47 -231 142l115 32c16 -54 59 -74 111 -74c42 0 76 16 76 51c0 43 -53 56 -111 67c-107 20 -179 53 -179 149c0 99 81 157 203 157c97 0 186 -38 210 -130l-121 -27c-16 41 -48 58 -94 58c-43 0 -72 -16 -72 -45c0 -33 50 -45 109 -58
c117 -25 188 -55 188 -158c0 -115 -97 -164 -204 -164zM208 -173h-98l96 143h117z" />
    <glyph glyph-name="uni021A" unicode="&#x21a;" horiz-adv-x="508" 
d="M11 707h485v-126h-170v-581h-144v581h-171v126zM198 -173h-98l96 143h117z" />
    <glyph glyph-name="uni021B" unicode="&#x21b;" horiz-adv-x="403" 
d="M366 0h-93c-99 0 -155 58 -155 159v239h-99v106h39c46 0 77 18 77 90v72h122v-162h109v-106h-109v-219c0 -48 25 -69 64 -69h45v-110zM184 -173h-98l96 143h117z" />
    <glyph glyph-name="uni0232" unicode="&#x232;" horiz-adv-x="622" 
d="M149 864h325v-89h-325v89zM462 707h158l-236 -371v-336h-145v334l-238 373h159l151 -247z" />
    <glyph glyph-name="uni0233" unicode="&#x233;" horiz-adv-x="582" 
d="M158 677h275v-89h-275v89zM291 165l126 339h151l-317 -747h-151l119 268l-205 479h150z" />
    <glyph glyph-name="uni0237" unicode="&#x237;" horiz-adv-x="257" 
d="M-54 -243v107c92 0 111 41 111 145v495h138v-495c0 -170 -69 -252 -249 -252z" />
    <glyph glyph-name="uni0272" unicode="&#x272;" horiz-adv-x="604" 
d="M355 514c127 0 192 -65 192 -177v-337h-139v308c0 67 -41 96 -96 96c-62 0 -117 -34 -117 -130v-265c0 -170 -69 -252 -249 -252v107c92 0 111 41 111 145v495h138v-57c36 42 91 67 160 67z" />
    <glyph glyph-name="circumflex" unicode="&#x2c6;" horiz-adv-x="483" 
d="M181 565h-113l96 142h156l96 -142h-114l-60 78z" />
    <glyph glyph-name="caron" unicode="&#x2c7;" horiz-adv-x="483" 
d="M320 565h-156l-96 142h113l61 -78l60 78h114z" />
    <glyph glyph-name="breve" unicode="&#x2d8;" horiz-adv-x="494" 
d="M246 555c-107 0 -178 42 -178 152h98c0 -50 27 -80 80 -80c55 0 81 30 81 80h99c0 -110 -71 -152 -180 -152z" />
    <glyph glyph-name="dotaccent" unicode="&#x2d9;" horiz-adv-x="296" 
d="M149 582c-45 0 -81 35 -81 80c0 44 36 79 81 79c43 0 79 -35 79 -79c0 -45 -36 -80 -79 -80z" />
    <glyph glyph-name="ring" unicode="&#x2da;" horiz-adv-x="382" 
d="M192 558c-76 0 -124 55 -124 121c0 65 48 120 124 120c75 0 122 -55 122 -120c0 -66 -48 -121 -122 -121zM192 625c30 0 54 23 54 54c0 33 -24 54 -54 54c-31 0 -54 -21 -54 -54c0 -31 24 -54 54 -54z" />
    <glyph glyph-name="ogonek" unicode="&#x2db;" horiz-adv-x="308" 
d="M166 -216c-53 0 -98 20 -98 68c0 54 62 113 134 166l38 -18c-48 -34 -82 -75 -82 -105c0 -17 16 -27 39 -27c15 0 31 5 43 15v-86c-21 -8 -48 -13 -74 -13z" />
    <glyph glyph-name="tilde" unicode="&#x2dc;" horiz-adv-x="469" 
d="M295 558c-47 0 -69 24 -85 44c-13 15 -24 28 -43 28c-23 0 -32 -30 -32 -65h-67c0 81 40 140 106 140c46 0 69 -24 87 -44c12 -16 23 -28 43 -28c22 0 30 28 30 65h68c0 -79 -38 -140 -107 -140z" />
    <glyph glyph-name="hungarumlaut" unicode="&#x2dd;" horiz-adv-x="565" 
d="M189 565h-121l96 142h139zM383 565h-121l96 142h139z" />
    <glyph glyph-name="gravecomb" unicode="&#x300;" 
d="M-68 565h-121l-114 142h147z" />
    <glyph glyph-name="acutecomb" unicode="&#x301;" 
d="M-182 565h-121l88 142h147z" />
    <glyph glyph-name="uni0302" unicode="&#x302;" 
d="M-302 565h-113l96 142h156l96 -142h-114l-60 78z" />
    <glyph glyph-name="tildecomb" unicode="&#x303;" 
d="M-174 558c-47 0 -69 24 -85 44c-13 15 -24 28 -43 28c-23 0 -32 -30 -32 -65h-67c0 81 40 140 106 140c46 0 69 -24 87 -44c12 -16 23 -28 43 -28c22 0 30 28 30 65h68c0 -79 -38 -140 -107 -140z" />
    <glyph glyph-name="uni0304" unicode="&#x304;" 
d="M-67 588h-275v89h275v-89z" />
    <glyph glyph-name="uni0306" unicode="&#x306;" 
d="M-248 555c-107 0 -178 42 -178 152h98c0 -50 27 -80 80 -80c55 0 81 30 81 80h99c0 -110 -71 -152 -180 -152z" />
    <glyph glyph-name="uni0307" unicode="&#x307;" 
d="M-147 582c-45 0 -81 35 -81 80c0 44 36 79 81 79c43 0 79 -35 79 -79c0 -45 -36 -80 -79 -80z" />
    <glyph glyph-name="uni0308" unicode="&#x308;" 
d="M-353 582c-45 0 -81 35 -81 80c0 44 36 79 81 79c43 0 79 -35 79 -79c0 -45 -36 -80 -79 -80zM-147 582c-44 0 -81 35 -81 80c0 44 37 79 81 79c43 0 80 -35 80 -79c0 -45 -37 -80 -80 -80z" />
    <glyph glyph-name="hookabovecomb" unicode="&#x309;" 
d="M-148 541h-99v58c57 7 79 22 79 45c0 19 -16 32 -45 32c-17 0 -37 -6 -64 -20l-35 56c38 18 73 29 118 29c85 0 127 -33 127 -83c0 -48 -39 -67 -81 -77v-40z" />
    <glyph glyph-name="uni030A" unicode="&#x30a;" 
d="M-190 558c-76 0 -124 55 -124 121c0 65 48 120 124 120c75 0 122 -55 122 -120c0 -66 -48 -121 -122 -121zM-190 625c30 0 54 23 54 54c0 33 -24 54 -54 54c-31 0 -54 -21 -54 -54c0 -31 24 -54 54 -54z" />
    <glyph glyph-name="uni030B" unicode="&#x30b;" 
d="M-376 565h-121l96 142h139zM-182 565h-121l96 142h139z" />
    <glyph glyph-name="uni030C" unicode="&#x30c;" 
d="M-163 565h-156l-96 142h113l61 -78l60 78h114z" />
    <glyph glyph-name="uni0312" unicode="&#x312;" 
d="M-163 565h-117l114 142h99z" />
    <glyph glyph-name="uni031B" unicode="&#x31b;" 
d="M-183 375c-29 0 -64 11 -97 31l22 48c21 -12 38 -16 51 -16c36 0 45 14 45 65v63h95v-78c0 -95 -69 -113 -116 -113z" />
    <glyph glyph-name="dotbelowcomb" unicode="&#x323;" 
d="M-147 -222c-45 0 -81 35 -81 80c0 44 36 80 81 80c43 0 79 -36 79 -80c0 -45 -36 -80 -79 -80z" />
    <glyph glyph-name="uni0326" unicode="&#x326;" 
d="M-182 -173h-98l96 143h117z" />
    <glyph glyph-name="uni0327" unicode="&#x327;" 
d="M-157 -54c55 0 90 -36 90 -88c0 -58 -46 -103 -112 -103c-69 0 -107 30 -120 69l76 21c7 -19 24 -27 41 -27c23 0 43 14 43 40s-19 39 -42 39c-14 0 -28 -5 -36 -16l-65 28l76 129l67 -25l-45 -70c10 2 18 3 27 3z" />
    <glyph glyph-name="uni0328" unicode="&#x328;" 
d="M-142 -216c-53 0 -98 20 -98 68c0 54 62 113 134 166l38 -18c-48 -34 -82 -75 -82 -105c0 -17 16 -27 39 -27c15 0 31 5 43 15v-86c-21 -8 -48 -13 -74 -13z" />
    <glyph glyph-name="uni0335" unicode="&#x335;" 
d="M-67 209h-340v85h340v-85z" />
    <glyph glyph-name="uni0336" unicode="&#x336;" 
d="M-68 233h-742v54h742v-54z" />
    <glyph glyph-name="uni0337" unicode="&#x337;" 
d="M-67 360l-314 -233v116l314 233v-116z" />
    <glyph glyph-name="uni0338" unicode="&#x338;" 
d="M-67 635l-394 -564l-53 32l393 565z" />
    <glyph glyph-name="uni0394" unicode="&#x394;" horiz-adv-x="806" 
d="M325 750h156l301 -750h-758zM590 130l-186 481l-187 -481h373z" />
    <glyph glyph-name="uni03A9" unicode="&#x3a9;" horiz-adv-x="848" 
d="M371 0h-316v120h126v5c-54 49 -117 151 -117 271c0 174 143 340 360 340c215 0 360 -163 360 -342c0 -118 -63 -220 -117 -269v-5h127v-120h-317v98c80 62 151 139 151 267c0 140 -87 234 -204 234c-116 0 -203 -94 -203 -234c0 -128 70 -205 150 -267v-98z" />
    <glyph glyph-name="uni03BC" unicode="&#x3bc;" horiz-adv-x="608" 
d="M407 230v274h139v-504h-131l-6 61c-35 -45 -92 -71 -162 -71c-19 0 -37 1 -53 4v-237h-138v747h138v-308c0 -67 41 -95 96 -95c62 0 117 33 117 129z" />
    <glyph glyph-name="pi" unicode="&#x3c0;" horiz-adv-x="645" 
d="M198 0h-127c44 121 65 303 65 405l-110 -4l-12 103h616v-99h-88v-262c0 -57 5 -108 14 -143h-126c-15 27 -18 82 -18 138v267h-148c-3 -111 -20 -299 -66 -405z" />
    <glyph glyph-name="Wgrave" unicode="&#x1e80;" horiz-adv-x="1057" 
d="M505 873l84 -136h-121l-109 136h146zM750 154l142 553h150l-184 -707h-193l-137 445l-136 -445h-193l-184 707h150l141 -552l160 552h125z" />
    <glyph glyph-name="wgrave" unicode="&#x1e81;" horiz-adv-x="890" 
d="M419 707l88 -142h-121l-114 142h147zM620 166l107 338h147l-177 -504h-142l-110 332l-109 -332h-143l-177 504h147l107 -336l119 336h112z" />
    <glyph glyph-name="Wacute" unicode="&#x1e82;" horiz-adv-x="1057" 
d="M551 873h147l-109 -136h-121zM750 154l142 553h150l-184 -707h-193l-137 445l-136 -445h-193l-184 707h150l141 -552l160 552h125z" />
    <glyph glyph-name="wacute" unicode="&#x1e83;" horiz-adv-x="890" 
d="M471 707h147l-114 -142h-121zM620 166l107 338h147l-177 -504h-142l-110 332l-109 -332h-143l-177 504h147l107 -336l119 336h112z" />
    <glyph glyph-name="Wdieresis" unicode="&#x1e84;" horiz-adv-x="1057" 
d="M426 746c-45 0 -81 36 -81 81c0 44 36 79 81 79c43 0 79 -35 79 -79c0 -45 -36 -81 -79 -81zM632 746c-44 0 -81 36 -81 81c0 44 37 79 81 79c43 0 80 -35 80 -79c0 -45 -37 -81 -80 -81zM750 154l142 553h150l-184 -707h-193l-137 445l-136 -445h-193l-184 707h150
l141 -552l160 552h125z" />
    <glyph glyph-name="wdieresis" unicode="&#x1e85;" horiz-adv-x="890" 
d="M343 582c-45 0 -81 35 -81 80c0 44 36 79 81 79c43 0 79 -35 79 -79c0 -45 -36 -80 -79 -80zM549 582c-44 0 -81 35 -81 80c0 44 37 79 81 79c43 0 80 -35 80 -79c0 -45 -37 -80 -80 -80zM620 166l107 338h147l-177 -504h-142l-110 332l-109 -332h-143l-177 504h147
l107 -336l119 336h112z" />
    <glyph glyph-name="uni1E9E" unicode="&#x1e9e;" horiz-adv-x="748" 
d="M511 401l3 -1c101 -28 194 -80 194 -198c0 -130 -99 -216 -245 -216c-78 0 -135 13 -183 38l74 110c28 -17 60 -29 106 -29c64 0 103 33 103 87c0 72 -76 91 -166 117l-78 24l150 248h-257v-581h-144v707h572v-108z" />
    <glyph glyph-name="uni1EA0" unicode="&#x1ea0;" horiz-adv-x="724" 
d="M452 707l264 -707h-153l-53 148h-295l-53 -148h-154l265 707h179zM363 560l-105 -293h209zM364 -62c43 0 79 -36 79 -80c0 -45 -36 -80 -79 -80c-45 0 -81 35 -81 80c0 44 36 80 81 80z" />
    <glyph glyph-name="uni1EA1" unicode="&#x1ea1;" horiz-adv-x="562" 
d="M504 329v-238c0 -30 0 -57 9 -78v-13h-137l-6 69c-34 -53 -103 -79 -169 -79c-81 0 -164 36 -164 137c0 112 100 147 190 166l92 21c26 6 46 13 46 37c0 46 -42 65 -88 65c-56 0 -93 -26 -104 -77l-133 20c22 107 112 155 239 155c146 0 225 -65 225 -185zM242 86
c66 0 131 53 131 157l-124 -32c-39 -8 -74 -26 -74 -69c0 -37 28 -56 67 -56zM313 -62c43 0 79 -36 79 -80c0 -45 -36 -80 -79 -80c-45 0 -81 35 -81 80c0 44 36 80 81 80z" />
    <glyph glyph-name="uni1EA2" unicode="&#x1ea2;" horiz-adv-x="724" 
d="M355 880c-18 0 -38 -6 -57 -20l-35 48c31 18 58 30 103 30c77 0 119 -33 119 -84c0 -48 -38 -66 -81 -76v-41h-84v66c58 7 79 22 79 45c0 19 -15 32 -44 32zM716 0h-153l-53 148h-295l-53 -148h-154l265 707h179zM363 560l-105 -293h209z" />
    <glyph glyph-name="uni1EA3" unicode="&#x1ea3;" horiz-adv-x="562" 
d="M270 676c-17 0 -37 -6 -64 -20l-35 56c38 18 73 29 118 29c85 0 127 -33 127 -83c0 -48 -39 -67 -81 -77v-40h-99v58c57 7 79 22 79 45c0 19 -16 32 -45 32zM504 329v-238c0 -30 0 -57 9 -78v-13h-137l-6 69c-34 -53 -103 -79 -169 -79c-81 0 -164 36 -164 137
c0 112 100 147 190 166l92 21c26 6 46 13 46 37c0 46 -42 65 -88 65c-56 0 -93 -26 -104 -77l-133 20c22 107 112 155 239 155c146 0 225 -65 225 -185zM242 86c66 0 131 53 131 157l-124 -32c-39 -8 -74 -26 -74 -69c0 -37 28 -56 67 -56z" />
    <glyph glyph-name="uni1EA4" unicode="&#x1ea4;" horiz-adv-x="724" 
d="M425 742l-62 68l-62 -68h-113l96 131h158l11 -15l50 81h147l-110 -135h-47l45 -62h-113zM716 0h-153l-53 148h-295l-53 -148h-154l265 707h179zM363 560l-105 -293h209z" />
    <glyph glyph-name="uni1EA5" unicode="&#x1ea5;" horiz-adv-x="562" 
d="M346 565l-60 78l-61 -78h-113l96 142h156l15 -22l57 93h148l-115 -142h-57l48 -71h-114zM504 329v-238c0 -30 0 -57 9 -78v-13h-137l-6 69c-34 -53 -103 -79 -169 -79c-81 0 -164 36 -164 137c0 112 100 147 190 166l92 21c26 6 46 13 46 37c0 46 -42 65 -88 65
c-56 0 -93 -26 -104 -77l-133 20c22 107 112 155 239 155c146 0 225 -65 225 -185zM242 86c66 0 131 53 131 157l-124 -32c-39 -8 -74 -26 -74 -69c0 -37 28 -56 67 -56z" />
    <glyph glyph-name="uni1EA6" unicode="&#x1ea6;" horiz-adv-x="724" 
d="M569 939l83 -135h-121l-109 135h147zM425 742l-62 68l-62 -68h-113l96 131h158l96 -131h-113zM716 0h-153l-53 148h-295l-53 -148h-154l265 707h179zM363 560l-105 -293h209z" />
    <glyph glyph-name="uni1EA7" unicode="&#x1ea7;" horiz-adv-x="562" 
d="M497 778l88 -142h-121l-115 142h148zM346 565l-60 78l-61 -78h-113l96 142h156l96 -142h-114zM504 329v-238c0 -30 0 -57 9 -78v-13h-137l-6 69c-34 -53 -103 -79 -169 -79c-81 0 -164 36 -164 137c0 112 100 147 190 166l92 21c26 6 46 13 46 37c0 46 -42 65 -88 65
c-56 0 -93 -26 -104 -77l-133 20c22 107 112 155 239 155c146 0 225 -65 225 -185zM242 86c66 0 131 53 131 157l-124 -32c-39 -8 -74 -26 -74 -69c0 -37 28 -56 67 -56z" />
    <glyph glyph-name="uni1EA8" unicode="&#x1ea8;" horiz-adv-x="724" 
d="M544 944c-17 0 -37 -5 -56 -19l-36 48c31 18 59 30 104 30c77 0 119 -34 119 -84c0 -48 -39 -66 -81 -76v-41h-84v66c57 7 79 22 79 44c0 20 -16 32 -45 32zM425 742l-62 68l-62 -68h-113l96 131h158l96 -131h-113zM716 0h-153l-53 148h-295l-53 -148h-154l265 707h179z
M363 560l-105 -293h209z" />
    <glyph glyph-name="uni1EA9" unicode="&#x1ea9;" horiz-adv-x="562" 
d="M471 836c85 0 127 -33 127 -83c0 -49 -38 -67 -81 -77v-40h-99v58c58 7 79 22 79 44c0 20 -15 32 -44 32c-18 0 -38 -5 -65 -19l-35 55c38 19 74 30 118 30zM346 565l-60 78l-61 -78h-113l96 142h156l96 -142h-114zM504 329v-238c0 -30 0 -57 9 -78v-13h-137l-6 69
c-34 -53 -103 -79 -169 -79c-81 0 -164 36 -164 137c0 112 100 147 190 166l92 21c26 6 46 13 46 37c0 46 -42 65 -88 65c-56 0 -93 -26 -104 -77l-133 20c22 107 112 155 239 155c146 0 225 -65 225 -185zM242 86c66 0 131 53 131 157l-124 -32c-39 -8 -74 -26 -74 -69
c0 -37 28 -56 67 -56z" />
    <glyph glyph-name="uni1EAA" unicode="&#x1eaa;" horiz-adv-x="724" 
d="M294 959c-23 0 -32 -29 -32 -64h-67c0 81 40 140 106 140c47 0 70 -24 87 -45c12 -15 23 -28 43 -28c22 0 30 29 30 66h68c0 -79 -38 -140 -106 -140c-48 0 -69 24 -86 44c-12 15 -23 27 -43 27zM424 742l-62 68l-62 -68h-113l96 131h158l97 -131h-114zM716 0h-153
l-53 148h-295l-53 -148h-154l265 707h179zM363 560l-105 -293h209z" />
    <glyph glyph-name="uni1EAB" unicode="&#x1eab;" horiz-adv-x="562" 
d="M218 808c-23 0 -32 -29 -32 -65h-67c0 82 40 141 106 141c47 0 70 -25 87 -45c12 -15 23 -28 43 -28c22 0 30 28 30 66h68c0 -79 -38 -141 -106 -141c-48 0 -69 25 -86 45c-12 15 -23 27 -43 27zM347 565l-61 78l-60 -78h-114l96 142h156l96 -142h-113zM504 329v-238
c0 -30 0 -57 9 -78v-13h-137l-6 69c-34 -53 -103 -79 -169 -79c-81 0 -164 36 -164 137c0 112 100 147 190 166l92 21c26 6 46 13 46 37c0 46 -42 65 -88 65c-56 0 -93 -26 -104 -77l-133 20c22 107 112 155 239 155c146 0 225 -65 225 -185zM242 86c66 0 131 53 131 157
l-124 -32c-39 -8 -74 -26 -74 -69c0 -37 28 -56 67 -56z" />
    <glyph glyph-name="uni1EAC" unicode="&#x1eac;" horiz-adv-x="724" 
d="M425 742l-62 68l-62 -68h-113l96 131h158l96 -131h-113zM452 707l264 -707h-153l-53 148h-295l-53 -148h-154l265 707h179zM363 560l-105 -293h209zM364 -62c43 0 79 -36 79 -80c0 -45 -36 -80 -79 -80c-45 0 -81 35 -81 80c0 44 36 80 81 80z" />
    <glyph glyph-name="uni1EAD" unicode="&#x1ead;" horiz-adv-x="562" 
d="M346 565l-60 78l-61 -78h-113l96 142h156l96 -142h-114zM504 329v-238c0 -30 0 -57 9 -78v-13h-137l-6 69c-34 -53 -103 -79 -169 -79c-81 0 -164 36 -164 137c0 112 100 147 190 166l92 21c26 6 46 13 46 37c0 46 -42 65 -88 65c-56 0 -93 -26 -104 -77l-133 20
c22 107 112 155 239 155c146 0 225 -65 225 -185zM242 86c66 0 131 53 131 157l-124 -32c-39 -8 -74 -26 -74 -69c0 -37 28 -56 67 -56zM313 -62c43 0 79 -36 79 -80c0 -45 -36 -80 -79 -80c-45 0 -81 35 -81 80c0 44 36 80 81 80z" />
    <glyph glyph-name="uni1EAE" unicode="&#x1eae;" horiz-adv-x="724" 
d="M386 1023h146l-109 -135h-121zM361 740c-104 0 -174 28 -177 133h87c4 -46 32 -64 90 -64c60 0 88 18 92 64h87c-4 -105 -74 -133 -179 -133zM716 0h-153l-53 148h-295l-53 -148h-154l265 707h179zM363 560l-105 -293h209z" />
    <glyph glyph-name="uni1EAF" unicode="&#x1eaf;" horiz-adv-x="562" 
d="M312 863h148l-115 -143h-121zM285 555c-107 0 -178 42 -178 152h98c0 -50 27 -80 80 -80c55 0 81 30 81 80h99c0 -110 -71 -152 -180 -152zM504 329v-238c0 -30 0 -57 9 -78v-13h-137l-6 69c-34 -53 -103 -79 -169 -79c-81 0 -164 36 -164 137c0 112 100 147 190 166
l92 21c26 6 46 13 46 37c0 46 -42 65 -88 65c-56 0 -93 -26 -104 -77l-133 20c22 107 112 155 239 155c146 0 225 -65 225 -185zM242 86c66 0 131 53 131 157l-124 -32c-39 -8 -74 -26 -74 -69c0 -37 28 -56 67 -56z" />
    <glyph glyph-name="uni1EB0" unicode="&#x1eb0;" horiz-adv-x="724" 
d="M340 1023l84 -135h-121l-110 135h147zM362 740c-104 0 -174 28 -178 133h88c3 -46 32 -64 90 -64c60 0 88 18 91 64h88c-4 -105 -74 -133 -179 -133zM716 0h-153l-53 148h-295l-53 -148h-154l265 707h179zM363 560l-105 -293h209z" />
    <glyph glyph-name="uni1EB1" unicode="&#x1eb1;" horiz-adv-x="562" 
d="M261 863l89 -143h-121l-115 143h147zM286 555c-107 0 -179 42 -179 152h99c0 -50 26 -80 80 -80c55 0 81 30 81 80h99c0 -110 -72 -152 -180 -152zM504 329v-238c0 -30 0 -57 9 -78v-13h-137l-6 69c-34 -53 -103 -79 -169 -79c-81 0 -164 36 -164 137
c0 112 100 147 190 166l92 21c26 6 46 13 46 37c0 46 -42 65 -88 65c-56 0 -93 -26 -104 -77l-133 20c22 107 112 155 239 155c146 0 225 -65 225 -185zM242 86c66 0 131 53 131 157l-124 -32c-39 -8 -74 -26 -74 -69c0 -37 28 -56 67 -56z" />
    <glyph glyph-name="uni1EB2" unicode="&#x1eb2;" horiz-adv-x="724" 
d="M355 1005c-18 0 -38 -5 -57 -20l-36 48c31 19 59 30 104 30c77 0 119 -33 119 -83c0 -49 -38 -67 -81 -77v-40h-84v65c58 7 79 23 79 45c0 19 -15 32 -44 32zM361 740c-104 0 -174 28 -177 133h87c4 -46 32 -64 90 -64c60 0 88 18 92 64h87c-4 -105 -74 -133 -179 -133z
M716 0h-153l-53 148h-295l-53 -148h-154l265 707h179zM363 560l-105 -293h209z" />
    <glyph glyph-name="uni1EB3" unicode="&#x1eb3;" horiz-adv-x="562" 
d="M279 820c-18 0 -38 -5 -57 -19l-36 48c31 18 59 29 104 29c77 0 119 -33 119 -83c0 -48 -38 -67 -81 -77v-25h-84v50c58 7 79 23 79 45c0 20 -15 32 -44 32zM285 555c-107 0 -178 42 -178 152h98c0 -50 27 -80 80 -80c55 0 81 30 81 80h99c0 -110 -71 -152 -180 -152z
M504 329v-238c0 -30 0 -57 9 -78v-13h-137l-6 69c-34 -53 -103 -79 -169 -79c-81 0 -164 36 -164 137c0 112 100 147 190 166l92 21c26 6 46 13 46 37c0 46 -42 65 -88 65c-56 0 -93 -26 -104 -77l-133 20c22 107 112 155 239 155c146 0 225 -65 225 -185zM242 86
c66 0 131 53 131 157l-124 -32c-39 -8 -74 -26 -74 -69c0 -37 28 -56 67 -56z" />
    <glyph glyph-name="uni1EB4" unicode="&#x1eb4;" horiz-adv-x="724" 
d="M294 974c-23 0 -32 -29 -32 -64h-67c0 81 41 140 107 140c46 0 69 -24 86 -45c13 -15 24 -28 43 -28c23 0 30 29 30 66h68c0 -79 -37 -140 -106 -140c-48 0 -69 24 -85 44c-13 15 -24 27 -44 27zM362 740c-104 0 -175 28 -178 133h87c4 -46 32 -64 91 -64s87 18 91 64h87
c-3 -105 -74 -133 -178 -133zM716 0h-153l-53 148h-295l-53 -148h-154l265 707h179zM363 560l-105 -293h209z" />
    <glyph glyph-name="uni1EB5" unicode="&#x1eb5;" horiz-adv-x="562" 
d="M218 833c-23 0 -32 -29 -32 -65h-67c0 82 41 141 107 141c46 0 69 -25 86 -45c13 -15 24 -28 43 -28c23 0 30 28 30 66h68c0 -79 -37 -141 -106 -141c-48 0 -69 25 -85 45c-13 15 -24 27 -44 27zM286 555c-108 0 -179 42 -179 152h99c0 -50 26 -80 80 -80s81 30 81 80h98
c0 -110 -71 -152 -179 -152zM504 329v-238c0 -30 0 -57 9 -78v-13h-137l-6 69c-34 -53 -103 -79 -169 -79c-81 0 -164 36 -164 137c0 112 100 147 190 166l92 21c26 6 46 13 46 37c0 46 -42 65 -88 65c-56 0 -93 -26 -104 -77l-133 20c22 107 112 155 239 155
c146 0 225 -65 225 -185zM242 86c66 0 131 53 131 157l-124 -32c-39 -8 -74 -26 -74 -69c0 -37 28 -56 67 -56z" />
    <glyph glyph-name="uni1EB6" unicode="&#x1eb6;" horiz-adv-x="724" 
d="M361 740c-104 0 -174 28 -177 133h87c4 -46 32 -64 90 -64c60 0 88 18 92 64h87c-4 -105 -74 -133 -179 -133zM452 707l264 -707h-153l-53 148h-295l-53 -148h-154l265 707h179zM363 560l-105 -293h209zM364 -62c43 0 79 -36 79 -80c0 -45 -36 -80 -79 -80
c-45 0 -81 35 -81 80c0 44 36 80 81 80z" />
    <glyph glyph-name="uni1EB7" unicode="&#x1eb7;" horiz-adv-x="562" 
d="M285 555c-107 0 -178 42 -178 152h98c0 -50 27 -80 80 -80c55 0 81 30 81 80h99c0 -110 -71 -152 -180 -152zM504 329v-238c0 -30 0 -57 9 -78v-13h-137l-6 69c-34 -53 -103 -79 -169 -79c-81 0 -164 36 -164 137c0 112 100 147 190 166l92 21c26 6 46 13 46 37
c0 46 -42 65 -88 65c-56 0 -93 -26 -104 -77l-133 20c22 107 112 155 239 155c146 0 225 -65 225 -185zM242 86c66 0 131 53 131 157l-124 -32c-39 -8 -74 -26 -74 -69c0 -37 28 -56 67 -56zM313 -62c43 0 79 -36 79 -80c0 -45 -36 -80 -79 -80c-45 0 -81 35 -81 80
c0 44 36 80 81 80z" />
    <glyph glyph-name="uni1EB8" unicode="&#x1eb8;" horiz-adv-x="525" 
d="M480 707v-126h-268v-165h239v-125h-239v-164h268v-127h-412v707h412zM281 -62c43 0 79 -36 79 -80c0 -45 -36 -80 -79 -80c-45 0 -81 35 -81 80c0 44 36 80 81 80z" />
    <glyph glyph-name="uni1EB9" unicode="&#x1eb9;" horiz-adv-x="594" 
d="M557 256l-1 -32h-383c7 -81 62 -125 133 -125c53 0 94 23 113 69l128 -17c-33 -103 -125 -161 -240 -161c-165 0 -271 99 -271 262s109 262 267 262c145 0 254 -83 254 -258zM303 412c-69 0 -114 -35 -127 -103h244c-7 65 -54 103 -117 103zM314 -63c43 0 79 -36 79 -80
c0 -45 -36 -80 -79 -80c-45 0 -81 35 -81 80c0 44 36 80 81 80z" />
    <glyph glyph-name="uni1EBA" unicode="&#x1eba;" horiz-adv-x="525" 
d="M272 880c-18 0 -38 -6 -57 -20l-35 48c31 18 58 30 103 30c77 0 119 -33 119 -84c0 -48 -38 -66 -81 -76v-41h-84v66c58 7 79 22 79 45c0 19 -15 32 -44 32zM480 707v-126h-268v-165h239v-125h-239v-164h268v-127h-412v707h412z" />
    <glyph glyph-name="uni1EBB" unicode="&#x1ebb;" horiz-adv-x="594" 
d="M291 677c-17 0 -37 -6 -64 -20l-35 56c38 18 73 29 118 29c85 0 127 -33 127 -83c0 -48 -39 -67 -81 -77v-40h-99v58c57 7 79 22 79 45c0 19 -16 32 -45 32zM557 256l-1 -32h-383c7 -81 62 -125 133 -125c53 0 94 23 113 69l128 -17c-33 -103 -125 -161 -240 -161
c-165 0 -271 99 -271 262s109 262 267 262c145 0 254 -83 254 -258zM303 412c-69 0 -114 -35 -127 -103h244c-7 65 -54 103 -117 103z" />
    <glyph glyph-name="uni1EBC" unicode="&#x1ebc;" horiz-adv-x="525" 
d="M211 809c-23 0 -32 -29 -32 -65h-67c0 82 40 141 106 141c46 0 69 -25 87 -45c12 -15 23 -28 43 -28c22 0 30 28 30 66h68c0 -79 -38 -141 -107 -141c-47 0 -69 25 -85 45c-13 15 -24 27 -43 27zM480 707v-126h-268v-165h239v-125h-239v-164h268v-127h-412v707h412z" />
    <glyph glyph-name="uni1EBD" unicode="&#x1ebd;" horiz-adv-x="594" 
d="M238 631c-23 0 -32 -30 -32 -65h-67c0 81 40 140 106 140c46 0 69 -24 87 -44c12 -16 23 -28 43 -28c22 0 30 28 30 65h68c0 -79 -38 -140 -107 -140c-47 0 -69 24 -85 44c-13 15 -24 28 -43 28zM557 256l-1 -32h-383c7 -81 62 -125 133 -125c53 0 94 23 113 69l128 -17
c-33 -103 -125 -161 -240 -161c-165 0 -271 99 -271 262s109 262 267 262c145 0 254 -83 254 -258zM303 412c-69 0 -114 -35 -127 -103h244c-7 65 -54 103 -117 103z" />
    <glyph glyph-name="uni1EBE" unicode="&#x1ebe;" horiz-adv-x="525" 
d="M341 742l-62 68l-62 -68h-113l96 131h158l11 -15l50 81h147l-110 -135h-47l45 -62h-113zM480 0h-412v707h412v-126h-268v-165h239v-125h-239v-164h268v-127z" />
    <glyph glyph-name="uni1EBF" unicode="&#x1ebf;" horiz-adv-x="594" 
d="M367 566l-60 78l-61 -78h-113l96 142h156l15 -22l57 93h148l-115 -142h-57l48 -71h-114zM303 514c145 0 254 -83 254 -258l-1 -32h-383c7 -81 62 -125 133 -125c53 0 94 23 113 69l128 -17c-33 -103 -125 -161 -240 -161c-165 0 -271 99 -271 262s109 262 267 262z
M303 412c-69 0 -114 -35 -127 -103h244c-7 65 -54 103 -117 103z" />
    <glyph glyph-name="uni1EC0" unicode="&#x1ec0;" horiz-adv-x="525" 
d="M485 939l83 -135h-121l-109 135h147zM341 742l-62 68l-62 -68h-113l96 131h158l96 -131h-113zM480 0h-412v707h412v-126h-268v-165h239v-125h-239v-164h268v-127z" />
    <glyph glyph-name="uni1EC1" unicode="&#x1ec1;" horiz-adv-x="594" 
d="M518 779l88 -142h-121l-115 142h148zM367 566l-60 78l-61 -78h-113l96 142h156l96 -142h-114zM303 514c145 0 254 -83 254 -258l-1 -32h-383c7 -81 62 -125 133 -125c53 0 94 23 113 69l128 -17c-33 -103 -125 -161 -240 -161c-165 0 -271 99 -271 262s109 262 267 262z
M303 412c-69 0 -114 -35 -127 -103h244c-7 65 -54 103 -117 103z" />
    <glyph glyph-name="uni1EC2" unicode="&#x1ec2;" horiz-adv-x="525" 
d="M472 1003c77 0 119 -34 119 -84c0 -48 -39 -66 -81 -76v-41h-84v66c57 7 79 22 79 44c0 20 -16 32 -45 32c-17 0 -37 -5 -56 -19l-36 48c31 18 59 30 104 30zM341 742l-62 68l-62 -68h-113l96 131h158l96 -131h-113zM480 0h-412v707h412v-126h-268v-165h239v-125h-239
v-164h268v-127z" />
    <glyph glyph-name="uni1EC3" unicode="&#x1ec3;" horiz-adv-x="594" 
d="M492 837c85 0 127 -33 127 -83c0 -49 -38 -67 -81 -77v-40h-99v58c58 7 79 22 79 44c0 20 -15 32 -44 32c-18 0 -38 -5 -65 -19l-35 55c38 19 74 30 118 30zM367 566l-60 78l-61 -78h-113l96 142h156l96 -142h-114zM303 514c145 0 254 -83 254 -258l-1 -32h-383
c7 -81 62 -125 133 -125c53 0 94 23 113 69l128 -17c-33 -103 -125 -161 -240 -161c-165 0 -271 99 -271 262s109 262 267 262zM303 412c-69 0 -114 -35 -127 -103h244c-7 65 -54 103 -117 103z" />
    <glyph glyph-name="uni1EC4" unicode="&#x1ec4;" horiz-adv-x="525" 
d="M211 959c-23 0 -32 -29 -32 -64h-67c0 81 40 140 106 140c47 0 70 -24 87 -45c12 -15 23 -28 43 -28c22 0 30 29 30 66h68c0 -79 -38 -140 -106 -140c-48 0 -69 24 -86 44c-12 15 -23 27 -43 27zM341 742l-62 68l-62 -68h-113l96 131h158l97 -131h-114zM480 707v-126
h-268v-165h239v-125h-239v-164h268v-127h-412v707h412z" />
    <glyph glyph-name="uni1EC5" unicode="&#x1ec5;" horiz-adv-x="594" 
d="M238 809c-23 0 -32 -29 -32 -65h-67c0 82 40 141 106 141c47 0 70 -25 87 -45c12 -15 23 -28 43 -28c22 0 30 28 30 66h68c0 -79 -38 -141 -106 -141c-48 0 -69 25 -86 45c-12 15 -23 27 -43 27zM367 566l-61 78l-60 -78h-114l96 142h156l96 -142h-113zM557 256l-1 -32
h-383c7 -81 62 -125 133 -125c53 0 94 23 113 69l128 -17c-33 -103 -125 -161 -240 -161c-165 0 -271 99 -271 262s109 262 267 262c145 0 254 -83 254 -258zM303 412c-69 0 -114 -35 -127 -103h244c-7 65 -54 103 -117 103z" />
    <glyph glyph-name="uni1EC6" unicode="&#x1ec6;" horiz-adv-x="525" 
d="M341 742l-62 68l-62 -68h-113l96 131h158l96 -131h-113zM480 707v-126h-268v-165h239v-125h-239v-164h268v-127h-412v707h412zM281 -62c43 0 79 -36 79 -80c0 -45 -36 -80 -79 -80c-45 0 -81 35 -81 80c0 44 36 80 81 80z" />
    <glyph glyph-name="uni1EC7" unicode="&#x1ec7;" horiz-adv-x="594" 
d="M367 566l-60 78l-61 -78h-113l96 142h156l96 -142h-114zM557 256l-1 -32h-383c7 -81 62 -125 133 -125c53 0 94 23 113 69l128 -17c-33 -103 -125 -161 -240 -161c-165 0 -271 99 -271 262s109 262 267 262c145 0 254 -83 254 -258zM303 412c-69 0 -114 -35 -127 -103
h244c-7 65 -54 103 -117 103zM314 -63c43 0 79 -36 79 -80c0 -45 -36 -80 -79 -80c-45 0 -81 35 -81 80c0 44 36 80 81 80z" />
    <glyph glyph-name="uni1EC8" unicode="&#x1ec8;" horiz-adv-x="280" 
d="M180 737h-84v66c58 7 79 22 79 45c0 19 -15 32 -44 32c-18 0 -38 -6 -57 -20l-35 48c31 18 58 30 103 30c77 0 119 -33 119 -84c0 -48 -38 -66 -81 -76v-41zM212 0h-144v707h144v-707z" />
    <glyph glyph-name="uni1EC9" unicode="&#x1ec9;" horiz-adv-x="259" 
d="M179 541h-99v58c57 7 79 22 79 45c0 19 -16 32 -45 32c-17 0 -37 -6 -64 -20l-35 56c38 18 73 29 118 29c85 0 127 -33 127 -83c0 -48 -39 -67 -81 -77v-40zM199 0h-139v504h139v-504z" />
    <glyph glyph-name="uni1ECA" unicode="&#x1eca;" horiz-adv-x="280" 
d="M212 0h-144v707h144v-707zM140 -222c-45 0 -81 35 -81 80c0 44 36 80 81 80c43 0 79 -36 79 -80c0 -45 -36 -80 -79 -80z" />
    <glyph glyph-name="uni1ECB" unicode="&#x1ecb;" horiz-adv-x="259" 
d="M131 582c-45 0 -81 35 -81 80c0 44 36 79 81 79c43 0 79 -35 79 -79c0 -45 -36 -80 -79 -80zM199 0h-139v504h139v-504zM131 -222c-45 0 -81 35 -81 80c0 44 36 80 81 80c43 0 79 -36 79 -80c0 -45 -36 -80 -79 -80z" />
    <glyph glyph-name="uni1ECC" unicode="&#x1ecc;" horiz-adv-x="798" 
d="M399 -14c-212 0 -362 150 -362 368s150 367 362 367s362 -149 362 -367s-150 -368 -362 -368zM399 119c127 0 218 94 218 235s-91 235 -218 235s-218 -94 -218 -235s91 -235 218 -235zM400 -222c-45 0 -81 35 -81 80c0 44 36 80 81 80c43 0 79 -36 79 -80
c0 -45 -36 -80 -79 -80z" />
    <glyph glyph-name="uni1ECD" unicode="&#x1ecd;" horiz-adv-x="628" 
d="M314 -10c-162 1 -276 100 -276 263c0 161 114 260 276 261c163 -1 277 -100 277 -261c0 -163 -114 -262 -277 -263zM314 100c83 0 138 62 138 153c0 89 -55 151 -138 151s-138 -62 -138 -151c0 -91 55 -153 138 -153zM317 -222c-45 0 -81 35 -81 80c0 44 36 80 81 80
c43 0 79 -36 79 -80c0 -45 -36 -80 -79 -80z" />
    <glyph glyph-name="uni1ECE" unicode="&#x1ece;" horiz-adv-x="798" 
d="M441 737h-84v66c58 7 79 22 79 45c0 19 -15 32 -44 32c-18 0 -38 -6 -57 -20l-35 48c31 18 58 30 103 30c77 0 119 -33 119 -84c0 -48 -38 -66 -81 -76v-41zM399 -14c-212 0 -362 150 -362 368s150 367 362 367s362 -149 362 -367s-150 -368 -362 -368zM399 119
c127 0 218 94 218 235s-91 235 -218 235s-218 -94 -218 -235s91 -235 218 -235z" />
    <glyph glyph-name="uni1ECF" unicode="&#x1ecf;" horiz-adv-x="628" 
d="M365 541h-99v58c57 7 79 22 79 45c0 19 -16 32 -45 32c-17 0 -37 -6 -64 -20l-35 56c38 18 73 29 118 29c85 0 127 -33 127 -83c0 -48 -39 -67 -81 -77v-40zM314 -10c-162 1 -276 100 -276 263c0 161 114 260 276 261c163 -1 277 -100 277 -261
c0 -163 -114 -262 -277 -263zM314 100c83 0 138 62 138 153c0 89 -55 151 -138 151s-138 -62 -138 -151c0 -91 55 -153 138 -153z" />
    <glyph glyph-name="uni1ED0" unicode="&#x1ed0;" horiz-adv-x="798" 
d="M461 742l-62 68l-62 -68h-113l96 131h158l11 -15l50 81h147l-110 -135h-47l45 -62h-113zM399 721c212 0 362 -149 362 -367s-150 -368 -362 -368s-362 150 -362 368s150 367 362 367zM399 119c127 0 218 94 218 235s-91 235 -218 235s-218 -94 -218 -235
s91 -235 218 -235z" />
    <glyph glyph-name="uni1ED1" unicode="&#x1ed1;" horiz-adv-x="628" 
d="M376 565l-60 78l-61 -78h-113l96 142h156l15 -22l57 93h148l-115 -142h-57l48 -71h-114zM314 514c163 -1 277 -100 277 -261c0 -163 -114 -262 -277 -263c-162 1 -276 100 -276 263c0 161 114 260 276 261zM314 100c83 0 138 62 138 153c0 89 -55 151 -138 151
s-138 -62 -138 -151c0 -91 55 -153 138 -153z" />
    <glyph glyph-name="uni1ED2" unicode="&#x1ed2;" horiz-adv-x="798" 
d="M688 804h-121l-109 135h147zM337 742h-113l96 131h158l96 -131h-113l-62 68zM399 -14c-212 0 -362 150 -362 368s150 367 362 367s362 -149 362 -367s-150 -368 -362 -368zM399 119c127 0 218 94 218 235s-91 235 -218 235s-218 -94 -218 -235s91 -235 218 -235z" />
    <glyph glyph-name="uni1ED3" unicode="&#x1ed3;" horiz-adv-x="628" 
d="M615 636h-121l-115 142h148zM255 565h-113l96 142h156l96 -142h-114l-60 78zM314 -10c-162 1 -276 100 -276 263c0 161 114 260 276 261c163 -1 277 -100 277 -261c0 -163 -114 -262 -277 -263zM314 100c83 0 138 62 138 153c0 89 -55 151 -138 151s-138 -62 -138 -151
c0 -91 55 -153 138 -153z" />
    <glyph glyph-name="uni1ED4" unicode="&#x1ed4;" horiz-adv-x="798" 
d="M630 843v-41h-84v66c57 7 79 22 79 44c0 20 -16 32 -45 32c-17 0 -37 -5 -56 -19l-36 48c31 18 59 30 104 30c77 0 119 -34 119 -84c0 -48 -39 -66 -81 -76zM399 810l-62 -68h-113l96 131h158l96 -131h-113zM399 -14c-212 0 -362 150 -362 368s150 367 362 367
s362 -149 362 -367s-150 -368 -362 -368zM399 119c127 0 218 94 218 235s-91 235 -218 235s-218 -94 -218 -235s91 -235 218 -235z" />
    <glyph glyph-name="uni1ED5" unicode="&#x1ed5;" horiz-adv-x="628" 
d="M547 676v-40h-99v58c58 7 79 22 79 44c0 20 -15 32 -44 32c-18 0 -38 -5 -65 -19l-35 55c38 19 74 30 118 30c85 0 127 -33 127 -83c0 -49 -38 -67 -81 -77zM255 565h-113l96 142h156l96 -142h-114l-60 78zM314 -10c-162 1 -276 100 -276 263c0 161 114 260 276 261
c163 -1 277 -100 277 -261c0 -163 -114 -262 -277 -263zM314 100c83 0 138 62 138 153c0 89 -55 151 -138 151s-138 -62 -138 -151c0 -91 55 -153 138 -153z" />
    <glyph glyph-name="uni1ED6" unicode="&#x1ed6;" horiz-adv-x="798" 
d="M460 888c-48 0 -69 24 -86 44c-12 15 -23 27 -43 27c-23 0 -32 -29 -32 -64h-67c0 81 40 140 106 140c47 0 70 -24 87 -45c12 -15 23 -28 43 -28c22 0 30 29 30 66h68c0 -79 -38 -140 -106 -140zM399 810l-62 -68h-113l96 131h158l97 -131h-114zM399 -14
c-212 0 -362 150 -362 368s150 367 362 367s362 -149 362 -367s-150 -368 -362 -368zM399 119c127 0 218 94 218 235s-91 235 -218 235s-218 -94 -218 -235s91 -235 218 -235z" />
    <glyph glyph-name="uni1ED7" unicode="&#x1ed7;" horiz-adv-x="628" 
d="M376 736c-48 0 -69 25 -86 45c-12 15 -23 27 -43 27c-23 0 -32 -29 -32 -65h-67c0 82 40 141 106 141c47 0 70 -25 87 -45c12 -15 23 -28 43 -28c22 0 30 28 30 66h68c0 -79 -38 -141 -106 -141zM315 643l-60 -78h-114l96 142h156l96 -142h-113zM314 -10
c-162 1 -276 100 -276 263c0 161 114 260 276 261c163 -1 277 -100 277 -261c0 -163 -114 -262 -277 -263zM314 100c83 0 138 62 138 153c0 89 -55 151 -138 151s-138 -62 -138 -151c0 -91 55 -153 138 -153z" />
    <glyph glyph-name="uni1ED8" unicode="&#x1ed8;" horiz-adv-x="798" 
d="M337 742h-113l96 131h158l96 -131h-113l-62 68zM399 -14c-212 0 -362 150 -362 368s150 367 362 367s362 -149 362 -367s-150 -368 -362 -368zM399 119c127 0 218 94 218 235s-91 235 -218 235s-218 -94 -218 -235s91 -235 218 -235zM400 -222c-45 0 -81 35 -81 80
c0 44 36 80 81 80c43 0 79 -36 79 -80c0 -45 -36 -80 -79 -80z" />
    <glyph glyph-name="uni1ED9" unicode="&#x1ed9;" horiz-adv-x="628" 
d="M255 565h-113l96 142h156l96 -142h-114l-60 78zM314 -10c-162 1 -276 100 -276 263c0 161 114 260 276 261c163 -1 277 -100 277 -261c0 -163 -114 -262 -277 -263zM314 100c83 0 138 62 138 153c0 89 -55 151 -138 151s-138 -62 -138 -151c0 -91 55 -153 138 -153z
M317 -222c-45 0 -81 35 -81 80c0 44 36 80 81 80c43 0 79 -36 79 -80c0 -45 -36 -80 -79 -80z" />
    <glyph glyph-name="uni1EDA" unicode="&#x1eda;" horiz-adv-x="798" 
d="M422 873h147l-109 -136h-121zM700 691v63h95v-78c0 -80 -48 -105 -92 -111c37 -58 58 -130 58 -211c0 -218 -150 -368 -362 -368s-362 150 -362 368s150 367 362 367c102 0 190 -35 254 -95h2c36 0 45 14 45 65zM399 119c127 0 218 94 218 235s-91 235 -218 235
s-218 -94 -218 -235s91 -235 218 -235z" />
    <glyph glyph-name="uni1EDB" unicode="&#x1edb;" horiz-adv-x="628" 
d="M342 707h147l-114 -142h-121zM545 525v63h95v-78c0 -78 -46 -104 -89 -111c26 -40 40 -89 40 -146c0 -163 -114 -262 -277 -263c-162 1 -276 100 -276 263c0 161 114 260 276 261c71 0 132 -19 179 -54h7c36 0 45 14 45 65zM314 100c83 0 138 62 138 153
c0 89 -55 151 -138 151s-138 -62 -138 -151c0 -91 55 -153 138 -153z" />
    <glyph glyph-name="uni1EDC" unicode="&#x1edc;" horiz-adv-x="798" 
d="M376 873l84 -136h-121l-109 136h146zM700 691v63h95v-78c0 -80 -48 -105 -92 -111c37 -58 58 -130 58 -211c0 -218 -150 -368 -362 -368s-362 150 -362 368s150 367 362 367c102 0 190 -35 254 -95h2c36 0 45 14 45 65zM399 119c127 0 218 94 218 235s-91 235 -218 235
s-218 -94 -218 -235s91 -235 218 -235z" />
    <glyph glyph-name="uni1EDD" unicode="&#x1edd;" horiz-adv-x="628" 
d="M290 707l88 -142h-121l-114 142h147zM545 525v63h95v-78c0 -78 -46 -104 -89 -111c26 -40 40 -89 40 -146c0 -163 -114 -262 -277 -263c-162 1 -276 100 -276 263c0 161 114 260 276 261c71 0 132 -19 179 -54h7c36 0 45 14 45 65zM314 100c83 0 138 62 138 153
c0 89 -55 151 -138 151s-138 -62 -138 -151c0 -91 55 -153 138 -153z" />
    <glyph glyph-name="uni1EDE" unicode="&#x1ede;" horiz-adv-x="798" 
d="M392 880c-18 0 -38 -6 -57 -20l-35 48c31 18 58 30 103 30c77 0 119 -33 119 -84c0 -48 -38 -66 -81 -76v-41h-84v66c58 7 79 22 79 45c0 19 -15 32 -44 32zM700 691v63h95v-78c0 -80 -48 -105 -92 -111c37 -58 58 -130 58 -211c0 -218 -150 -368 -362 -368
s-362 150 -362 368s150 367 362 367c102 0 190 -35 254 -95h2c36 0 45 14 45 65zM399 119c127 0 218 94 218 235s-91 235 -218 235s-218 -94 -218 -235s91 -235 218 -235z" />
    <glyph glyph-name="uni1EDF" unicode="&#x1edf;" horiz-adv-x="628" 
d="M300 676c-17 0 -37 -6 -64 -20l-35 56c38 18 73 29 118 29c85 0 127 -33 127 -83c0 -48 -39 -67 -81 -77v-40h-99v58c57 7 79 22 79 45c0 19 -16 32 -45 32zM545 525v63h95v-78c0 -78 -46 -104 -89 -111c26 -40 40 -89 40 -146c0 -163 -114 -262 -277 -263
c-162 1 -276 100 -276 263c0 161 114 260 276 261c71 0 132 -19 179 -54h7c36 0 45 14 45 65zM314 100c83 0 138 62 138 153c0 89 -55 151 -138 151s-138 -62 -138 -151c0 -91 55 -153 138 -153z" />
    <glyph glyph-name="uni1EE0" unicode="&#x1ee0;" horiz-adv-x="798" 
d="M331 809c-23 0 -32 -29 -32 -65h-67c0 82 40 141 106 141c46 0 69 -25 87 -45c12 -15 23 -28 43 -28c22 0 30 28 30 66h68c0 -79 -38 -141 -107 -141c-47 0 -69 25 -85 45c-13 15 -24 27 -43 27zM700 691v63h95v-78c0 -80 -48 -105 -92 -111c37 -58 58 -130 58 -211
c0 -218 -150 -368 -362 -368s-362 150 -362 368s150 367 362 367c102 0 190 -35 254 -95h2c36 0 45 14 45 65zM399 119c127 0 218 94 218 235s-91 235 -218 235s-218 -94 -218 -235s91 -235 218 -235z" />
    <glyph glyph-name="uni1EE1" unicode="&#x1ee1;" horiz-adv-x="628" 
d="M248 630c-23 0 -32 -30 -32 -65h-67c0 81 40 140 106 140c46 0 69 -24 87 -44c12 -16 23 -28 43 -28c22 0 30 28 30 65h68c0 -79 -38 -140 -107 -140c-47 0 -69 24 -85 44c-13 15 -24 28 -43 28zM545 525v63h95v-78c0 -78 -46 -104 -89 -111c26 -40 40 -89 40 -146
c0 -163 -114 -262 -277 -263c-162 1 -276 100 -276 263c0 161 114 260 276 261c71 0 132 -19 179 -54h7c36 0 45 14 45 65zM314 100c83 0 138 62 138 153c0 89 -55 151 -138 151s-138 -62 -138 -151c0 -91 55 -153 138 -153z" />
    <glyph glyph-name="uni1EE2" unicode="&#x1ee2;" horiz-adv-x="798" 
d="M700 691v63h95v-78c0 -80 -48 -105 -92 -111c37 -58 58 -130 58 -211c0 -218 -150 -368 -362 -368s-362 150 -362 368s150 367 362 367c102 0 190 -35 254 -95h2c36 0 45 14 45 65zM399 119c127 0 218 94 218 235s-91 235 -218 235s-218 -94 -218 -235s91 -235 218 -235z
M400 -62c43 0 79 -36 79 -80c0 -45 -36 -80 -79 -80c-45 0 -81 35 -81 80c0 44 36 80 81 80z" />
    <glyph glyph-name="uni1EE3" unicode="&#x1ee3;" horiz-adv-x="628" 
d="M545 525v63h95v-78c0 -78 -46 -104 -89 -111c26 -40 40 -89 40 -146c0 -163 -114 -262 -277 -263c-162 1 -276 100 -276 263c0 161 114 260 276 261c71 0 132 -19 179 -54h7c36 0 45 14 45 65zM314 100c83 0 138 62 138 153c0 89 -55 151 -138 151s-138 -62 -138 -151
c0 -91 55 -153 138 -153zM317 -62c43 0 79 -36 79 -80c0 -45 -36 -80 -79 -80c-45 0 -81 35 -81 80c0 44 36 80 81 80z" />
    <glyph glyph-name="uni1EE4" unicode="&#x1ee4;" horiz-adv-x="681" 
d="M341 -14c-160 0 -281 84 -281 265v456h144v-437c0 -109 58 -153 137 -153c78 0 136 44 136 153v437h145v-456c0 -181 -122 -265 -281 -265zM341 -222c-45 0 -81 35 -81 80c0 44 36 80 81 80c43 0 79 -36 79 -80c0 -45 -36 -80 -79 -80z" />
    <glyph glyph-name="uni1EE5" unicode="&#x1ee5;" horiz-adv-x="609" 
d="M408 230v274h139v-504h-139v58c-36 -43 -92 -68 -160 -68c-127 0 -192 66 -192 177v337h138v-308c0 -67 42 -95 97 -95c62 0 116 33 117 129zM307 -62c43 0 79 -36 79 -80c0 -45 -36 -80 -79 -80c-45 0 -81 35 -81 80c0 44 36 80 81 80z" />
    <glyph glyph-name="uni1EE6" unicode="&#x1ee6;" horiz-adv-x="681" 
d="M381 737h-84v66c58 7 79 22 79 45c0 19 -15 32 -44 32c-18 0 -38 -6 -57 -20l-35 48c31 18 58 30 103 30c77 0 119 -33 119 -84c0 -48 -38 -66 -81 -76v-41zM341 -14c-160 0 -281 84 -281 265v456h144v-437c0 -109 58 -153 137 -153c78 0 136 44 136 153v437h145v-456
c0 -181 -122 -265 -281 -265z" />
    <glyph glyph-name="uni1EE7" unicode="&#x1ee7;" horiz-adv-x="609" 
d="M286 676c-17 0 -37 -6 -64 -20l-35 56c38 18 73 29 118 29c85 0 127 -33 127 -83c0 -48 -39 -67 -81 -77v-40h-99v58c57 7 79 22 79 45c0 19 -16 32 -45 32zM408 230v274h139v-504h-139v58c-36 -43 -92 -68 -160 -68c-127 0 -192 66 -192 177v337h138v-308
c0 -67 42 -95 97 -95c62 0 116 33 117 129z" />
    <glyph glyph-name="uni1EE8" unicode="&#x1ee8;" horiz-adv-x="681" 
d="M363 873h147l-109 -136h-121zM697 732v63h95v-78c0 -95 -69 -113 -116 -113c-17 0 -35 4 -54 10v-363c0 -181 -122 -265 -281 -265c-160 0 -281 84 -281 265v456h144v-437c0 -109 58 -153 137 -153c78 0 136 44 136 153v437h145v-34c12 -4 22 -6 30 -6c36 0 45 14 45 65z
" />
    <glyph glyph-name="uni1EE9" unicode="&#x1ee9;" horiz-adv-x="609" 
d="M327 707h147l-114 -142h-121zM611 529v63h95v-78c0 -95 -69 -113 -116 -113c-13 0 -28 2 -43 7v-408h-139v58c-36 -43 -92 -68 -160 -68c-127 0 -192 66 -192 177v337h138v-308c0 -67 42 -95 97 -95c62 0 116 33 117 129v274h139v-37c7 -2 13 -3 19 -3c36 0 45 14 45 65z
" />
    <glyph glyph-name="uni1EEA" unicode="&#x1eea;" horiz-adv-x="681" 
d="M316 873l84 -136h-121l-109 136h146zM697 732v63h95v-78c0 -95 -69 -113 -116 -113c-17 0 -35 4 -54 10v-363c0 -181 -122 -265 -281 -265c-160 0 -281 84 -281 265v456h144v-437c0 -109 58 -153 137 -153c78 0 136 44 136 153v437h145v-34c12 -4 22 -6 30 -6
c36 0 45 14 45 65z" />
    <glyph glyph-name="uni1EEB" unicode="&#x1eeb;" horiz-adv-x="609" 
d="M276 707l88 -142h-121l-114 142h147zM611 529v63h95v-78c0 -95 -69 -113 -116 -113c-13 0 -28 2 -43 7v-408h-139v58c-36 -43 -92 -68 -160 -68c-127 0 -192 66 -192 177v337h138v-308c0 -67 42 -95 97 -95c62 0 116 33 117 129v274h139v-37c7 -2 13 -3 19 -3
c36 0 45 14 45 65z" />
    <glyph glyph-name="uni1EEC" unicode="&#x1eec;" horiz-adv-x="681" 
d="M332 880c-18 0 -38 -6 -57 -20l-35 48c31 18 58 30 103 30c77 0 119 -33 119 -84c0 -48 -38 -66 -81 -76v-41h-84v66c58 7 79 22 79 45c0 19 -15 32 -44 32zM697 732v63h95v-78c0 -95 -69 -113 -116 -113c-17 0 -35 4 -54 10v-363c0 -181 -122 -265 -281 -265
c-160 0 -281 84 -281 265v456h144v-437c0 -109 58 -153 137 -153c78 0 136 44 136 153v437h145v-34c12 -4 22 -6 30 -6c36 0 45 14 45 65z" />
    <glyph glyph-name="uni1EED" unicode="&#x1eed;" horiz-adv-x="609" 
d="M286 676c-17 0 -37 -6 -64 -20l-35 56c38 18 73 29 118 29c85 0 127 -33 127 -83c0 -48 -39 -67 -81 -77v-40h-99v58c57 7 79 22 79 45c0 19 -16 32 -45 32zM611 529v63h95v-78c0 -95 -69 -113 -116 -113c-13 0 -28 2 -43 7v-408h-139v58c-36 -43 -92 -68 -160 -68
c-127 0 -192 66 -192 177v337h138v-308c0 -67 42 -95 97 -95c62 0 116 33 117 129v274h139v-37c7 -2 13 -3 19 -3c36 0 45 14 45 65z" />
    <glyph glyph-name="uni1EEE" unicode="&#x1eee;" horiz-adv-x="681" 
d="M272 809c-23 0 -32 -29 -32 -65h-67c0 82 40 141 106 141c46 0 69 -25 87 -45c12 -15 23 -28 43 -28c22 0 30 28 30 66h68c0 -79 -38 -141 -107 -141c-47 0 -69 25 -85 45c-13 15 -24 27 -43 27zM697 732v63h95v-78c0 -95 -69 -113 -116 -113c-17 0 -35 4 -54 10v-363
c0 -181 -122 -265 -281 -265c-160 0 -281 84 -281 265v456h144v-437c0 -109 58 -153 137 -153c78 0 136 44 136 153v437h145v-34c12 -4 22 -6 30 -6c36 0 45 14 45 65z" />
    <glyph glyph-name="uni1EEF" unicode="&#x1eef;" horiz-adv-x="609" 
d="M233 630c-23 0 -32 -30 -32 -65h-67c0 81 40 140 106 140c46 0 69 -24 87 -44c12 -16 23 -28 43 -28c22 0 30 28 30 65h68c0 -79 -38 -140 -107 -140c-47 0 -69 24 -85 44c-13 15 -24 28 -43 28zM611 529v63h95v-78c0 -95 -69 -113 -116 -113c-13 0 -28 2 -43 7v-408
h-139v58c-36 -43 -92 -68 -160 -68c-127 0 -192 66 -192 177v337h138v-308c0 -67 42 -95 97 -95c62 0 116 33 117 129v274h139v-37c7 -2 13 -3 19 -3c36 0 45 14 45 65z" />
    <glyph glyph-name="uni1EF0" unicode="&#x1ef0;" horiz-adv-x="681" 
d="M697 732v63h95v-78c0 -95 -69 -113 -116 -113c-17 0 -35 4 -54 10v-363c0 -181 -122 -265 -281 -265c-160 0 -281 84 -281 265v456h144v-437c0 -109 58 -153 137 -153c78 0 136 44 136 153v437h145v-34c12 -4 22 -6 30 -6c36 0 45 14 45 65zM341 -62c43 0 79 -36 79 -80
c0 -45 -36 -80 -79 -80c-45 0 -81 35 -81 80c0 44 36 80 81 80z" />
    <glyph glyph-name="uni1EF1" unicode="&#x1ef1;" horiz-adv-x="609" 
d="M611 529v63h95v-78c0 -95 -69 -113 -116 -113c-13 0 -28 2 -43 7v-408h-139v58c-36 -43 -92 -68 -160 -68c-127 0 -192 66 -192 177v337h138v-308c0 -67 42 -95 97 -95c62 0 116 33 117 129v274h139v-37c7 -2 13 -3 19 -3c36 0 45 14 45 65zM307 -62c43 0 79 -36 79 -80
c0 -45 -36 -80 -79 -80c-45 0 -81 35 -81 80c0 44 36 80 81 80z" />
    <glyph glyph-name="Ygrave" unicode="&#x1ef2;" horiz-adv-x="622" 
d="M288 873l84 -136h-121l-109 136h146zM462 707h158l-236 -371v-336h-145v334l-238 373h159l151 -247z" />
    <glyph glyph-name="ygrave" unicode="&#x1ef3;" horiz-adv-x="582" 
d="M270 707l88 -142h-121l-114 142h147zM291 165l126 339h151l-317 -747h-151l119 268l-205 479h150z" />
    <glyph glyph-name="uni1EF4" unicode="&#x1ef4;" horiz-adv-x="622" 
d="M384 0h-145v334l-238 373h159l151 -247l151 247h158l-236 -371v-336zM313 -62c43 0 79 -36 79 -80c0 -45 -36 -80 -79 -80c-45 0 -81 35 -81 80c0 44 36 80 81 80z" />
    <glyph glyph-name="uni1EF5" unicode="&#x1ef5;" horiz-adv-x="582" 
d="M291 165l126 339h151l-317 -747h-151l119 268l-205 479h150zM492 -62c43 0 79 -36 79 -80c0 -45 -36 -80 -79 -80c-45 0 -81 35 -81 80c0 44 36 80 81 80z" />
    <glyph glyph-name="uni1EF6" unicode="&#x1ef6;" horiz-adv-x="622" 
d="M304 880c-18 0 -38 -6 -57 -20l-35 48c31 18 58 30 103 30c77 0 119 -33 119 -84c0 -48 -38 -66 -81 -76v-41h-84v66c58 7 79 22 79 45c0 19 -15 32 -44 32zM462 707h158l-236 -371v-336h-145v334l-238 373h159l151 -247z" />
    <glyph glyph-name="uni1EF7" unicode="&#x1ef7;" horiz-adv-x="582" 
d="M280 676c-17 0 -37 -6 -64 -20l-35 56c38 18 73 29 118 29c85 0 127 -33 127 -83c0 -48 -39 -67 -81 -77v-40h-99v58c57 7 79 22 79 45c0 19 -16 32 -45 32zM291 165l126 339h151l-317 -747h-151l119 268l-205 479h150z" />
    <glyph glyph-name="uni1EF8" unicode="&#x1ef8;" horiz-adv-x="622" 
d="M243 809c-23 0 -32 -29 -32 -65h-67c0 82 40 141 106 141c46 0 69 -25 87 -45c12 -15 23 -28 43 -28c22 0 30 28 30 66h68c0 -79 -38 -141 -107 -141c-47 0 -69 25 -85 45c-13 15 -24 27 -43 27zM462 707h158l-236 -371v-336h-145v334l-238 373h159l151 -247z" />
    <glyph glyph-name="uni1EF9" unicode="&#x1ef9;" horiz-adv-x="582" 
d="M227 630c-23 0 -32 -30 -32 -65h-67c0 81 40 140 106 140c46 0 69 -24 87 -44c12 -16 23 -28 43 -28c22 0 30 28 30 65h68c0 -79 -38 -140 -107 -140c-47 0 -69 24 -85 44c-13 15 -24 28 -43 28zM291 165l126 339h151l-317 -747h-151l119 268l-205 479h150z" />
    <glyph glyph-name="endash" unicode="&#x2013;" horiz-adv-x="500" 
d="M500 201h-500v104h500v-104z" />
    <glyph glyph-name="emdash" unicode="&#x2014;" horiz-adv-x="1000" 
d="M1000 201h-1000v104h1000v-104z" />
    <glyph glyph-name="quoteleft" unicode="&#x2018;" horiz-adv-x="295" 
d="M182 387h-142l104 320h99z" />
    <glyph glyph-name="quoteright" unicode="&#x2019;" horiz-adv-x="295" 
d="M151 387h-99l61 320h141z" />
    <glyph glyph-name="quotesinglbase" unicode="&#x201a;" horiz-adv-x="321" 
d="M164 -180h-99l61 321h142z" />
    <glyph glyph-name="quotedblleft" unicode="&#x201c;" horiz-adv-x="526" 
d="M182 387h-142l104 320h99zM413 387h-141l103 320h99z" />
    <glyph glyph-name="quotedblright" unicode="&#x201d;" horiz-adv-x="526" 
d="M151 387h-99l61 320h141zM382 387h-99l61 320h142z" />
    <glyph glyph-name="quotedblbase" unicode="&#x201e;" horiz-adv-x="548" 
d="M164 -180h-99l61 321h142zM391 -180h-99l61 321h141z" />
    <glyph glyph-name="dagger" unicode="&#x2020;" horiz-adv-x="508" 
d="M323 533h141v-89h-141v-577h-138v577h-141v89h141v174h138v-174z" />
    <glyph glyph-name="daggerdbl" unicode="&#x2021;" horiz-adv-x="533" 
d="M477 533v-89h-141v-306h141v-88h-141v-183h-139v183h-141v88h141v306h-141v89h141v174h139v-174h141z" />
    <glyph glyph-name="bullet" unicode="&#x2022;" horiz-adv-x="499" 
d="M250 67c-100 0 -186 80 -186 185c0 100 86 186 186 186c99 0 185 -86 185 -186c0 -105 -86 -185 -185 -185z" />
    <glyph glyph-name="ellipsis" unicode="&#x2026;" horiz-adv-x="885" 
d="M158 -10c-43 0 -79 36 -79 80c0 43 36 80 79 80c44 0 81 -37 81 -80c0 -44 -37 -80 -81 -80zM443 -10c-43 0 -79 36 -79 80c0 43 36 80 79 80c44 0 80 -37 80 -80c0 -44 -36 -80 -80 -80zM725 -10c-43 0 -79 36 -79 80c0 43 36 80 79 80c44 0 81 -37 81 -80
c0 -44 -37 -80 -81 -80z" />
    <glyph glyph-name="perthousand" unicode="&#x2030;" horiz-adv-x="1231" 
d="M216 384c-92 0 -166 74 -166 167c0 92 75 166 166 166c92 0 166 -75 166 -166c0 -92 -74 -167 -166 -167zM295 0h-113l368 707h115zM216 475c43 0 75 33 75 76c0 41 -34 75 -75 75s-75 -33 -75 -75c0 -43 34 -76 75 -76zM636 -9c-94 0 -168 75 -168 167
c0 93 75 167 168 167c91 0 165 -74 165 -167c0 -91 -74 -167 -165 -167zM1016 -9c-93 0 -167 75 -167 167c0 93 75 167 167 167s166 -74 166 -167c0 -91 -74 -167 -166 -167zM636 84c41 0 75 33 75 74s-35 76 -75 76c-43 0 -77 -33 -77 -76c0 -41 34 -74 77 -74zM1016 84
c42 0 75 33 75 74s-34 76 -75 76c-42 0 -76 -33 -76 -76c0 -41 34 -74 76 -74z" />
    <glyph glyph-name="guilsinglleft" unicode="&#x2039;" horiz-adv-x="321" 
d="M292 69h-112l-152 184l152 184h112l-152 -184z" />
    <glyph glyph-name="guilsinglright" unicode="&#x203a;" horiz-adv-x="321" 
d="M293 253l-152 -184h-112l152 184l-152 184h112z" />
    <glyph glyph-name="fraction" unicode="&#x2044;" horiz-adv-x="208" 
d="M-54 0h-84l399 707h85z" />
    <glyph glyph-name="uni2070" unicode="&#x2070;" horiz-adv-x="371" 
d="M185 395c-99 0 -154 71 -154 220c0 150 56 220 154 220c99 0 154 -71 154 -220s-55 -220 -154 -220zM185 469c44 0 71 44 71 146s-27 146 -71 146s-71 -43 -71 -146c0 -102 27 -146 71 -146z" />
    <glyph glyph-name="uni2074" unicode="&#x2074;" horiz-adv-x="359" 
d="M292 560h45v-73h-45v-84h-83v84h-199v74l155 266h127v-267zM209 772l-121 -212h121v212z" />
    <glyph glyph-name="uni2075" unicode="&#x2075;" horiz-adv-x="361" 
d="M133 676h48c101 0 156 -43 156 -133c0 -91 -60 -148 -152 -148c-91 0 -152 53 -152 139c0 5 1 11 1 16h82c-1 -3 -1 -6 -1 -9c0 -45 26 -72 72 -72c43 0 66 29 66 68c0 62 -51 71 -100 71h-107l17 219h253v-74h-178z" />
    <glyph glyph-name="uni2076" unicode="&#x2076;" horiz-adv-x="343" 
d="M189 686c76 0 139 -57 139 -142c0 -84 -72 -149 -158 -149c-88 0 -155 68 -155 151c0 34 10 68 38 105l134 176h100l-110 -142c4 1 8 1 12 1zM247 546c1 44 -29 80 -78 80c-46 0 -75 -33 -77 -78c-1 -42 28 -79 76 -79c46 0 78 35 79 77z" />
    <glyph glyph-name="uni2077" unicode="&#x2077;" horiz-adv-x="315" 
d="M9 753v74h300v-74l-194 -350h-95l199 350h-210z" />
    <glyph glyph-name="uni2078" unicode="&#x2078;" horiz-adv-x="359" 
d="M180 395c-89 0 -154 51 -154 132c0 49 26 87 66 108c-30 19 -49 48 -49 86c0 67 57 114 137 114c78 0 135 -47 135 -114c0 -37 -19 -67 -48 -86c40 -21 66 -59 66 -108c0 -80 -65 -132 -153 -132zM180 659c33 0 60 24 60 59c0 33 -27 56 -60 56c-34 0 -60 -23 -60 -56
c0 -35 26 -59 60 -59zM180 469c40 0 70 27 70 67c0 41 -30 67 -70 67c-41 0 -71 -26 -71 -67c0 -40 30 -67 71 -67z" />
    <glyph glyph-name="uni2079" unicode="&#x2079;" horiz-adv-x="343" 
d="M173 835c88 0 155 -68 155 -151c0 -34 -10 -68 -38 -105l-134 -176h-100l110 142c-4 -1 -8 -1 -12 -1c-76 0 -139 57 -139 142c0 84 73 149 158 149zM251 682c1 42 -28 79 -76 79c-46 0 -78 -35 -79 -77c-1 -45 29 -81 78 -81c46 0 75 34 77 79z" />
    <glyph glyph-name="uni2080" unicode="&#x2080;" horiz-adv-x="371" 
d="M185 -168c-99 0 -154 71 -154 220c0 150 56 221 154 221c99 0 154 -71 154 -221c0 -148 -55 -220 -154 -220zM185 -94c44 0 71 44 71 146c0 103 -27 146 -71 146s-71 -43 -71 -146c0 -102 27 -146 71 -146z" />
    <glyph glyph-name="uni2081" unicode="&#x2081;" horiz-adv-x="246" 
d="M10 182l101 82h80v-424h-83v328l-98 -80v94z" />
    <glyph glyph-name="uni2082" unicode="&#x2082;" horiz-adv-x="346" 
d="M258 33l-115 -119h179v-74h-296v66l169 173c26 25 37 45 37 69c0 32 -22 51 -58 51c-43 0 -67 -24 -67 -71v-20l-82 8v19c0 86 56 138 146 138c84 0 143 -47 143 -122c0 -45 -16 -78 -56 -118z" />
    <glyph glyph-name="uni2083" unicode="&#x2083;" horiz-adv-x="352" 
d="M178 -168c-101 0 -157 54 -157 152h85c1 -45 20 -78 71 -78c42 0 66 27 66 64c0 52 -43 62 -69 62h-14v64h12c34 0 57 22 57 55c0 29 -22 48 -53 48c-37 0 -60 -26 -60 -68v-4l-84 8c0 87 56 138 142 138c78 0 133 -52 133 -114c0 -48 -31 -79 -56 -89
c38 -10 77 -41 77 -105c0 -79 -59 -133 -150 -133z" />
    <glyph glyph-name="uni2084" unicode="&#x2084;" horiz-adv-x="359" 
d="M292 -2h45v-74h-45v-84h-83v84h-199v74l155 266h127v-266zM209 210l-121 -212h121v212z" />
    <glyph glyph-name="uni2085" unicode="&#x2085;" horiz-adv-x="361" 
d="M133 113h48c101 0 156 -42 156 -133c0 -90 -60 -148 -152 -148c-91 0 -152 53 -152 139c0 5 1 11 1 16h82c-1 -3 -1 -6 -1 -9c0 -45 26 -72 72 -72c43 0 66 29 66 69c0 61 -51 70 -100 70h-107l17 219h253v-73h-178z" />
    <glyph glyph-name="uni2086" unicode="&#x2086;" horiz-adv-x="343" 
d="M189 123c76 0 139 -57 139 -142c0 -84 -72 -149 -158 -149c-88 0 -155 69 -155 151c0 35 10 68 38 105l134 176h100l-110 -141h12zM247 -17c1 45 -29 81 -78 81c-46 0 -75 -34 -77 -79c-1 -42 28 -79 76 -79c46 0 78 35 79 77z" />
    <glyph glyph-name="uni2087" unicode="&#x2087;" horiz-adv-x="315" 
d="M9 191v73h300v-73l-194 -351h-95l199 351h-210z" />
    <glyph glyph-name="uni2088" unicode="&#x2088;" horiz-adv-x="360" 
d="M180 -168c-88 0 -153 51 -153 132c0 49 25 87 66 108c-30 19 -49 49 -49 86c0 67 57 115 136 115s136 -48 136 -115c0 -37 -19 -67 -48 -86c40 -21 66 -59 66 -108c0 -80 -66 -132 -154 -132zM180 96c33 0 60 25 60 59c0 33 -27 57 -60 57s-60 -24 -60 -57
c0 -35 27 -59 60 -59zM180 -94c40 0 70 28 70 68s-29 66 -70 66c-40 0 -70 -26 -70 -66s30 -68 70 -68z" />
    <glyph glyph-name="uni2089" unicode="&#x2089;" horiz-adv-x="343" 
d="M173 273c88 0 155 -69 155 -151c0 -35 -10 -69 -38 -106l-134 -176h-100l110 142c-4 -1 -8 -1 -12 -1c-76 0 -139 58 -139 142s73 150 158 150zM251 119c1 42 -28 80 -76 80c-46 0 -78 -36 -79 -78c-1 -44 29 -80 78 -80c46 0 75 33 77 78z" />
    <glyph glyph-name="Euro" unicode="&#x20ac;" horiz-adv-x="770" 
d="M445 120c71 0 120 36 148 92l123 -75c-56 -88 -150 -147 -271 -147c-153 0 -275 91 -312 256h-70v73h60c-1 12 -1 24 -1 36s0 23 1 34h-60v74h70c37 165 159 254 312 254c121 0 215 -57 271 -145l-123 -75c-29 59 -79 92 -148 92c-77 0 -139 -38 -166 -126h200v-74h-213
c-1 -11 -1 -22 -1 -34c0 -13 0 -25 1 -36h213v-73h-200c27 -88 89 -126 166 -126z" />
    <glyph glyph-name="uni2113" unicode="&#x2113;" horiz-adv-x="581" 
d="M321 -10c-113 0 -179 52 -188 162l-56 -38l-36 67l89 64v235c0 163 75 237 187 237c104 0 153 -67 153 -161c0 -104 -67 -216 -210 -332v-29c0 -59 37 -96 93 -96c51 0 99 36 131 80l55 -59c-56 -95 -140 -130 -218 -130zM261 495v-156c84 77 119 166 119 221
c0 41 -18 68 -51 68c-41 0 -69 -36 -68 -133z" />
    <glyph glyph-name="uni2116" unicode="&#x2116;" horiz-adv-x="1389" 
d="M1064 193c-155 0 -262 107 -262 263c0 155 106 261 262 261c155 0 261 -106 261 -261c0 -156 -107 -263 -261 -263zM274 707l318 -504v504h145v-707h-174l-316 507v-507h-145v707h172zM1062 601c-74 0 -120 -55 -120 -145s46 -146 120 -146c76 0 123 56 123 146
s-47 145 -123 145zM1289 27h-451v89h451v-89z" />
    <glyph glyph-name="trademark" unicode="&#x2122;" horiz-adv-x="707" 
d="M170 359h-74v283h-85v65h242v-65h-83v-283zM350 359h-76l30 348h108l73 -207l75 207h106l29 -348h-74l-23 259l-88 -259h-49l-88 260z" />
    <glyph glyph-name="estimated" unicode="&#x212e;" horiz-adv-x="960" 
d="M485 -9c-236 0 -427 172 -427 383c0 214 191 386 427 386c237 0 428 -172 428 -386v-10h-692c-4 0 -6 -1 -6 -4v-210c0 -9 4 -17 9 -24c67 -69 160 -114 262 -114c111 0 209 50 276 128h61c-76 -90 -200 -149 -338 -149zM221 385h531c3 0 4 4 4 7v210c0 9 -3 19 -10 25
c-67 66 -158 110 -260 110c-101 0 -193 -45 -261 -113c-6 -7 -10 -16 -10 -26v-206c0 -3 2 -7 6 -7z" />
    <glyph glyph-name="oneeighth" unicode="&#x215b;" horiz-adv-x="812" 
d="M191 283h-83v327l-98 -79v94l101 82h80v-424zM108 0l399 707h85l-399 -707h-85zM720 232c40 -21 66 -59 66 -108c0 -80 -65 -132 -153 -132c-89 0 -154 51 -154 132c0 49 26 87 66 108c-30 19 -49 49 -49 86c0 67 57 115 137 115c78 0 135 -48 135 -115
c0 -37 -19 -67 -48 -86zM633 372c-34 0 -60 -24 -60 -57c0 -35 26 -59 60 -59c33 0 60 25 60 59c0 33 -27 57 -60 57zM633 66c40 0 70 28 70 68s-30 66 -70 66c-41 0 -71 -26 -71 -66s30 -68 71 -68z" />
    <glyph glyph-name="threeeighths" unicode="&#x215c;" horiz-adv-x="919" 
d="M178 275c-101 0 -157 54 -157 152h85c1 -45 20 -78 71 -78c42 0 66 27 66 64c0 52 -43 62 -69 62h-14v64h12c34 0 57 22 57 55c0 29 -22 48 -53 48c-37 0 -60 -26 -60 -69v-4l-84 9c0 87 56 137 142 137c78 0 133 -51 133 -114c0 -47 -31 -78 -56 -88
c38 -10 77 -41 77 -105c0 -79 -59 -133 -150 -133zM299 0h-85l399 707h85zM740 -8c-89 0 -154 51 -154 132c0 49 26 87 66 108c-30 19 -49 49 -49 86c0 67 57 115 137 115c78 0 135 -48 135 -115c0 -37 -19 -67 -48 -86c40 -21 66 -59 66 -108c0 -80 -65 -132 -153 -132z
M740 256c33 0 60 25 60 59c0 33 -27 57 -60 57c-34 0 -60 -24 -60 -57c0 -35 26 -59 60 -59zM740 66c40 0 70 28 70 68s-30 66 -70 66c-41 0 -71 -26 -71 -66s30 -68 71 -68z" />
    <glyph glyph-name="fiveeighths" unicode="&#x215d;" horiz-adv-x="928" 
d="M337 423c0 -91 -60 -148 -152 -148c-91 0 -152 53 -152 139c0 5 1 11 1 16h82c-1 -3 -1 -6 -1 -9c0 -45 26 -72 72 -72c43 0 66 29 66 68c0 62 -51 71 -100 71h-107l17 219h253v-74h-178l-5 -77h48c101 0 156 -43 156 -133zM223 0l399 707h85l-399 -707h-85zM836 232
c40 -21 66 -59 66 -108c0 -80 -65 -132 -153 -132c-89 0 -154 51 -154 132c0 49 26 87 66 108c-30 19 -49 49 -49 86c0 67 57 115 137 115c78 0 135 -48 135 -115c0 -37 -19 -67 -48 -86zM749 372c-34 0 -60 -24 -60 -57c0 -35 26 -59 60 -59c33 0 60 25 60 59
c0 33 -27 57 -60 57zM749 66c40 0 70 28 70 68s-30 66 -70 66c-41 0 -71 -26 -71 -66s30 -68 71 -68z" />
    <glyph glyph-name="seveneighths" unicode="&#x215e;" horiz-adv-x="829" 
d="M9 707h300v-74l-194 -350h-95l199 350h-210v74zM124 0l399 707h85l-399 -707h-85zM736 232c40 -21 66 -59 66 -108c0 -80 -65 -132 -153 -132c-89 0 -154 51 -154 132c0 49 26 87 66 108c-30 19 -49 49 -49 86c0 67 57 115 137 115c78 0 135 -48 135 -115
c0 -37 -19 -67 -48 -86zM649 372c-34 0 -60 -24 -60 -57c0 -35 26 -59 60 -59c33 0 60 25 60 59c0 33 -27 57 -60 57zM649 66c40 0 70 28 70 68s-30 66 -70 66c-41 0 -71 -26 -71 -66s30 -68 71 -68z" />
    <glyph glyph-name="arrowleft" unicode="&#x2190;" horiz-adv-x="740" 
d="M292 69h-112l-152 184l152 184h112l-109 -132h557v-104h-557z" />
    <glyph glyph-name="arrowup" unicode="&#x2191;" horiz-adv-x="456" 
d="M44 555l184 152l184 -152v-111l-132 108v-552h-104v552l-132 -108v111z" />
    <glyph glyph-name="arrowright" unicode="&#x2192;" horiz-adv-x="740" 
d="M712 253l-152 -184h-112l109 132h-557v104h557l-109 132h112z" />
    <glyph glyph-name="arrowdown" unicode="&#x2193;" horiz-adv-x="456" 
d="M412 152l-184 -152l-184 152v112l132 -109v552h104v-552l132 109v-112z" />
    <glyph glyph-name="arrowboth" unicode="&#x2194;" horiz-adv-x="991" 
d="M690 437h111l152 -184l-152 -184h-111l109 132h-607l109 -132h-111l-152 184l152 184h111l-109 -132h607z" />
    <glyph glyph-name="arrowupdn" unicode="&#x2195;" horiz-adv-x="456" 
d="M412 152l-184 -152l-184 152v112l132 -109v398l-132 -109v111l184 152l184 -152v-111l-132 109v-398l132 109v-112z" />
    <glyph glyph-name="uni2196" unicode="&#x2196;" horiz-adv-x="696" 
d="M195 575h457v-575h-104v471h-353l109 -132h-112l-152 184l152 184h112z" />
    <glyph glyph-name="uni2197" unicode="&#x2197;" horiz-adv-x="696" 
d="M393 707h111l152 -184l-152 -184h-111l108 132h-352v-471h-104v575h456z" />
    <glyph glyph-name="uni2198" unicode="&#x2198;" horiz-adv-x="696" 
d="M393 368h111l152 -184l-152 -184h-111l108 132h-456v575h104v-471h352z" />
    <glyph glyph-name="uni2199" unicode="&#x2199;" horiz-adv-x="696" 
d="M548 236v471h104v-575h-457l109 -132h-112l-152 184l152 184h112l-109 -132h353z" />
    <glyph glyph-name="partialdiff" unicode="&#x2202;" horiz-adv-x="664" 
d="M302 750l250 -327c34 -45 57 -101 57 -170c0 -163 -114 -262 -277 -263c-162 1 -276 100 -276 263c0 160 113 259 274 261l-184 236h156zM332 99c84 0 139 63 139 154c0 88 -55 152 -139 152c-83 0 -138 -63 -138 -152c0 -91 55 -154 138 -154z" />
    <glyph glyph-name="emptyset" unicode="&#x2205;" horiz-adv-x="876" 
d="M763 735l56 -56l-98 -98c51 -62 81 -141 81 -226c0 -201 -164 -366 -364 -366c-86 0 -165 30 -228 81l-98 -98l-56 56l98 98c-50 63 -80 143 -80 229c0 200 164 362 364 362c85 0 164 -30 227 -80zM190 355c0 -55 17 -105 47 -146l345 345c-40 30 -90 47 -144 47
c-136 0 -248 -111 -248 -246zM685 355c0 53 -17 103 -47 143l-345 -345c41 -29 91 -46 145 -46c136 0 247 111 247 248z" />
    <glyph glyph-name="product" unicode="&#x220f;" horiz-adv-x="803" 
d="M261 0h-136v573h-78v134h710v-134h-78v-573h-135v573h-283v-573z" />
    <glyph glyph-name="summation" unicode="&#x2211;" horiz-adv-x="694" 
d="M68 707h566v-122h-404l294 -231l-294 -231h404v-123h-566v165l239 187l-239 190v165z" />
    <glyph glyph-name="minus" unicode="&#x2212;" horiz-adv-x="559" 
d="M505 201h-450v104h450v-104z" />
    <glyph glyph-name="radical" unicode="&#x221a;" horiz-adv-x="799" 
d="M351 165l279 585h130l-357 -750h-119l-135 388h-102v116h191z" />
    <glyph glyph-name="infinity" unicode="&#x221e;" horiz-adv-x="839" 
d="M241 83c-98 0 -166 72 -166 170c0 97 68 168 166 168c62 0 118 -30 178 -92c61 62 117 92 178 92c99 0 167 -71 167 -168c0 -98 -69 -170 -167 -170c-60 0 -116 30 -178 91c-61 -61 -117 -91 -178 -91zM240 187c34 0 69 23 109 66c-41 42 -77 64 -109 64
c-38 0 -60 -26 -60 -64c0 -40 22 -66 60 -66zM598 187c39 0 61 26 61 66c0 38 -22 64 -61 64c-31 0 -67 -22 -108 -64c40 -43 75 -66 108 -66z" />
    <glyph glyph-name="integral" unicode="&#x222b;" horiz-adv-x="442" 
d="M68 -196h-27v110h27c34 0 84 9 84 86v554c0 163 91 196 222 196h28v-110h-28c-34 0 -83 -9 -83 -86v-554c0 -163 -91 -196 -223 -196z" />
    <glyph glyph-name="approxequal" unicode="&#x2248;" horiz-adv-x="623" 
d="M414 271c-77 0 -121 54 -143 78c-20 22 -35 28 -51 28c-43 0 -68 -41 -68 -99h-97c0 117 61 197 166 197c54 0 92 -23 131 -73c12 -16 27 -36 55 -36c37 0 66 36 66 98h95c0 -110 -56 -193 -154 -193zM414 30c-77 0 -121 54 -143 78c-16 18 -27 29 -51 28
c-45 -2 -68 -41 -68 -99h-97c0 119 63 198 166 198c52 0 89 -25 131 -74c11 -14 27 -36 55 -36c37 0 66 35 66 98h95c0 -109 -56 -193 -154 -193z" />
    <glyph glyph-name="notequal" unicode="&#x2260;" horiz-adv-x="619" 
d="M177 -92h-104l94 185h-112v104h165l58 111h-223v104h276l81 158h104l-81 -158h130v-104h-183l-58 -111h241v-104h-294z" />
    <glyph glyph-name="lessequal" unicode="&#x2264;" horiz-adv-x="491" 
d="M55 419l382 168v-112l-252 -103l252 -103v-113l-382 171v92zM437 13h-382v104h382v-104z" />
    <glyph glyph-name="greaterequal" unicode="&#x2265;" horiz-adv-x="491" 
d="M55 475v112l382 -168v-92l-382 -171v113l251 103zM437 13h-382v104h382v-104z" />
    <glyph glyph-name="lozenge" unicode="&#x25ca;" horiz-adv-x="663" 
d="M623 354l-291 -292l-292 291l292 292zM194 353l138 -137l138 138l-138 138z" />
    <glyph glyph-name="heart" unicode="&#x2665;" horiz-adv-x="742" 
d="M371 -10c-246 189 -334 300 -334 418c0 100 67 167 167 167c79 0 140 -47 161 -123h12c21 76 82 123 161 123c100 0 167 -67 167 -167c0 -118 -88 -229 -334 -418z" />
    <glyph glyph-name="uniF8FF" unicode="&#xf8ff;" horiz-adv-x="878" 
d="M439 0c-209 0 -380 171 -380 380c0 210 171 380 380 380c210 0 380 -170 380 -380c0 -209 -170 -380 -380 -380zM439 36c190 0 344 155 344 344c0 190 -154 344 -344 344c-189 0 -344 -154 -344 -344c0 -189 155 -344 344 -344zM638 217c-4 0 -9 2 -12 6l-145 144
c-7 8 -7 19 0 26l145 145c7 7 18 7 25 0s7 -19 0 -26l-132 -132l132 -132c7 -7 6 -17 0 -25c-3 -4 -8 -6 -13 -6zM240 217c-10 0 -18 8 -18 18v290c0 10 8 18 18 18s18 -8 18 -18v-290c0 -10 -8 -18 -18 -18zM439 217c-10 0 -18 8 -18 18v290c0 10 8 18 18 18s18 -8 18 -18
v-290c0 -10 -8 -18 -18 -18zM385 362h-91c-10 0 -18 8 -18 18s8 18 18 18h91c10 0 18 -8 18 -18s-8 -18 -18 -18z" />
    <glyph glyph-name="G.ss05" horiz-adv-x="785" 
d="M401 -14c-218 0 -364 150 -364 366c0 220 150 369 362 369c140 0 252 -66 313 -170l-127 -68c-37 73 -103 110 -186 110c-127 0 -218 -89 -218 -237c0 -142 83 -242 232 -242c94 0 182 51 195 157h-203v115h343v-68c-3 -231 -171 -332 -347 -332z" />
    <glyph glyph-name="Gbreve.ss05" horiz-adv-x="785" 
d="M397 740c-104 0 -174 28 -177 133h87c4 -46 32 -64 90 -64c60 0 88 18 92 64h87c-4 -105 -74 -133 -179 -133zM401 -14c-218 0 -364 150 -364 366c0 220 150 369 362 369c140 0 252 -66 313 -170l-127 -68c-37 73 -103 110 -186 110c-127 0 -218 -89 -218 -237
c0 -142 83 -242 232 -242c94 0 182 51 195 157h-203v115h343v-68c-3 -231 -171 -332 -347 -332z" />
    <glyph glyph-name="Gdotaccent.ss05" horiz-adv-x="785" 
d="M400 746c-45 0 -81 36 -81 81c0 44 36 79 81 79c43 0 79 -35 79 -79c0 -45 -36 -81 -79 -81zM401 -14c-218 0 -364 150 -364 366c0 220 150 369 362 369c140 0 252 -66 313 -170l-127 -68c-37 73 -103 110 -186 110c-127 0 -218 -89 -218 -237c0 -142 83 -242 232 -242
c94 0 182 51 195 157h-203v115h343v-68c-3 -231 -171 -332 -347 -332z" />
    <glyph glyph-name="IJacute" horiz-adv-x="746" 
d="M200 737h-121l83 136h147zM672 737h-121l83 136h147zM212 0h-144v707h144v-707zM474 -14c-62 0 -122 15 -188 53l61 118c36 -24 69 -37 108 -37c55 0 83 32 83 114v473h145v-500c0 -142 -86 -221 -209 -221z" />
    <glyph glyph-name="M.ss03" horiz-adv-x="898" 
d="M448 259l151 448h232v-707h-145v572l-188 -572h-98l-188 575v-575h-144v707h231z" />
    <glyph glyph-name="Q.ss04" horiz-adv-x="798" 
d="M761 354c0 -104 -34 -193 -93 -257l81 -97l-126 -48l-61 68c-48 -22 -103 -34 -163 -34c-212 0 -362 150 -362 368c0 219 150 367 362 367s362 -148 362 -367zM181 354c0 -141 91 -236 218 -236c29 0 57 5 81 14l-119 133l128 44l86 -102c27 39 43 89 43 147
c0 141 -92 235 -219 235s-218 -94 -218 -235z" />
    <glyph glyph-name="a.ss02" horiz-adv-x="642" 
d="M442 442v62h138v-504h-138v61c-30 -46 -90 -71 -159 -71c-135 0 -245 97 -245 261s110 263 245 263c69 0 129 -26 159 -72zM313 105c77 0 135 54 135 146s-58 149 -135 149c-78 0 -136 -57 -136 -149s58 -146 136 -146z" />
    <glyph glyph-name="aacute.ss02" horiz-adv-x="642" 
d="M348 707h147l-114 -142h-121zM442 442v62h138v-504h-138v61c-30 -46 -90 -71 -159 -71c-135 0 -245 97 -245 261s110 263 245 263c69 0 129 -26 159 -72zM313 105c77 0 135 54 135 146s-58 149 -135 149c-78 0 -136 -57 -136 -149s58 -146 136 -146z" />
    <glyph glyph-name="abreve.ss02" horiz-adv-x="642" 
d="M322 555c-107 0 -178 42 -178 152h98c0 -50 27 -80 80 -80c55 0 81 30 81 80h99c0 -110 -71 -152 -180 -152zM442 442v62h138v-504h-138v61c-30 -46 -90 -71 -159 -71c-135 0 -245 97 -245 261s110 263 245 263c69 0 129 -26 159 -72zM313 105c77 0 135 54 135 146
s-58 149 -135 149c-78 0 -136 -57 -136 -149s58 -146 136 -146z" />
    <glyph glyph-name="acircumflex.ss02" horiz-adv-x="642" 
d="M383 565l-60 78l-61 -78h-113l96 142h156l96 -142h-114zM442 442v62h138v-504h-138v61c-30 -46 -90 -71 -159 -71c-135 0 -245 97 -245 261s110 263 245 263c69 0 129 -26 159 -72zM313 105c77 0 135 54 135 146s-58 149 -135 149c-78 0 -136 -57 -136 -149
s58 -146 136 -146z" />
    <glyph glyph-name="acutecomb.case" 
d="M-177 737h-121l83 136h147z" />
    <glyph glyph-name="adieresis.ss02" horiz-adv-x="642" 
d="M220 582c-45 0 -81 35 -81 80c0 44 36 79 81 79c43 0 79 -35 79 -79c0 -45 -36 -80 -79 -80zM426 582c-44 0 -81 35 -81 80c0 44 37 79 81 79c43 0 80 -35 80 -79c0 -45 -37 -80 -80 -80zM442 442v62h138v-504h-138v61c-30 -46 -90 -71 -159 -71c-135 0 -245 97 -245 261
s110 263 245 263c69 0 129 -26 159 -72zM313 105c77 0 135 54 135 146s-58 149 -135 149c-78 0 -136 -57 -136 -149s58 -146 136 -146z" />
    <glyph glyph-name="agrave.ss02" horiz-adv-x="642" 
d="M297 707l88 -142h-121l-114 142h147zM442 442v62h138v-504h-138v61c-30 -46 -90 -71 -159 -71c-135 0 -245 97 -245 261s110 263 245 263c69 0 129 -26 159 -72zM313 105c77 0 135 54 135 146s-58 149 -135 149c-78 0 -136 -57 -136 -149s58 -146 136 -146z" />
    <glyph glyph-name="amacron.ss02" horiz-adv-x="642" 
d="M185 677h275v-89h-275v89zM442 442v62h138v-504h-138v61c-30 -46 -90 -71 -159 -71c-135 0 -245 97 -245 261s110 263 245 263c69 0 129 -26 159 -72zM313 105c77 0 135 54 135 146s-58 149 -135 149c-78 0 -136 -57 -136 -149s58 -146 136 -146z" />
    <glyph glyph-name="aogonek.ss02" horiz-adv-x="642" 
d="M580 504v-504c-48 -34 -82 -75 -82 -105c0 -17 16 -27 39 -27c15 0 31 5 43 15v-86c-21 -8 -48 -13 -74 -13c-53 0 -98 20 -98 68s49 100 110 148h-76v61c-30 -46 -90 -71 -159 -71c-135 0 -245 97 -245 261s110 263 245 263c69 0 129 -26 159 -72v62h138zM313 105
c77 0 135 54 135 146s-58 149 -135 149c-78 0 -136 -57 -136 -149s58 -146 136 -146z" />
    <glyph glyph-name="aring.ss02" horiz-adv-x="642" 
d="M323 558c-76 0 -124 55 -124 121c0 65 48 120 124 120c75 0 122 -55 122 -120c0 -66 -48 -121 -122 -121zM323 733c-31 0 -54 -21 -54 -54c0 -31 24 -54 54 -54s54 23 54 54c0 33 -24 54 -54 54zM442 442v62h138v-504h-138v61c-30 -46 -90 -71 -159 -71
c-135 0 -245 97 -245 261s110 263 245 263c69 0 129 -26 159 -72zM313 105c77 0 135 54 135 146s-58 149 -135 149c-78 0 -136 -57 -136 -149s58 -146 136 -146z" />
    <glyph glyph-name="aringacute.ss02" horiz-adv-x="642" 
d="M323 558c-76 0 -124 55 -124 121c0 65 48 120 124 120c6 0 12 0 18 -1l50 81h147l-110 -137c11 -18 17 -40 17 -63c0 -66 -48 -121 -122 -121zM323 733c-31 0 -54 -21 -54 -54c0 -31 24 -54 54 -54s54 23 54 54c0 33 -24 54 -54 54zM442 442v62h138v-504h-138v61
c-30 -46 -90 -71 -159 -71c-135 0 -245 97 -245 261s110 263 245 263c69 0 129 -26 159 -72zM313 105c77 0 135 54 135 146s-58 149 -135 149c-78 0 -136 -57 -136 -149s58 -146 136 -146z" />
    <glyph glyph-name="atilde.ss02" horiz-adv-x="642" 
d="M254 630c-23 0 -32 -30 -32 -65h-67c0 81 40 140 106 140c46 0 69 -24 87 -44c12 -16 23 -28 43 -28c22 0 30 28 30 65h68c0 -79 -38 -140 -107 -140c-47 0 -69 24 -85 44c-13 15 -24 28 -43 28zM442 442v62h138v-504h-138v61c-30 -46 -90 -71 -159 -71
c-135 0 -245 97 -245 261s110 263 245 263c69 0 129 -26 159 -72zM313 105c77 0 135 54 135 146s-58 149 -135 149c-78 0 -136 -57 -136 -149s58 -146 136 -146z" />
    <glyph glyph-name="braceleft.case" horiz-adv-x="346" 
d="M319 -192h-62c-100 0 -158 62 -158 139v239c0 94 -14 108 -73 124v88c59 15 73 29 73 123v239c0 77 58 139 158 139h62v-100h-36c-29 0 -53 -18 -53 -56v-218c0 -85 -15 -144 -87 -171c72 -28 87 -87 87 -172v-218c0 -38 24 -56 53 -56h36v-100z" />
    <glyph glyph-name="braceright.case" horiz-adv-x="346" 
d="M89 -192h-62v100h36c30 0 54 18 54 56v218c0 85 14 144 86 172c-71 27 -86 86 -86 171v218c0 38 -24 56 -54 56h-36v100h62c100 0 158 -62 158 -139v-239c0 -94 14 -108 73 -123v-88c-59 -16 -73 -30 -73 -124v-239c0 -77 -58 -139 -158 -139z" />
    <glyph glyph-name="bracketleft.case" horiz-adv-x="341" 
d="M317 -192h-256v1091h256v-98h-134v-895h134v-98z" />
    <glyph glyph-name="bracketright.case" horiz-adv-x="341" 
d="M280 899v-1091h-256v98h134v895h-134v98h256z" />
    <glyph glyph-name="eight.dnom" horiz-adv-x="359" 
d="M180 -8c-89 0 -154 51 -154 132c0 49 26 87 66 108c-30 19 -49 49 -49 86c0 67 57 115 137 115c78 0 135 -48 135 -115c0 -37 -19 -67 -48 -86c40 -21 66 -59 66 -108c0 -80 -65 -132 -153 -132zM180 256c33 0 60 25 60 59c0 33 -27 57 -60 57c-34 0 -60 -24 -60 -57
c0 -35 26 -59 60 -59zM180 66c40 0 70 28 70 68s-30 66 -70 66c-41 0 -71 -26 -71 -66s30 -68 71 -68z" />
    <glyph glyph-name="eight.lf" horiz-adv-x="597" 
d="M299 -14c-147 0 -256 86 -256 220c0 83 43 146 110 181c-50 31 -81 81 -81 143c0 112 94 191 227 191c131 0 226 -80 226 -191c0 -62 -32 -112 -80 -143c67 -35 109 -98 109 -181c0 -133 -108 -220 -255 -220zM299 426c55 0 100 42 100 99c0 56 -45 94 -100 94
c-56 0 -100 -38 -100 -94c0 -58 44 -99 100 -99zM299 110c67 0 117 46 117 113c0 68 -50 111 -117 111c-68 0 -117 -43 -117 -111c0 -67 50 -113 117 -113z" />
    <glyph glyph-name="eight.numr" horiz-adv-x="359" 
d="M180 275c-89 0 -154 51 -154 132c0 49 26 87 66 108c-30 19 -49 48 -49 86c0 67 57 114 137 114c78 0 135 -47 135 -114c0 -37 -19 -67 -48 -86c40 -21 66 -59 66 -108c0 -80 -65 -132 -153 -132zM180 539c33 0 60 24 60 59c0 33 -27 56 -60 56c-34 0 -60 -23 -60 -56
c0 -35 26 -59 60 -59zM180 349c40 0 70 27 70 67c0 41 -30 67 -70 67c-41 0 -71 -26 -71 -67c0 -40 30 -67 71 -67z" />
    <glyph glyph-name="exclamdown.case" horiz-adv-x="272" 
d="M135 717c45 0 81 -35 81 -79c0 -45 -36 -81 -81 -81c-43 0 -79 36 -79 81c0 44 36 79 79 79zM65 0l15 480h110l15 -480h-140z" />
    <glyph glyph-name="f_j" horiz-adv-x="653" 
d="M370 504v-106h-111v-398h-139v398h-101v106h101v50c0 148 106 206 243 206c121 0 195 -59 224 -150l-134 -35c-15 53 -43 74 -97 74c-47 0 -97 -18 -97 -95v-50h111zM453 9v495h139v-495c0 -170 -68 -252 -248 -252v107c92 0 109 41 109 145z" />
    <glyph glyph-name="f_t" horiz-adv-x="726" 
d="M259 0h-139v398h-101v106h101v50c0 163 91 196 223 196h27v-110h-27c-34 0 -84 -9 -84 -86v-50h121c54 0 83 22 83 75v87h116v-162h109v-106h-109v-224c0 -48 23 -69 64 -69h43v-105h-91c-98 0 -155 58 -155 159v239h-181v-398z" />
    <glyph glyph-name="five.dnom" horiz-adv-x="361" 
d="M133 273h48c101 0 156 -42 156 -133c0 -90 -60 -148 -152 -148c-91 0 -152 53 -152 139c0 5 1 11 1 16h82c-1 -3 -1 -6 -1 -9c0 -45 26 -72 72 -72c43 0 66 29 66 69c0 61 -51 70 -100 70h-107l17 219h253v-73h-178z" />
    <glyph glyph-name="five.lf" horiz-adv-x="596" 
d="M214 456h81c167 0 259 -72 259 -222c0 -151 -99 -248 -252 -248s-253 90 -253 232c0 9 0 19 1 28h135v-16c0 -74 43 -120 119 -120c73 0 111 49 111 115c0 102 -86 117 -166 117h-179l28 365h422v-122h-296z" />
    <glyph glyph-name="five.numr" horiz-adv-x="361" 
d="M133 556h48c101 0 156 -43 156 -133c0 -91 -60 -148 -152 -148c-91 0 -152 53 -152 139c0 5 1 11 1 16h82c-1 -3 -1 -6 -1 -9c0 -45 26 -72 72 -72c43 0 66 29 66 68c0 62 -51 71 -100 71h-107l17 219h253v-74h-178z" />
    <glyph glyph-name="four.dnom" horiz-adv-x="359" 
d="M292 158h45v-74h-45v-84h-83v84h-199v74l155 266h127v-266zM209 370l-121 -212h121v212z" />
    <glyph glyph-name="four.lf" horiz-adv-x="607" 
d="M501 263h75v-123h-75v-140h-139v140h-331v124l259 443h211v-444zM362 616l-201 -353h201v353z" />
    <glyph glyph-name="four.numr" horiz-adv-x="359" 
d="M292 440h45v-73h-45v-84h-83v84h-199v74l155 266h127v-267zM209 652l-121 -212h121v212z" />
    <glyph glyph-name="g.ss01" horiz-adv-x="593" 
d="M358 504h198v-106h-66c10 -23 16 -49 16 -78c0 -120 -98 -171 -213 -171c-37 0 -71 5 -100 15c-9 -13 -13 -25 -13 -36c0 -43 61 -49 155 -59c109 -11 219 -34 219 -149c0 -118 -110 -170 -259 -170c-176 0 -266 62 -266 139c0 40 20 81 70 123c-24 19 -39 46 -39 86
c0 44 18 83 53 113c-31 29 -48 69 -48 118c0 118 102 185 218 185c26 0 52 -3 75 -10zM288 246c59 0 91 36 91 83c0 49 -34 86 -91 86s-91 -37 -91 -86c0 -47 33 -83 91 -83zM416 -100c0 49 -64 55 -151 64c-23 2 -46 5 -69 9c-22 -23 -29 -41 -29 -58c0 -43 52 -73 128 -73
c72 0 121 14 121 58z" />
    <glyph glyph-name="gbreve.ss01" horiz-adv-x="593" 
d="M294 555c-107 0 -178 42 -178 152h98c0 -50 27 -80 80 -80c55 0 81 30 81 80h99c0 -110 -71 -152 -180 -152zM358 504h198v-106h-66c10 -23 16 -49 16 -78c0 -120 -98 -171 -213 -171c-37 0 -71 5 -100 15c-9 -13 -13 -25 -13 -36c0 -43 61 -49 155 -59
c109 -11 219 -34 219 -149c0 -118 -110 -170 -259 -170c-176 0 -266 62 -266 139c0 40 20 81 70 123c-24 19 -39 46 -39 86c0 44 18 83 53 113c-31 29 -48 69 -48 118c0 118 102 185 218 185c26 0 52 -3 75 -10zM288 246c59 0 91 36 91 83c0 49 -34 86 -91 86
s-91 -37 -91 -86c0 -47 33 -83 91 -83zM416 -100c0 49 -64 55 -151 64c-23 2 -46 5 -69 9c-22 -23 -29 -41 -29 -58c0 -43 52 -73 128 -73c72 0 121 14 121 58z" />
    <glyph glyph-name="gdotaccent.ss01" horiz-adv-x="593" 
d="M295 582c-45 0 -81 35 -81 80c0 44 36 79 81 79c43 0 79 -35 79 -79c0 -45 -36 -80 -79 -80zM358 504h198v-106h-66c10 -23 16 -49 16 -78c0 -120 -98 -171 -213 -171c-37 0 -71 5 -100 15c-9 -13 -13 -25 -13 -36c0 -43 61 -49 155 -59c109 -11 219 -34 219 -149
c0 -118 -110 -170 -259 -170c-176 0 -266 62 -266 139c0 40 20 81 70 123c-24 19 -39 46 -39 86c0 44 18 83 53 113c-31 29 -48 69 -48 118c0 118 102 185 218 185c26 0 52 -3 75 -10zM288 246c59 0 91 36 91 83c0 49 -34 86 -91 86s-91 -37 -91 -86c0 -47 33 -83 91 -83z
M416 -100c0 49 -64 55 -151 64c-23 2 -46 5 -69 9c-22 -23 -29 -41 -29 -58c0 -43 52 -73 128 -73c72 0 121 14 121 58z" />
    <glyph glyph-name="gravecomb.case" 
d="M-68 737h-121l-109 136h146z" />
    <glyph glyph-name="hookabovecomb.case" 
d="M-149 737h-84v66c58 7 79 22 79 45c0 19 -15 32 -44 32c-18 0 -38 -6 -57 -20l-35 48c31 18 58 30 103 30c77 0 119 -33 119 -84c0 -48 -38 -66 -81 -76v-41z" />
    <glyph glyph-name="i.loclTRK" horiz-adv-x="259" 
d="M131 582c-45 0 -81 35 -81 80c0 44 36 79 81 79c43 0 79 -35 79 -79c0 -45 -36 -80 -79 -80zM199 0h-139v504h139v-504z" />
    <glyph glyph-name="ijacute" horiz-adv-x="516" 
d="M188 565h-121l88 142h147zM444 565h-121l88 142h147zM199 0h-139v504h139v-504zM205 -243v107c92 0 111 41 111 145v495h138v-495c0 -170 -69 -252 -249 -252z" />
    <glyph glyph-name="less_three" horiz-adv-x="742" 
d="M371 -10c-246 189 -334 300 -334 418c0 100 67 167 167 167c79 0 140 -47 161 -123h12c21 76 82 123 161 123c100 0 167 -67 167 -167c0 -118 -88 -229 -334 -418z" />
    <glyph glyph-name="nine.dnom" horiz-adv-x="343" 
d="M173 433c88 0 155 -69 155 -151c0 -35 -10 -69 -38 -106l-134 -176h-100l110 142c-4 -1 -8 -1 -12 -1c-76 0 -139 58 -139 142s73 150 158 150zM251 279c1 42 -28 80 -76 80c-46 0 -78 -36 -79 -78c-1 -44 29 -80 78 -80c46 0 75 33 77 78z" />
    <glyph glyph-name="nine.lf" horiz-adv-x="594" 
d="M299 721c147 0 259 -115 259 -252c0 -58 -18 -113 -64 -175l-224 -294h-166l184 236c-7 -1 -14 -1 -21 -1c-126 0 -232 96 -232 237c0 140 121 249 264 249zM428 465c3 70 -45 133 -126 133c-77 0 -130 -60 -132 -129c-1 -74 49 -134 130 -134c77 0 126 55 128 130z" />
    <glyph glyph-name="nine.numr" horiz-adv-x="343" 
d="M173 715c88 0 155 -68 155 -151c0 -34 -10 -68 -38 -105l-134 -176h-100l110 142c-4 -1 -8 -1 -12 -1c-76 0 -139 57 -139 142c0 84 73 149 158 149zM251 562c1 42 -28 79 -76 79c-46 0 -78 -35 -79 -77c-1 -45 29 -81 78 -81c46 0 75 34 77 79z" />
    <glyph glyph-name="one.dnom" horiz-adv-x="246" 
d="M10 342l101 82h80v-424h-83v328l-98 -80v94z" />
    <glyph glyph-name="one.lf" horiz-adv-x="415" 
d="M31 571l168 136h134v-707h-138v547l-164 -133v157z" />
    <glyph glyph-name="one.numr" horiz-adv-x="246" 
d="M10 625l101 82h80v-424h-83v327l-98 -79v94z" />
    <glyph glyph-name="parenleft.case" horiz-adv-x="354" 
d="M336 -192h-133c-99 122 -157 320 -157 546s58 423 157 545h133c-106 -112 -168 -312 -168 -545c0 -234 62 -434 168 -546z" />
    <glyph glyph-name="parenright.case" horiz-adv-x="354" 
d="M151 -192h-133c106 112 168 312 168 546c0 233 -62 433 -168 545h133c99 -122 157 -319 157 -545s-58 -424 -157 -546z" />
    <glyph glyph-name="play" horiz-adv-x="823" 
d="M411 -10c-200 0 -363 164 -363 364s163 363 363 363s364 -163 364 -363s-164 -364 -364 -364zM411 63c162 0 291 129 291 291s-129 291 -291 291s-291 -129 -291 -291s129 -291 291 -291zM615 354l-291 -199v398z" />
    <glyph glyph-name="questiondown.case" horiz-adv-x="532" 
d="M270 717c44 0 80 -35 80 -79c0 -45 -36 -80 -80 -80c-43 0 -79 35 -79 80c0 44 35 79 79 79zM216 487h110v-42c0 -67 -35 -94 -79 -121c-39 -24 -80 -49 -80 -120c0 -67 44 -103 106 -103c67 0 108 43 108 104c0 10 -1 21 -3 31l123 -7c1 -9 2 -20 2 -32
c0 -123 -93 -211 -230 -211c-140 0 -237 80 -237 208c0 132 82 172 130 204c32 21 50 39 50 70v19z" />
    <glyph glyph-name="seven.dnom" horiz-adv-x="315" 
d="M9 351v73h300v-73l-194 -351h-95l199 351h-210z" />
    <glyph glyph-name="seven.lf" horiz-adv-x="556" 
d="M29 585v122h499v-122l-323 -585h-159l332 585h-349z" />
    <glyph glyph-name="seven.numr" horiz-adv-x="315" 
d="M9 633v74h300v-74l-194 -350h-95l199 350h-210z" />
    <glyph glyph-name="six.dnom" horiz-adv-x="343" 
d="M189 283c76 0 139 -57 139 -142c0 -84 -72 -149 -158 -149c-88 0 -155 69 -155 151c0 35 10 68 38 105l134 176h100l-110 -141h12zM247 143c1 45 -29 81 -78 81c-46 0 -75 -34 -77 -78c-1 -43 28 -80 76 -80c46 0 78 35 79 77z" />
    <glyph glyph-name="six.lf" horiz-adv-x="593" 
d="M326 472c127 0 233 -96 233 -236c0 -141 -122 -250 -264 -250c-148 0 -259 115 -259 252c0 58 17 114 64 175l224 294h165l-184 -236c7 1 14 1 21 1zM423 239c2 74 -49 134 -130 134c-76 0 -126 -56 -128 -130c-2 -71 46 -133 126 -133c77 0 131 59 132 129z" />
    <glyph glyph-name="six.numr" horiz-adv-x="343" 
d="M189 566c76 0 139 -57 139 -142c0 -84 -72 -149 -158 -149c-88 0 -155 68 -155 151c0 34 10 68 38 105l134 176h100l-110 -142c4 1 8 1 12 1zM247 426c1 44 -29 80 -78 80c-46 0 -75 -33 -77 -78c-1 -42 28 -79 76 -79c46 0 78 35 79 77z" />
    <glyph glyph-name="t_t" horiz-adv-x="749" 
d="M363 0h-90c-99 0 -155 58 -155 159v239h-99v106h47c46 0 67 22 67 60v87h124v-147h155c45 0 67 22 67 60v87h123v-147h109v-106h-109v-224c0 -48 25 -69 65 -69h42v-105h-90c-99 0 -155 58 -155 159v239h-207v-224c0 -48 25 -69 64 -69h42v-105z" />
    <glyph glyph-name="three.dnom" horiz-adv-x="352" 
d="M178 -8c-101 0 -157 54 -157 152h85c1 -45 20 -78 71 -78c42 0 66 27 66 64c0 52 -43 62 -69 62h-14v64h12c34 0 57 22 57 55c0 29 -22 48 -53 48c-37 0 -60 -26 -60 -68v-4l-84 8c0 87 56 138 142 138c78 0 133 -52 133 -114c0 -48 -31 -79 -56 -89
c38 -10 77 -41 77 -105c0 -79 -59 -133 -150 -133z" />
    <glyph glyph-name="three.lf" horiz-adv-x="590" 
d="M300 -14c-168 0 -262 90 -262 255h142c1 -76 33 -131 117 -131c72 0 112 45 112 107c0 86 -73 104 -117 104h-23v106h21c56 0 95 37 95 91c0 49 -36 81 -89 81c-62 0 -100 -44 -100 -115v-6l-140 14c0 145 94 229 236 229c131 0 222 -85 222 -190
c0 -80 -51 -130 -93 -147c64 -17 128 -69 128 -175c0 -132 -98 -223 -249 -223z" />
    <glyph glyph-name="three.numr" horiz-adv-x="352" 
d="M178 275c-101 0 -157 54 -157 152h85c1 -45 20 -78 71 -78c42 0 66 27 66 64c0 52 -43 62 -69 62h-14v64h12c34 0 57 22 57 55c0 29 -22 48 -53 48c-37 0 -60 -26 -60 -69v-4l-84 9c0 87 56 137 142 137c78 0 133 -51 133 -114c0 -47 -31 -78 -56 -88
c38 -10 77 -41 77 -105c0 -79 -59 -133 -150 -133z" />
    <glyph glyph-name="tildecomb.case" 
d="M-174 737c-47 0 -69 25 -85 45c-13 15 -24 27 -43 27c-23 0 -32 -29 -32 -65h-67c0 82 40 141 106 141c46 0 69 -25 87 -45c12 -15 23 -28 43 -28c22 0 30 28 30 66h68c0 -79 -38 -141 -107 -141z" />
    <glyph glyph-name="two.dnom" horiz-adv-x="346" 
d="M258 193l-115 -119h179v-74h-296v66l169 173c26 25 37 45 37 69c0 32 -22 51 -58 51c-43 0 -67 -24 -67 -71v-20l-82 8v19c0 86 56 138 146 138c84 0 143 -47 143 -122c0 -45 -16 -78 -56 -118z" />
    <glyph glyph-name="two.lf" horiz-adv-x="583" 
d="M434 321l-193 -198h300v-123h-495v111l283 287c42 42 62 75 62 115c0 54 -37 85 -97 85c-72 0 -112 -40 -112 -118v-34l-137 14v32c0 143 93 229 243 229c141 0 240 -77 240 -203c0 -75 -28 -129 -94 -197z" />
    <glyph glyph-name="two.numr" horiz-adv-x="346" 
d="M258 475l-116 -119h180v-73h-296v66l169 173c26 25 37 44 37 68c0 33 -22 51 -58 51c-43 0 -67 -23 -67 -70v-21l-82 9v19c0 86 56 137 146 137c84 0 143 -46 143 -122c0 -44 -16 -77 -56 -118z" />
    <glyph glyph-name="uni004A0301" horiz-adv-x="466" 
d="M392 737h-121l83 136h147zM194 -14c-62 0 -122 15 -188 53l61 118c36 -24 69 -37 108 -37c55 0 83 32 83 114v473h145v-500c0 -142 -86 -221 -209 -221z" />
    <glyph glyph-name="uni006A0301" horiz-adv-x="257" 
d="M185 565h-121l88 142h147zM-54 -243v107c92 0 111 41 111 145v495h138v-495c0 -170 -69 -252 -249 -252z" />
    <glyph glyph-name="uni0122.ss05" horiz-adv-x="785" 
d="M401 -14c-218 0 -364 150 -364 366c0 220 150 369 362 369c140 0 252 -66 313 -170l-127 -68c-37 73 -103 110 -186 110c-127 0 -218 -89 -218 -237c0 -142 83 -242 232 -242c94 0 182 51 195 157h-203v115h343v-68c-3 -231 -171 -332 -347 -332zM357 -173h-98l96 143
h117z" />
    <glyph glyph-name="uni0123.ss01" horiz-adv-x="593" 
d="M350 707h99l-96 -142h-117zM358 504h198v-106h-66c10 -23 16 -49 16 -78c0 -120 -98 -171 -213 -171c-37 0 -71 5 -100 15c-9 -13 -13 -25 -13 -36c0 -43 61 -49 155 -59c109 -11 219 -34 219 -149c0 -118 -110 -170 -259 -170c-176 0 -266 62 -266 139
c0 40 20 81 70 123c-24 19 -39 46 -39 86c0 44 18 83 53 113c-31 29 -48 69 -48 118c0 118 102 185 218 185c26 0 52 -3 75 -10zM288 246c59 0 91 36 91 83c0 49 -34 86 -91 86s-91 -37 -91 -86c0 -47 33 -83 91 -83zM416 -100c0 49 -64 55 -151 64c-23 2 -46 5 -69 9
c-22 -23 -29 -41 -29 -58c0 -43 52 -73 128 -73c72 0 121 14 121 58z" />
    <glyph glyph-name="uni01CE.ss02" horiz-adv-x="642" 
d="M497 707l-96 -142h-156l-96 142h113l61 -78l60 78h114zM442 442v62h138v-504h-138v61c-30 -46 -90 -71 -159 -71c-135 0 -245 97 -245 261s110 263 245 263c69 0 129 -26 159 -72zM313 105c77 0 135 54 135 146s-58 149 -135 149c-78 0 -136 -57 -136 -149
s58 -146 136 -146z" />
    <glyph glyph-name="uni0302.case" 
d="M-305 742h-113l96 131h158l96 -131h-113l-62 68z" />
    <glyph glyph-name="uni03020300" 
d="M-68 636h-121l-115 142h148zM-428 565h-113l96 142h156l96 -142h-114l-60 78z" />
    <glyph glyph-name="uni03020300.case" 
d="M-68 804h-121l-109 135h147zM-419 742h-113l96 131h158l96 -131h-113l-62 68z" />
    <glyph glyph-name="uni03020301" 
d="M-215 778h148l-115 -142h-57l48 -71h-114l-60 78l-61 -78h-113l96 142h156l15 -22z" />
    <glyph glyph-name="uni03020301.case" 
d="M-214 939h147l-110 -135h-47l45 -62h-113l-62 68l-62 -68h-113l96 131h158l11 -15z" />
    <glyph glyph-name="uni03020303" 
d="M-194 736c-48 0 -69 25 -86 45c-12 15 -23 27 -43 27c-23 0 -32 -29 -32 -65h-67c0 82 40 141 106 141c47 0 70 -25 87 -45c12 -15 23 -28 43 -28c22 0 30 28 30 66h68c0 -79 -38 -141 -106 -141zM-255 643l-60 -78h-114l96 142h156l96 -142h-113z" />
    <glyph glyph-name="uni03020303.case" 
d="M-194 888c-48 0 -69 24 -86 44c-12 15 -23 27 -43 27c-23 0 -32 -29 -32 -64h-67c0 81 40 140 106 140c47 0 70 -24 87 -45c12 -15 23 -28 43 -28c22 0 30 29 30 66h68c0 -79 -38 -140 -106 -140zM-255 810l-62 -68h-113l96 131h158l97 -131h-114z" />
    <glyph glyph-name="uni03020309" 
d="M-149 676v-40h-99v58c58 7 79 22 79 44c0 20 -15 32 -44 32c-18 0 -38 -5 -65 -19l-35 55c38 19 74 30 118 30c85 0 127 -33 127 -83c0 -49 -38 -67 -81 -77zM-441 565h-113l96 142h156l96 -142h-114l-60 78z" />
    <glyph glyph-name="uni03020309.case" 
d="M-148 843v-41h-84v66c57 7 79 22 79 44c0 20 -16 32 -45 32c-17 0 -37 -5 -56 -19l-36 48c31 18 59 30 104 30c77 0 119 -34 119 -84c0 -48 -39 -66 -81 -76zM-379 810l-62 -68h-113l96 131h158l96 -131h-113z" />
    <glyph glyph-name="uni0304.case" 
d="M-67 775h-325v89h325v-89z" />
    <glyph glyph-name="uni0306.case" 
d="M-247 740c-104 0 -174 28 -177 133h87c4 -46 32 -64 90 -64c60 0 88 18 92 64h87c-4 -105 -74 -133 -179 -133z" />
    <glyph glyph-name="uni03060300" 
d="M-183 720h-121l-115 143h147zM-247 555c-107 0 -179 42 -179 152h99c0 -50 26 -80 80 -80c55 0 81 30 81 80h99c0 -110 -72 -152 -180 -152z" />
    <glyph glyph-name="uni03060300.case" 
d="M-184 888h-121l-110 135h147zM-246 740c-104 0 -174 28 -178 133h88c3 -46 32 -64 90 -64c60 0 88 18 91 64h88c-4 -105 -74 -133 -179 -133z" />
    <glyph glyph-name="uni03060301" 
d="M-195 720h-121l88 143h148zM-255 555c-107 0 -178 42 -178 152h98c0 -50 27 -80 80 -80c55 0 81 30 81 80h99c0 -110 -71 -152 -180 -152z" />
    <glyph glyph-name="uni03060301.case" 
d="M-192 888h-121l84 135h146zM-254 740c-104 0 -174 28 -177 133h87c4 -46 32 -64 90 -64c60 0 88 18 92 64h87c-4 -105 -74 -133 -179 -133z" />
    <glyph glyph-name="uni03060303" 
d="M-187 761c-48 0 -69 25 -85 45c-13 15 -24 27 -44 27c-23 0 -32 -29 -32 -65h-67c0 82 41 141 107 141c46 0 69 -25 86 -45c13 -15 24 -28 43 -28c23 0 30 28 30 66h68c0 -79 -37 -141 -106 -141zM-248 555c-108 0 -179 42 -179 152h99c0 -50 26 -80 80 -80s81 30 81 80
h98c0 -110 -71 -152 -179 -152z" />
    <glyph glyph-name="uni03060303.case" 
d="M-187 903c-48 0 -69 24 -85 44c-13 15 -24 27 -44 27c-23 0 -32 -29 -32 -64h-67c0 81 41 140 107 140c46 0 69 -24 86 -45c13 -15 24 -28 43 -28c23 0 30 29 30 66h68c0 -79 -37 -140 -106 -140zM-248 740c-104 0 -175 28 -178 133h87c4 -46 32 -64 91 -64s87 18 91 64
h87c-3 -105 -74 -133 -178 -133z" />
    <glyph glyph-name="uni03060309" 
d="M-205 693h-84v50c58 7 79 23 79 45c0 20 -15 32 -44 32c-18 0 -38 -5 -57 -19l-36 48c31 18 59 29 104 29c77 0 119 -33 119 -83c0 -48 -38 -67 -81 -77v-25zM-248 555c-107 0 -178 42 -178 152h98c0 -50 27 -80 80 -80c55 0 81 30 81 80h99c0 -110 -71 -152 -180 -152z
" />
    <glyph glyph-name="uni03060309.case" 
d="M-204 863h-84v65c58 7 79 23 79 45c0 19 -15 32 -44 32c-18 0 -38 -5 -57 -20l-36 48c31 19 59 30 104 30c77 0 119 -33 119 -83c0 -49 -38 -67 -81 -77v-40zM-247 740c-104 0 -174 28 -177 133h87c4 -46 32 -64 90 -64c60 0 88 18 92 64h87c-4 -105 -74 -133 -179 -133z
" />
    <glyph glyph-name="uni0307.case" 
d="M-147 746c-45 0 -81 36 -81 81c0 44 36 79 81 79c43 0 79 -35 79 -79c0 -45 -36 -81 -79 -81z" />
    <glyph glyph-name="uni0308.case" 
d="M-353 746c-45 0 -81 36 -81 81c0 44 36 79 81 79c43 0 79 -35 79 -79c0 -45 -36 -81 -79 -81zM-147 746c-44 0 -81 36 -81 81c0 44 37 79 81 79c43 0 80 -35 80 -79c0 -45 -37 -81 -80 -81z" />
    <glyph glyph-name="uni030A.case" 
d="M-198 735c-72 0 -131 51 -131 127s58 127 131 127c72 0 130 -51 130 -127s-58 -127 -130 -127zM-198 799c35 0 64 26 64 63s-28 63 -64 63c-35 0 -62 -26 -62 -63s27 -63 62 -63z" />
    <glyph glyph-name="uni030B.case" 
d="M-371 737h-121l91 136h139zM-177 737h-121l91 136h139z" />
    <glyph glyph-name="uni030C.case" 
d="M-164 742h-158l-96 131h113l62 -68l62 68h113z" />
    <glyph glyph-name="uni0312.case" 
d="M-159 737h-116l109 136h99z" />
    <glyph glyph-name="uni0338.case" 
d="M-68 738l-542 -778l-53 32l542 778z" />
    <glyph glyph-name="uni1EA1.ss02" horiz-adv-x="642" 
d="M442 442v62h138v-504h-138v61c-30 -46 -90 -71 -159 -71c-135 0 -245 97 -245 261s110 263 245 263c69 0 129 -26 159 -72zM313 105c77 0 135 54 135 146s-58 149 -135 149c-78 0 -136 -57 -136 -149s58 -146 136 -146zM324 -62c43 0 79 -36 79 -80
c0 -45 -36 -80 -79 -80c-45 0 -81 35 -81 80c0 44 36 80 81 80z" />
    <glyph glyph-name="uni1EA3.ss02" horiz-adv-x="642" 
d="M307 676c-17 0 -37 -6 -64 -20l-35 56c38 18 73 29 118 29c85 0 127 -33 127 -83c0 -48 -39 -67 -81 -77v-40h-99v58c57 7 79 22 79 45c0 19 -16 32 -45 32zM442 442v62h138v-504h-138v61c-30 -46 -90 -71 -159 -71c-135 0 -245 97 -245 261s110 263 245 263
c69 0 129 -26 159 -72zM313 105c77 0 135 54 135 146s-58 149 -135 149c-78 0 -136 -57 -136 -149s58 -146 136 -146z" />
    <glyph glyph-name="uni1EA5.ss02" horiz-adv-x="642" 
d="M383 565l-60 78l-61 -78h-113l96 142h156l15 -22l57 93h148l-115 -142h-57l48 -71h-114zM442 442v62h138v-504h-138v61c-30 -46 -90 -71 -159 -71c-135 0 -245 97 -245 261s110 263 245 263c69 0 129 -26 159 -72zM313 105c77 0 135 54 135 146s-58 149 -135 149
c-78 0 -136 -57 -136 -149s58 -146 136 -146z" />
    <glyph glyph-name="uni1EA7.ss02" horiz-adv-x="642" 
d="M534 778l88 -142h-121l-115 142h148zM383 565l-60 78l-61 -78h-113l96 142h156l96 -142h-114zM442 442v62h138v-504h-138v61c-30 -46 -90 -71 -159 -71c-135 0 -245 97 -245 261s110 263 245 263c69 0 129 -26 159 -72zM313 105c77 0 135 54 135 146s-58 149 -135 149
c-78 0 -136 -57 -136 -149s58 -146 136 -146z" />
    <glyph glyph-name="uni1EA9.ss02" horiz-adv-x="642" 
d="M508 836c85 0 127 -33 127 -83c0 -49 -38 -67 -81 -77v-40h-99v58c58 7 79 22 79 44c0 20 -15 32 -44 32c-18 0 -38 -5 -65 -19l-35 55c38 19 74 30 118 30zM383 565l-60 78l-61 -78h-113l96 142h156l96 -142h-114zM442 442v62h138v-504h-138v61
c-30 -46 -90 -71 -159 -71c-135 0 -245 97 -245 261s110 263 245 263c69 0 129 -26 159 -72zM313 105c77 0 135 54 135 146s-58 149 -135 149c-78 0 -136 -57 -136 -149s58 -146 136 -146z" />
    <glyph glyph-name="uni1EAB.ss02" horiz-adv-x="642" 
d="M254 808c-23 0 -32 -29 -32 -65h-67c0 82 40 141 106 141c47 0 70 -25 87 -45c12 -15 23 -28 43 -28c22 0 30 28 30 66h68c0 -79 -38 -141 -106 -141c-48 0 -69 25 -86 45c-12 15 -23 27 -43 27zM383 565l-61 78l-60 -78h-114l96 142h156l96 -142h-113zM442 442v62h138
v-504h-138v61c-30 -46 -90 -71 -159 -71c-135 0 -245 97 -245 261s110 263 245 263c69 0 129 -26 159 -72zM313 105c77 0 135 54 135 146s-58 149 -135 149c-78 0 -136 -57 -136 -149s58 -146 136 -146z" />
    <glyph glyph-name="uni1EAD.ss02" horiz-adv-x="642" 
d="M383 565l-60 78l-61 -78h-113l96 142h156l96 -142h-114zM442 442v62h138v-504h-138v61c-30 -46 -90 -71 -159 -71c-135 0 -245 97 -245 261s110 263 245 263c69 0 129 -26 159 -72zM313 105c77 0 135 54 135 146s-58 149 -135 149c-78 0 -136 -57 -136 -149
s58 -146 136 -146zM324 -62c43 0 79 -36 79 -80c0 -45 -36 -80 -79 -80c-45 0 -81 35 -81 80c0 44 36 80 81 80z" />
    <glyph glyph-name="uni1EAF.ss02" horiz-adv-x="642" 
d="M349 863h148l-115 -143h-121zM322 555c-107 0 -178 42 -178 152h98c0 -50 27 -80 80 -80c55 0 81 30 81 80h99c0 -110 -71 -152 -180 -152zM442 442v62h138v-504h-138v61c-30 -46 -90 -71 -159 -71c-135 0 -245 97 -245 261s110 263 245 263c69 0 129 -26 159 -72z
M313 105c77 0 135 54 135 146s-58 149 -135 149c-78 0 -136 -57 -136 -149s58 -146 136 -146z" />
    <glyph glyph-name="uni1EB1.ss02" horiz-adv-x="642" 
d="M297 863l89 -143h-121l-115 143h147zM322 555c-107 0 -179 42 -179 152h99c0 -50 26 -80 80 -80c55 0 81 30 81 80h99c0 -110 -72 -152 -180 -152zM442 442v62h138v-504h-138v61c-30 -46 -90 -71 -159 -71c-135 0 -245 97 -245 261s110 263 245 263c69 0 129 -26 159 -72
zM313 105c77 0 135 54 135 146s-58 149 -135 149c-78 0 -136 -57 -136 -149s58 -146 136 -146z" />
    <glyph glyph-name="uni1EB3.ss02" horiz-adv-x="642" 
d="M316 820c-18 0 -38 -5 -57 -19l-36 48c31 18 59 29 104 29c77 0 119 -33 119 -83c0 -48 -38 -67 -81 -77v-25h-84v50c58 7 79 23 79 45c0 20 -15 32 -44 32zM322 555c-107 0 -178 42 -178 152h98c0 -50 27 -80 80 -80c55 0 81 30 81 80h99c0 -110 -71 -152 -180 -152z
M442 442v62h138v-504h-138v61c-30 -46 -90 -71 -159 -71c-135 0 -245 97 -245 261s110 263 245 263c69 0 129 -26 159 -72zM313 105c77 0 135 54 135 146s-58 149 -135 149c-78 0 -136 -57 -136 -149s58 -146 136 -146z" />
    <glyph glyph-name="uni1EB5.ss02" horiz-adv-x="642" 
d="M255 833c-23 0 -32 -29 -32 -65h-67c0 82 41 141 107 141c46 0 69 -25 86 -45c13 -15 24 -28 43 -28c23 0 30 28 30 66h68c0 -79 -37 -141 -106 -141c-48 0 -69 25 -85 45c-13 15 -24 27 -44 27zM323 555c-108 0 -179 42 -179 152h99c0 -50 26 -80 80 -80s81 30 81 80h98
c0 -110 -71 -152 -179 -152zM442 442v62h138v-504h-138v61c-30 -46 -90 -71 -159 -71c-135 0 -245 97 -245 261s110 263 245 263c69 0 129 -26 159 -72zM313 105c77 0 135 54 135 146s-58 149 -135 149c-78 0 -136 -57 -136 -149s58 -146 136 -146z" />
    <glyph glyph-name="uni1EB7.ss02" horiz-adv-x="642" 
d="M322 555c-107 0 -178 42 -178 152h98c0 -50 27 -80 80 -80c55 0 81 30 81 80h99c0 -110 -71 -152 -180 -152zM442 442v62h138v-504h-138v61c-30 -46 -90 -71 -159 -71c-135 0 -245 97 -245 261s110 263 245 263c69 0 129 -26 159 -72zM313 105c77 0 135 54 135 146
s-58 149 -135 149c-78 0 -136 -57 -136 -149s58 -146 136 -146zM324 -62c43 0 79 -36 79 -80c0 -45 -36 -80 -79 -80c-45 0 -81 35 -81 80c0 44 36 80 81 80z" />
    <glyph glyph-name="zero.dnom" horiz-adv-x="371" 
d="M185 -8c-99 0 -154 71 -154 220c0 150 56 221 154 221c99 0 154 -71 154 -221c0 -148 -55 -220 -154 -220zM185 66c44 0 71 44 71 146c0 103 -27 146 -71 146s-71 -43 -71 -146c0 -102 27 -146 71 -146z" />
    <glyph glyph-name="zero.lf" horiz-adv-x="617" 
d="M309 -14c-165 0 -257 120 -257 368c0 249 93 367 257 367s256 -118 256 -367c0 -248 -92 -368 -256 -368zM309 111c73 0 118 73 118 243c0 171 -44 243 -118 243s-118 -72 -118 -243s44 -243 118 -243z" />
    <glyph glyph-name="zero.numr" horiz-adv-x="371" 
d="M185 275c-99 0 -154 71 -154 220c0 150 56 220 154 220c99 0 154 -71 154 -220s-55 -220 -154 -220zM185 349c44 0 71 44 71 146s-27 146 -71 146s-71 -43 -71 -146c0 -102 27 -146 71 -146z" />
    </font>
</defs>
</svg>
